<mxfile host="65bd71144e">
    <diagram id="igbXz3q2kZEqrS_ydg_z" name="Page-1">
        <mxGraphModel dx="527" dy="390" grid="1" gridSize="10" guides="1" tooltips="1" connect="1" arrows="1" fold="1" page="1" pageScale="1" pageWidth="827" pageHeight="1169" math="0" shadow="0">
            <root>
                <mxCell id="0"/>
                <mxCell id="1" parent="0"/>
                <mxCell id="2" value="" style="shape=image;verticalLabelPosition=bottom;labelBackgroundColor=default;verticalAlign=top;aspect=fixed;imageAspect=0;image=data:image/png,iVBORw0KGgoAAAANSUhEUgAAAdgAAAIICAYAAADND/8rAAAAAXNSR0IArs4c6QAAIABJREFUeF7svfeTHFeW7/dNX96070YbeA8ChCNBA7qZoRvDMetm34ZWUkihp1CEpF/0l+hthEIRTz+8J73QD7va4XCWY+gNSMJ779q76i5v0ivOySqgYbvaVDvk3eUA6M7KvPfcW/m5x17h7V/8nXs19hpGmvfB1mJwBAH1tnYpjTda/wm9m8tQNLHejy3rda7jopw3UUiVIagChDmMt9ZxwXBh387DullEwJIQ1GSokgDUL7oHZOBCgBsUYXWq0DtV2EER7jzvtRjCdW0XkiQgnAxADcnzk1FNri7gwp1bt1zANGxkJxwUyh1whASAxq8v0QV6Yi14f/9RHNi0C0EtMLd+L/Bq13UxXcjioxNf4uvrZ1FyjHmvqbl0RXIFrE924N3nX8H+jTsRUNW5fHzB1zqui/HMFD468QWO3TwPHRYwj+/lXDsiQ8DGpnV4/8CreK5vKzRlicftOBhJT+Dj09/gu1sXUHEtACZkdwyJpgIiCRGi3Lh1L0CAKmlQpSBs14LlmKBv62zNcR2+ntbrbE0UvPeH49pwXWe2y2FbLlK3S8icEmFOi6jjI7PecykueJIshLc/+Dv3avTZASwJ29RtTA0VIMmAIM19AbuGi9L1EorXylBtGeFAAIosLuidIARFoFuE2ykCISwfYF3AsR1oQQXhJg2yIi3F+nzkGY7jojhtIpeJwHDa4AoEu8bvOgKCjH09W/DOvpexob0HiiwvyfjpC1qslHDi5kX8+fx3GMpOwm78cL2xuUAAMvb3bcO7+19FX1sXZGlp5p3GXaiU8MO18/jj+WMYy0/BEZdo4K4LDTIObtiBnx18Heua2yCJSzjucgnHrp7Fx2e/wWQ5B1d0Ibp5aPI4ku02tJC0oHfKkizcRX7ImgPsu7/8rXs5ehQjTc+GBkvrgQCSmyhDL5sQlbkvYsdwkblaQfpyGaqjIRwMQlGU+S81AZCCgNLjQu5yIYbcZQMsafhwXITiAYTiKoSletk9LD0XMHQL2UkXpXIbbCEJYAlefjR2ScMrW/bhrecOo7OpFTLtxBrYCDIlo4Irg7fwybnvcW1iEAZpCEvEGR6a4yKuhHB0+368vvsQ2hJNDYcNj1sv49LALXxy4XtcnxiCQdrrUjbHRXMgitd3HMTRXQfRFI1DEue+6Z5Ll73NVBkXBm7gL+e+w63UMEzBBlwTqjCBaDyPSFKEpDS2H3Pp81Jdu+YA+94v/54BO9S8F4669k3EvGF3XehFC9nxEiRFAOYIEQIsaa+FayWolopwiDRYevnP841IHwsC0joRQheWT4Mlc67lQFYlhJsCUAJk3lmqr9ajzyHYl7IWcmkNutUGR4jMX8ZzGYbjIqmF8cq25/HStn0MWdJkyaS22I3MbfSyvTFyF59dPI5Lw3eWzET68FhEB2gNx/DqtgN4YetzaIsneXMxHzfKbHKqjfva0B18cekELo/e9Uykiy/i2boC2RXQGWnCK9v349CW3WiOJViDb+R8Xxm4hc8vn8D18UFUHBOuYEF0MggFphBvdaAGaeO/DMKYVVqNvWBNAvYKabDNe2E+I4ClJWJbDgPWMmxI8hx9noYL61YR+s0iNFNEOKCyiXghjX2wXQqsDhlOaI79WciDZ3yWgEb+12BUQzipQSS/8jI323SQm7JQzEVgYulMxQJpdGoIBzfsxIvb9qKvtQtBVYO4SNoNbfIs20aulMeVods4du0sroz2Q3dNYJGeMZ+pk1ygORDDgQ07cWjLLvS0dC76uE3bQqbgjfu762dxY3wQZcdaCjf7Y0UiuIAMEa3hBA5u3IkDm3aiq7kNQWVx55vGnS7k2FJB830zNYIKzTdsiE4BqjyJWNJAKC5BnIfraj7zvdI+4wN2xoysxiCnWvfpBVcpmChMVXjXLMwBJhTk5NzJwybAWgJCqlwF7DyBJABuQIRxL8hJWlrzIKv1gGs7kBWZ4aoEl1d7vbfMyFRcsZGbslEuxmEJLXAFbWk0WdpsiAp2rtuA/Rt3YFNHL1pjSdZmRYF87nMLkqM1RwE9tmOjpFcwPDXOkDnXfw1DmUnoDJl5rqFFfFMKtouQrGFn1wY8v4HG3YPmeAKqJPMGg8c9B1Vz5rhJWx9MjbJZ+PzAdYzl09CXSXN9nAYfVYLYsW4D9q3fhk3tPWwyVmRlxrjrF7Q3bge246BQKmFgahQXB27gfP91TBSzMCnwR3AgOkWocgrhWBnhuOjFPSz/Mqh/oIt4pQ/YNQLYmhZLgK0UDIiKWLe/8QHAmkBIlSCzBjvPb0UVsGaXBr1Tgx1cesCS5kqQDcU0BOPqitBeZ26G9JKNYtpBiSHbBFcIzl/ec3khOC5UUUYiEMa2rvXY2NaNjkQLWqIJRIIhqLJyL+L1cbNfi7OkCMqyriNbynPE7PD0BG6M9uNOahRl24BNatRKao4LTZTRHIpha2cf1rd2oTPZyubTSCAEpWo6pl4/bdyO46Bs6MgWcxjPTGNoagw3xvpxe3KENxTOwgw/iy8xHreC1kgcWzv60Nfaia5kK5qiCYTvjfvJj63NomPb7FfPFvMYy05heHIc18b60T81hopjwOVx2xDdElQpjVCkhHBcgKzNPSZk8YWwfHf0AbuGAEs7TLNsI5cqg14EbJapg5E1wJKZWKm4UGURMmkeC/CZuEEJTncA1roAnNASA5ZMww7Y58raq7rydtBkvjbKNgoZgmwEFpJwhXA1faeOSVvgO4P4pwoygrKCjngL/xcNhqGSb7Y67+Jj5p80GFpUtL4qpo7pYo7hmiINxrFg0e9XgNb6JPGQX5Y2GKTRdiSa0Z5oRlS7P24CyuPH7aGGAgpLpo50McvjnipkYcJeNeMOqwF0JlrQHm9GRAuxFv+0wD+yUNBOlbRW2lhMFdIYTk8iUyzwhsIWvFQVASZHDCtyBqGYgXBUhKwtLBNhgUt8RXzcB+waAiy/ABwXlbyBUlbn4CeB/F+zvK8Fk0zEBdi3CkDJZZfZgl7xZHKjoIbeINATBMIE2AXdse4vC+dvUd6rLCKU1KCFlBUbXEGQNXUHpZyNUlGDacXgIDrDZLwEMnMpllmALND/1nJ8yQThPmIyrplGeSpd8IuZgrQt0tyI2Es0x3Uvhqdd6ACSIECmNBbqevVa/s48ZCqnn/G64nGTGR1w4MJybDBeVprW+rRxV/2zNG4eK8HxCfP2wLjJiC7QV8uB5Tiey4etFORvrUAS81CVPEJRE4GoxGbh1bQcFmVNPeYmPmDXGGBrpuJS1mDQ8u5ytqIRlguMV+CMlOFUXO97s5BGyi/tXjs0CK0ahMDSaLD8QrBd1kBCCQ2BqOdrWsmN9wOWA71oo1IQUakEYDlhOAjDFahQQM1UvzSw9WTlldLwnjjzufdLbLDPcgm6tGRzx2v+2R33kwzjtVeBN9/3HAQU4AABFUgoQpaKCIZNBMIu1KAIqU7L2ZLN7TI+yAfsGgQsvR1N00Y5o6NSNCGQRvq0KD763lRs7z97kVajJDBkoYlw5xBwNd+ns3ZlOaxhhOOe35W02NXSyPJg6Q6MiotKSYBeUWDbKlwEQeUDXChwOW92LVFttczOs95Pz0wsuDYgmJBQgYAyZNmEFrQQCLlQAiLkeVaSW8vS9QG7FgFbzY2llB3SZPWSyeaap5qLZ2xOF23Bsxlp0e725BsxXD0zXiiucWDTqkxqp5oYjgvbdGFS6pRBJmQRpiHCtuh3QrXw21IIdQnmzX/EKpCA92IQBbIMAaICqJoNVXMhqQJDlQIi2RzsL8tH5tMH7BoFLBu8KDfRcFDOG9ALnrkY0hoLPCC4mp5/LJwIIBBRPM11NX/ZKQC6ClvHdkH/cU7vA3WQ/TfaKqDTKu+itxDZR8sxjwJbwyifnGp7kw/e97M+fYp9wK5hwPLQqj6+csFk0JIZlb4gc8mTXYlviZq/laJMJEXyApqCazShvWpduO8af1IyyUqcKb9Pa0kCvG9dzZvXJZ4MH7BrHbDV8ZEWZJRMlHIGLN3m2Bnega7glIrHfRc4mJOCmSxKHXARjClsFqaCErS79psvAV8CvgRWigR8wD4jgK2ZjGnC9YKJYkZns6MgUSU7r4LPkhZjn+s3gK1VDqhIDvVbDsgIxVQ+fm41BTPNddj+9b4EfAmsXgn4gH2GAFsbKgGKfLNUWpF8s5RE7gVB1UArcHLIsgLXK8TEPiD2P1KAsAsuGhGMqlDDBNa5lfZbvV9Tv+e+BHwJrEYJ+IB9BgFb5RYHQVH0rVk2OdJYrzic6kZg9eJVq8ENM7IiG7XIPf/ijDxELzOAG2nYSkhGIKRw6TX2Ia8y03aj5Obf15eAL4GVKwEfsM8oYGcuSS9C1YXjgP2zpN3ahg1aHJQ2wqbZWtWXBq1lp1ophsBJEYqiLEFWKbeOzpGsQpUr7DSoA/5tfQn4EvAlsMgS8AHrA/aBJeWVR7uvPfLfa6rkIi++J92uVrqNzdbVFIElerT/GF8CvgR8CSyaBHzA+oBdtMXk38iXgC8BXwK+BO5LwAfsjNXQJqXxZut/QM/mClQq8+c3XwK+BHwJ+BLwJTBPCTBgbxWROS3BnBY5WHM1ND7c4jFNeO+Xf+9eiR7FSPNemGoMzhycds1SBm80/R/o25RDILTyjjhbDRPj99GXgC8BXwK+BDwJUDzL1K0i0qdkWBnRc7+tgtYQwMaFHA4G/l9sW38HsVaxvvzKlRB0s0ombRWsK7+LvgSeHQmshHfXWpR29X1MAaLlvIn0DR35iwqsIh0DuToG/FTAXo4exXDzXthz1GBVp4RNlc/xfNd3aOk2oUUkOizzqZXB6Dg0KtZQyyFdKvHVatNSmg0dfj0HRX2puug/x5eAL4EVJgEv+U7g1De/NUYCtTriRslGcdxE/qaAyqgEt1oOvjFPXdy7PhGw7/7yty4BdqR535wBK9o6OlI/4HDsUyR7c9DiAgSZTyR+lLK1HM3qeat0sDdVFaIczUY3KntIRSJM3YZrOVwykMsE+pRttOj9+/sSWL0S8E6LYMDSW8o7SIJPj/fbYkmgWiDHsQAjC+hjAoxJEXZl9WivJIonAvadD35b9cHug63NzQdLgF2XPYYX2j5Dc08ZgYSXf+mpsA+Ds5rL4gCGbsE2XATCCgJ0DmkDIUsaazlnwCibnB8qq6Q+e6fJeIdz+82XgC8BXwKPkwCVQ/PeZZTnXkyZqEwIMKZEuARavy2eBEjUhgCrJLDmulp8r7MJQHjnF791r8SqGuwcARt2C9glfITd68+jqVPgQ4TvK4WPA6yXImqZNip5KjtoIhCrHvbdAMgyXLMEV4tLBWpcLnDm0Wz+l2S2BeL/3pfAsyuB2rFMAhzbQTlrYvqageJNGXZRXDX+wVUzf3TkZNVqsGr6PEtHFwTYFjGLl+L/ERs3phCKifWX46seCVfK6g2DLMGVTsIxShafeUr/ibIP1LWycP1x+BJYagmQi2n6dhnZSwKMCRmuvdQ9WPvPe5KpdbWOfEGAbZfSeKP1f0f3pgq0gDRnGdimwxDU8wYCURXBmLooh3+Tr4ThWrSghRUEoz5c5zw5/gd8CfgSeEAC9L7KDJaRueqi3C/DtfwN+2IvER+wMyTqAfY/oHdzBco8C00wZLM6HwenBmXE20KQlPn7Rgmu5HOloCbSWgnaSxFItdgLzb+fLwFfAitLAlQEITesY/qijfIAAXZl9W8t9MYH7COA/Sf0bi7PG7B0O9u0UUgTFA2E4xoCBMVqWHw9gb61VCnHclApmqjkPLiGEpoP17XwrZvLGGrH9jX8RKNaAsdj4vnm0l//2lUjAQJsfkTH1Hkb5UEfsI2YOB+wDQBsDbKkeZYLJihXVlYoX7Z2zNqTTTFeoX3vdBs62Ybeq4EomYVV3+faiG/ASrlnNSBi5tm3/Hfb4UAJ+ju1hhx+4Lhw4PI65Y0g/UknF1H8nOgdF9iQ564U2T+j/fAB2/iJ9wHbIMDSbcm8a1Rs6EUTVsXmFyW9xJ7WeELoOklkLZqihZWA7CeGN/67sCxPoGovZKmgIDbLsGHoNkzdgmNWoconCsEDbC0fm9KyFrPRAcC2yxvAe+kEAiArEhRNghyQ+O/k6qAUNP8s3sUU/vLdywds42XvA7aBgOVbk2ZSPW/Ve5SX5P1UyML1rqL/Jy2iHrty49eK/4TFkgCvCQfkr6dITgpeM6sbMJ7q6pw/btqJhYvdHsfrmccW8sZQEKAEZS6moqoEW8nb9DWgP4s9Pv9+j5eAD9jGrwwfsI0GbOPn0H/CapFAFayW6XAuM1k2TMN5wBxb24A1AqTzElPNB+w4fBIIvTBkTQZVLtOCMhc64Spiflt1EvAB2/gp8wHrA7bxq8x/AoOJNFa9bMEgsOpUn84zy5Lpd1UYKdh7QX5hz3xN2qwWVjlaXpKrflp/rleNBHzANn6qfMD6gG38KnvGn0AwIlMwpVqR1kr/piIh7moB68PzR6AlnzD7hQE1RDnfChTWZn2b8WpZ7j5gGz9TPmB9wDZ+lT3DT+BAt7LFpTQpeIkam1TXAohIK7cJtIAWVBCIeWZjH7KrY8H7gG38PPmA9QHb+FX2jD6B4EoaazlvsHn43olHa0nJq5mNHUBWRQRjGgIhH7KrYcn7gG38LPmA9QHb+FX2DD6hBtdSTodtEVwXJ73FOzjJ5TjzFRMIVT3eiszGlM4TimnQfMiu+FXvA7bxU+QD1gds41fZM/YE+lLRoQxULpNOWloMuBJYJduFQsFRtgtTFWGrXoDUSgEtB0A5gKJICMZVD7KrInrrGVug1eH6gG38vPuA9QHb+FX2DD2BCjVYuoVS2oBRsQA6rnch/lbSWC0XUsVGsGAjUHBgGw5KARFWUoYTkeEq4ICpldC84CdA1iSEExqUgORDdiVMzGP64AO28RPjA9YHbONX2TP0BKpDXcoYKBepRObCgpkEB5B0B27agD2uI1iyEbZFrrZUEQAzIgLNCpxmDW5AhCMRaJdf2LU0Hi2iIJwIcJlQv608CfiAbfyc+ID1Adv4VfaMPIEqdlEqTmGqzFobnXo0H+ARWAXLgVywoUxbcKcMlKd1WGULEgQ2wVIVJUkVIYdliE0qrCYZelyGpXDB4nk9d9GmiZRY2+E+0gEVwYi6MC1+0Trm32imBHzANn49+ID1Adv4VfaMPME0bBRSZS57SHmu80nFEW0XYtGGO2lAnjIR0B3YFQeVisUpMZbtwLJdrgkcUmWEqE41Ha0YkmAlFFSaJNhVs7GznGZj14Vjg2sZR5IaFE32yyqusO+BD9jGT4gPWB+wjV9lz8ATyPdYyhkoTFe4qtFc4So45Gd1oWRNyCkDQsbLnaX0HpUOfpAlSKIAyyHI2jAsG6btQpMUBDURDllh6cSmmAShRYXZrMAMirDF5dNm2VTsumwmDsV8LXalfQ18wDZ+RnzA+oBt/Cp7Bp5AJ+FkxkuckiPKYt2lDzk62HSArAV3tIJg3oaouxDodBvHhW7aqFC9YlFAJCAjoNDJSmDIZisWKlxyEZ5Gq0lcTUkOSkBShUFm45jEEcfkn13yRjmylgs5IFe1WIr4WvJe+A98ggR8wDZ+afiA9QHb+FW2xp9AXyLSNnOTJT7SrR7tlfNZLRdKxUZg2oaQ0lGcNGBVLCiSCFWWIFdvZVgOcmWvxCJBVtMkOJQHS/dwXRR1C2XDQkCREAkoUGWRj5hDUIKVVFBOSNDDImxFgLuQiOZ5zGNNi40kA3ym8YIiqufxfP8jT5bAw4CFPb/dz1JBZLWlfHknUi3y0ZIPTWcjZfK4vgvvfPBb90r0KEaa98HWYpiLH6pdSuON1n9C7+Yyn8W60OYdOecdT8fHvFL+gt9mSKD2hW7sImy0yOk812yqzCUR69Fe+Xg40jwnKghPWVCLLgcwwfYWSsmw+YjDoCpCU0UuKqHTWbGWA9uhA9gF1mhVRUJA9qKKCxUTJd2CIggIB2SEgrJXG1gVYQUFFGMS9GZK61EAOmBgqRoFPFkOtLCCcFLjQhR+WxkSuAfYCw70IQWuV8lzXq2RMCGINBIk8xpwHR+qyYSOplzsxkGUIlnKGvNdrvX9YcgyYC/HPMA66vIAlpAqSyoCUgiqHIAmh1A2C8jp07Adc7FlveD7SYJXEMBx6eVNb/m5NVGg2FaqL0Sfr28xiYIIVQpCEEToVunec+nfsqjwpsRyLTgUKbOkrboh4mfWB34KakqPFCFIdDrO7Bsz9remTVhX8rBSJjT+jghQJAFRKs4AIF8iYNqQRYH9r7Issg+WfqlTHqxuMWxlUUQsqLCJmMFsU31gh/3AQVXiSOaK7aAguXD6AlB6wxADSxtwRICVJBHR5gCUoFK3+XxJp/0ZfJgP2MZOug/Yh+S7WBqsJEpIBjuwKfkcksEWxALNGC8M4uLYMaQr42w2IJB4r9Un70CoIB7/H5sZ6nvZz3XJEMxaw92IqHEUjCwmioOwnfq3svT5jkgfNDmI6fIEsnrKG1+1oJ/7WOAKCCoRbEjsREAJ4U76MrKVFMM5pESwLraJ5TNZHLr387mNSwABXBQpMdSF7dp4uB/8++rGoHbvGtzp56ZjwrDLj3zu4X7QWMt5E/k5mIdFx4UyZUK8WkA5paNCdYpdQJFFxMMKm4Etx0GpYjNISXOl3aqiiNBkGpfIaTCs1Zo2QlQDmKEp8jKhz9LP+fe2jYppw1AAbWsM4a0xyGFlSX2hZNp2LBfRliCCEcU3E89tMTfsah+wDROttz2vmoh9DbYq53oB672cPa3vcYCkF3R7pBeH1v0IyUArdLuMvJHBxfHvcTdzBaqoIKImocpBPmz7SY3AUDLyyOsZmI6+6JClvke1Jhzt+wXWxTbiSuo0To98Dt0u3esSabQ2a5E1wAuQRRq7yGOPqkm8uemv+M/jQ3/BQPYaJFGBJgVQsUooGGlYD2ntJLeo2oTD3T9GX2IbrkyewpnRz2HYBnpim/Fiz7vQ7QpOjXyO4dzNp2r9PAOU98kL2uF+KaKKiJpAItjK0J4ujXE/ato1zV9US6At3IuAHKqOlcalICiH+c/J0gj6M1fY8kCbnCc10hhzU2XoRQOSXF8QD2mwyqQB9UYJVsZgTZUgSi2oSIiGFNCtaJtCKTnFisV+VlL96PcBVWY3L/loCV4UCOXQQeiyxFqwTdDXLeSLOn+W7uEGRYR3xBHdkVh6wLrgaOhIXEMornkpTH5bdgn4gG3sFPiAnYcGSy9wenmT1hbV4hCpFt7DjV6Echjd8S1oDnZgrNCPgcw1DOVuYqo8hu7oRmxt2Y+Y1symUfbNznyHc5aHZ3Ydyd3B5cnjSFcmnmi+JWBwCXjaMVX9vDXwPw0OiqRhU9Nz+PGmv0ZIieHy5AmM5ftZ46N7kiabKo1gNH8XlmPwKOkzpGHSxoFMy/FAM/Z1vsa/OzvyNYpWHiElBEXU+HO30hdQMnNVLZzMoCoDjD7bGd2A/Z2vwYaFr+78jkFK99rYtAd30pdwZuQLlKw8g5Oebz2kWUuijKAcZa3XtA0UjAwDtiPSi77kDnRG+hiqV1OncXPqLAOfBE2abWuoG9ta9iOiJeDaNpcaTASa0RVbj4pVweWJ4zgz8jlyxvRTAxXoJTU9XOA+khm0rsISjgthrAL3ch7IU35rdWNAn+djVsnCAQRUiXNdKR2nUCFN1uY14ZmNRYQoYlgW+Pe6YaFkePci03Gp4gU+mRaZ7YncEmK7EkjsTEImP2ydjPMue/Dip62px72yeEzkhw1RNHEAsur7YRv7aq/v7j5g65PTfK/yATsPwBL4moId2NryPFpD60Dm4EcVHAGaEkRbuJufcG7sG5wa+RQlM89g2dP+EvZ2vMqa13D2FsoWvaDvE5YgQS/7jcndGM3345uB32M0fwd2NQqBXrIEF7qOXuykhWpSkDXdkpXjZ6pSABKbOg1YtvGIFka/aw334OW+97EhuQuZyiRy5SmYjgVZUtAcbOdnXJz4AceH/sSanHffILY070VnZD3DtTe+lc3Dt6YvIlUa5T7SC5ieOVEcwkj+NipmkX8miypf3xpe52magobu+Eb+/HDuNr/It7bsgwCRtUfajNAGpGIV+fdTJe/fHuhVdETWs4xiWhN0q4zb6Uts4u6Ob2YZB5UwKmaJTdBXJk8iz7AkTVGAKmsIK3HWtsk8mwy2YVfbC+iI9uB2+goujn+H8UL/I9r3w182y3Qx1Z+DqAgQ6gweIg3WHdNROZ+BMa3z+tEUGeHqgeUERdN2OJpYU8gnLbJZlTRTm8yttstBUGT9IN+sK7h8qEC2pCNXNGFaNmu2dC1prw5cKFEVyT1JxHfWocG6AiRQFDNthmReB94mjuBPFg2L14ntGLCFOnzk1cpOFGEdbQ5C9YtOzPedvaif8wG7qOJ85GY+YOcBWIKbIgUQ1ZKsOd0zEc9QXehlSHA91P0jfkGT6fTSxPcwbZ3B91zHK9jV+gL7K+l36fL4AwAkiPfEt+KtjX/Nfs1v+3+PkcLte75R0iK7Y1sQ0eKYLAwzaDqjfRjL38Xl1HHWfvvi2xAPtGCsOIDh7M0HQEG/J+35+c7XsLPtEFLFUVya/A5FPccvY9pAHOh6nQO1To98gbOjX7E/knUZgfyAIYYaAWl36wts/v5u8GNMl8ZRsUtVbdfTekgrJRnQi9kD7Da0R3t5o0HqWnOoCz2JLbAcHenyJGuftFG4PX2RNwfUSAMezN1kUy/dRxIUtEd6cHjdj9CT2IpUcQzJYCsD/uzol8gZaaxP7ERIibJsJwqDmC6PM6hnal80Ftow0GbhuY4jaAv3sAmfNhWp4tCscKW+WbqN1EAeMkWd15kCQz5YYcKAfSmHwmQZhunBkvyrGpdB9Pw39DP2X5L5V5IQ1CTIEpnESa4uyjUfre3ANC0UKybKhg3XdlgTNgnklGcriQgmNCT3JBDdHoc0iw9WFTR0xTZgc8duRAIxhiytGY6JiZReAAAgAElEQVSDZ2uCiXw5gysjZzGeH6gLspSuQy3WGuTD2evVoBv7Cny27+4DtrHz7wN2HoBlyFT9frVApYc1WE0OYFvLQbza93OMFwfx1d1/xXhhgOHgAfZl7Gx9AenyBI4N/humy6MPaLD0Mluf2IG3t/w90uXUI4AlwO3vfB19ie2sAVfsMg6uexMFPYM/3fy/eVQv9ryNkBrDpfEfcDV1kuFOje6dDLRhR9th7Gg5gJJVxPGhP2Mge5VfnGTa3dK0D69t+IDh/nX/hxjJ3bqnPdM9ZJEAvwkv9b7LZt5MOYUR0rAdA2PFQQxmb7DJuTnUAcvW2USeqaTYfE3Q64puYt/nRGGIoXaw50028ZIZfXPzcxgrDODk0CcsK00K8UaENGwyE3P/g+042PUGtjY/j9HCAM6PfcOa8ZaW5zkw6uzY18hWpthCQJp32czz5uQBuEJAQAmjL74du9tfQlukG3enL+PG9DlMlUZRsYswbZPH9MTIaBecmjM9UuDDxucE2EkDwuU8ytMGLDbjVmHI4fdkoYCXz0rVm+h4OqpNLAlsNtZUiddLrmRhMlNGWacNDF1DQU8Ol1SsxXJ7EcgCtJiK+O4EotueDlha2xEljkPr38Bru36KeChxLyDP+7p4wM8UU/jjmX/G6YEvYcJbW09rtQMAYm3h6jF2s33C/32jJeADtrES9gE7T8A+bVrIvNkUaseRnnfRHduMK5MncGL4EzYPU1sMwJImuCm5hyFKesHJ4c+wv+t1BOQgfhj8EyzXxKvrP0Ben8bXdz3t13Es3hgE1Sj2tB/BztbDKBtFnJ84htvpC2zGJSAlA+040vse1ie249rkKXw39CcUjey9ICcyF5Jp/GDXjxiGpGXenr6AopHDjtaDDOKJ4jD7asnXShoOAZ7AR75dAuyBdW9xEBj5OckUeaD7DRi2jv70FYbkeL6fTbTkRyXT983p8+y/pg1KXGvGno6XWXsuGTkcG/wYg9lrrJHv73wTm5r3YDR3G2dGv8Bo4S7f9+EIYvajK3E28+9uexGtkR7WtEdzd1E0c3BcC4ZjIFX0Ap1oc/C49CXSDo2SifRoCZJWf64eVWlyxz0frFiw2URNUOWj7mwvBYca5bNS8QhqZBIm36pBFZ4AjhLOlUiTNBi2Nh0Ta9teQBP78D1frSyReRmstZIPNk5BTk/xwdK9NTGEXV2H8NaeD9DTvBGKrM5Y8i4My0T/5A18eOI/49bUBTh1mIlrkcRxAmyY3BuNfbn5d59dAj5gZ5fRQq7wAdsAwJJmtqP1MEfCkkb5zcCHGMhevxcJuxiAJYiT+Zc05GSoDccH/gRRlKGICvJmBuvj21lDJZ/kN3d/j7yRvgdIAhaZnynCljQ1gpBulli7C8hh7Go9jEM9P+G+fzvw0QN9p+eSafj5rqPY0XoIBT2La6nTbNrtjG3Awa7XGayTxWHcnLrAUE2T9lme4FxXegaZZMk/urPtMGvIk4VB7Gx/AYZduQdY+vxg5jr2dr7C9z45/CkmSkNQJQ27245gb8crPHP08+up0yhbJciCzKAks/eGxA72/Z4e/ZL/rGnv9BnyPXv+1hexvfUgpyelK5MYy/WzKZk016ASxfrENkS0JlxPncGF8WMsw4dBTUDUSyYy8wAsxnVYF3Ow0gaDkHJWqXoTaYdF3WSzMZmBFbmqtVbLL+YrFnIFnSFcoQpOlsOHnJN/liOLJQ+s1GhDRWC2XBdSVEbTniYk6why4vWlNWNf70s4suUtdDX1VSHrslY/mLqDLy7+AReHv0PJ8XzzszUGrOki3u4DdjZZLdXvfcA2VtI+YBcZsKSxdUU34rUNv0JUTeDc2Nc4O/o1a0W1SKjFACx1m/xiLaHuav7pOAxLhyRSBG0fXl3/C369nhj+C26kztzzZXovXZEhSKZWMrmS5kZaMMGZwEufpRxV8r0SWLzgJs9/RhoupRdtbznIUcSD2eugHK+dHYfRHOxEUA6yBntz6jxOjnyBvD51Lwe1Zp6l53aE+/D6xl8zrK+lTrGmWgPs1tb9DO5cZYpTh65PnePUIbIAUDAUaZwUxUwAvjF9HkUzc8+8Tuk5DNmOo1if3Mk+aZqDwdwNGFaFx0BRw/u73sD2lgP8b+orRTuT35dSeSjgjOaRIpn3dRzl8Z8c+YzTjx4uEnJfgy3O2UQsVk3EZsZARfcChShimIKaTCr44YD9qfQ70kajQYkhXDYtTGUrKJRNzpOlIhKe/5bMypSu5EWTm5aXP81H0soC1JiKBAU51Zmm40G2Bft6juDIth+hq6mXfeYM10t/wOWRExxQ53BZqtkbAZbqErOJ2NdgZxfYElzhA7axQvYBu0iA9QKfVHRGNuLFnnfQGunCjdQ5nBj5hLW3mT68GmApyIkqO50Y/pQ1uZllFAlCvbEteHPTbzBdmsA3DwU51bp9Lz2HPW4CmgMdONL3Prqi63Fj6iybjslM/GhaxcwShV7fu6Nb8PL699hEfGPqHH4Y+hP7PR/W2ijAiIK7KAAqJEXwQu9P0B7u4yjdsBrl6GfSnEl7JK31cY3SnI6u/wBdsY0Mt45oL8pmkTXYba0HILpesfxMZYplSD5dgpuXIhVnMzvlB1NA1cP9I8i2hLuxt+NlbGraw8FN58eOcdBUxSpw7jH5txOBVjYxkyWAAqZo80DBUjemzmCqPIqO6Hq82P02B2adGvmCf15LVZo5JrNsITVU8EprziHISZw0gas5r8i/7aBiUWEIl32vFBlMvlNaVxVOtSEAe5WeSFPN5CvIFg2vQIUIBGWJwUwar255R9qROVkRKZpd4uhmMaywD7ZewNY2YzG1iTXZgxtf5XzoY9f+jMsjp+YEV7oXBzm5BNiQH+TU2Pd63Xf3AVu3qOZ1oQ/YBQOWKgZJDBzS/o50v4NosAkD6ascvJQqDrMGN7MRHChF5/nOo6wpUSpLxSp7xYqrjQsxaAmsi2/BSO42vr77Owznbz2hwpJX+CEeaOXI343JPRxw9P3AvyFVHn1q6UNBkDiVZV10M17tfR+RQBNrvCdHPn0gJebh1VXbUGxrPoj9Xa9xisxX/b/jgKfWUBdrjJR3alUrKBEEZ0KeINiX2IGWUBdr01ta9nKOKgGWzLaU70oRyUO5G7iWOsnwrX3+fn4vv7Yfu/BJrhQJTebkrc37vI3MyKe4k77IMiRTsyqHsDGxC7s7jnAfcpVptIY7MVUa57Qq0q4pCpwC0X4Y/COP6XEVrizDQepuzosirjNNhxNTx70gJ6Fg3hsGaaSUu0rzT0UrVNI8JRGSIHjwNG0uODGVKaFkWqBSHwGFYEx/I7gSqL3NFqX2EGBZqxVcCCEZ8XnkwdK9QmIUTcFWnk8y2RuuZ+6vt5GSS6lFFB0dbQ1BXeJSjfX281m7zgdsY2fcB+wCAEsvwYAcQUe4F7vaX+CXNRUwoBSPM2NfIl0izfXRkoM1DZbMlCE5ioKZrWpGD1aaIHNoQmvBYPYWw2skf4sDlWa2Wh96Yls4ipi0z/HiAI4NfIzxYv8TKyDVaiU3B7uwu/1FhhBBj0zCp8e+5PKEjy9xeP/pdP32lv043P0TCKKIz279C0frkgxs2/SqDslRlK0c57NSXizlDFNUsCxprDWrYoDNveRTpUpVg9mb2JTcxVrnmZGvWDZkOiY5kjbMAUt1vtip0lZMjaMzupEjmkl+XAayuuGhfhzoegM727x0qcsTJ7jwRG9sM8pWERAktipQsBWZmUnbfdyzOQ92MA9BdLnQf12tlgd7LgM3YyKoyhyMJIqe35VTcHQbuul4J+QEKSjIizKmKOGxdAm5EgU3AQFFYECXTcpPJZ+tlzfLUcmkA7sCg1GKyGjZ04TErrkVmmBNlk7t4TKMbt0m4Zly4IMuKK9XlRBpDvKffppOXSuloRf5gG2oeP1SiQ+Lt95SifQ5AuBz7a9wRC6ZPMmcenr0K9aSyF/4JECRyXFDcjc2JHfyS/sWX3/fR8svNIgMy53th1Awcrg88QMHJD0cyapIQexqO4y9na8iIAW5FCNFLWf01CMwnjlWykElX/Hhnh+jPdzLQT7kcx3MXWdI1nPEUq3cIYGdCk/QS55LKnpvY8AVYbsmm4upIhJFIieC7Rzg1JvYwulA9Bkq+BCSI7DhwLJNaJIG0zXZBOyVSBD4s5SKQ6brx5lpn/Q18QpyKGxloL7M1EApKIx8wS/3/RQtoXYu06iKGsJqjH3WlFN7ZeIkbk6d88osPuEkJDr/NT1WhG1SqcL6DjenPFgpZUC6XERpqsJlDSklh/JcyY9O8qOKTFRCsWLYbBqms16pcL9luRhPl1AoG+z/plxXk86TpWJNqvd5gispyTVYSxIQTgY4yCm8LTZrHuxiv3a8Sk4uAmEVkaTqHennt2WXgA/Yxk6Br8EuQIMls2xnZAPnTxaNAmuMVKqPIPE0LaumPRJo6aQY0yEN7dETaCgdhiJuCdQUBeuVVHzQLEeRs82hdXygQEHPIVUe4TrCswGS4KjJYXRFNkAVVYyVBlHkesd00k/9pj/yAVNOLm0wmgLtiAWaWNOp8MlBWT48oGRmvQIPLmljYQY6+T8JBPf7WXvhkhxm/p1SX0QYVhmjhTvsq57PaT9P+hoRZCkYrSXYhZZwFwd6UUAaVYzK6VMomQWW/VNrETsuihkd5bTOR8PVk35ClZxkAuy1Iuy0wTAl8y+ZeCldh/yvZNql4CXbBkzLYllRlDFpfpOZEvLkg2VzMPltPTnRnxQ1TFWgKEiKPO0UhazSIQExFbFdBFjKg11aDZLTiEwXUToTNqbyRsFvyy8BH7CNnQMfsAsALIGSXtAEGYLHw4UMGjt13t29ghdStWQiFXyvo2xdtWN8niAdWMDVlh4swjDXvvPLXZCq1X4oitWGzX5XOsVmhm+ZNcr719X7HNJkSTuey/jqvbc3jxJkgaoL0ZF9XinAh/3GT7ofm23L1VQdMtfWE+hEZQ4nvdN0zHSFq1lrksTpOUWddHkwLGvmXk67oZQggrBpYypXZu1WElw+ps6r+ARUqCCFbXOhCe/zXvF/0mAVBmwSka1UKnGJAVsNcIq0BBEI03F1PmDrXZ+NvM4HbCOl65+m84h052IibuzU+HdfTRKgOsCZ4RKbkevyw5KfddqEebMATFYgWy5HAtNh6WTyzZUtPmKOwEk/J9MvRRZbjldcIpUpw+LIYuKul45DpmPDqqZTcS6syGClCGJJE6E0BxDbnkB0fRRSYAkBe8//KiPcpEHx6xCvmKXtA7axU+FrsAvQYBs7Nf7dV5MEKEK2mNZRyukQldnNxOSmppxQc1qHPlwGyFxcthERRWiiwHAt86HqHmQp0IkjhemwdcvGdLaMUoV8yh5cKSWHTMJkdqdCE2SCJdQ6sgAxIiPQGkCkL4pIVwgKVXGqR8terAmoHk4QiqnVo+p8/+tiiXah9/EBu1AJPv3zPmB9wDZ2hT0jd/fMxBYy40U+9aYeHyNDluBTtmBNGdDHKpAzJgKWC4GK/0PgYhF0TiyBlP5NGinluE7nKwxY+rtn4qaTirySiBw5rIhwAhLkJg2hrhAi60IIJDRIFL27lHyraq8kk0hTAJpvHl5R3wgfsI2dDh+wPmAbu8KeobtTNHE+VeHSiRwlW6+bkdJpLBd23oI1WYEzZUCg1B0bkCnFxr5/RB35VnXLYsBS5DHpqVRIwqvgBFgC4CgStGYNWmcIoa4gAs0BKAGv2MSSN9KwbTBYw0nNjx5e8gl4+gN9wDZ2QnzA+oBt7Ap7hu5OXya9aKEwVWa/qEAlmebSCEaGAytnwpqoANMmxLwN0XShcA1l7+g6AitFEdPh6tSomIRL8CSoRxQEOoIId4cRbA1CDsueNr0MbCXiU/UmURIRTmjQIhTcNBeB+Nc2WgI+YBsr4TUL2CvRoxhp2QdbjcGZw7faD3Jq7IJb63cnLbZEvti8zsFOZBqdU2PHqQunYsPKGDAnDLhTBpSSDc0FZIKs7WA8XUa2ZEC3bfb5ihEFoc4gQl1hhNqDXHeYDoBfVqJx5DAYrKG4r73OaR0s0cWrCbBLJJJFfwzlqjeqUTR+IyPyH9d34Z0PfusyYJv3wdZ8wDZqcv37PioBPuS8bCE/XYFj2hCostMcGct35SAoB07J5kAoa1yHmDGhUa1i22UNNqtbsFQBgZYAQt1hhLvCCCRUiJSLO1ewL/Zk0ibBciFrEpuGVa5ENR9BLHbH/PvNlMB9wNqoDCp4TOG5ugU2W+593TdaYxc2Ui6N/k49ru/CO7/4rXsl5gN2ja3TVTMciijWCwZKWaq0RKbiBZhoq0e8WXkT9pQOZ1IHsiay2QoMTUSgGsBEPlc5IHtgXW6OVQObSHsOxzUEogqbif228iRwD7DnbZQH5QUBttGjaySoGt33tXR/H7BraTZX6VjIVFzOGfwflY6kWs0LAR/5Msk/a2dNmFM6KiULclJFoEWDGpbp7MIF3X8xxcybChcIRlSu2uSXRVxM6S7uvVYLYH24Lu68L+RuPmAXIj3/s4sjARewTAelrM7aLGlzC9Jka2ZjDoSywSWfVZH9rI02E81FIKS9E1wpajgUVyFTWpDfVqwEfMCu2KlZsR3zAbtip+bZ6hj5Yy3D9iBbNDlHdaGa7D0JUjDUcpuCZ0wnH0dXLXqhhVU2DcuqbxZe6SveB+xKn6GV1z8fsCtvTp7ZHnlF7h2UswYqRTpIAV6VpRUEx4VODqciUHEMCNCiCkIxH64LlelSfd4H7FJJeu08xwfs2pnLtTESOjbOdlDOG6jUAp9kYfkjfRdDutUgLDoaL9wUAJVDlOQ1tHtYDBmt4Hv4gF3Bk7NCu+YDdoVOzLPeLYeOpCvZfLSdTYX8KbqYj5lbhZKp1hemdCIKYgonAlDDEkQK5vLbqpGAD9hVM1UrpqM+YFfMVPgdeVgCVImJTMaVvIFywfSO8mPIkka7wuVFfl86yJ2jhL2NAZmEgzGNtdaVFGy1wiW5YrrnA3bFTMWq6YgP2FUzVc9mR4mpBFpTt1DJm1yYgn9G6TxELYItiYb+Zzm129oxvgTVKlypW6SlakGF4SpTFanlqHH8bC6dRR+1D9hFF+mav6EP2DU/xWtjgBwc5IDNxUbJhl42QWkuBF/6P/r/e1ohgbZ2cD2VS1xkETDH+f41otMxeF6lxRr0SUulikxqSIEk+2Bd5ClYltv5gF0Wsa/qh/qAXdXT9+x1nrlWNb2S+ZhSe0zdgWM5Vdgy/fjvrNs2SKul+4tcCYppzilF5F+lXFZZEz2okjl7ucswPntLpGEj9gHbMNGu2Rv7gF2zU7v2B1aDLZuMq1olabk1AHt8bQRhqxrrDH9wTXu+r8Wuffk/ayP0AfuszfjCx+sDduEy9O+w0iRQA26D+3XP99vg5/i3XxkS8AG7MuZhNfXCB+xqmi2/r74EfAksmwR8wC6b6Fftg33Artqp8zvuS8CXwFJKwAfsUkp7bTzLB+zamEd/FL4EfAk0WAI+YBss4DV4ex+wa3BSGzUkL/PFc3DeCyzih62wavqNEoB/3xUvgXshbdUA78Us6OEDdsVP/4rroA/YFTclK69DlIPqUA6q5cA2HFg6VVgCbMcrAuG6DgRQaaVGROyuPHn4PVqhEqBqmqJ3QISsArJGf3o5yPeiuxfQdR+wCxDeM/pRH7DP6MTXM2wu7GA7MMo2KgUXpkHHrGlwbA22o8KFDJfeXFxlYaXXLqxnxP41q1kCVFJEgAMIFiTBgCiWIUkmtIAALSJC0SSI0oyCJHMcrA/YOQrMvxw+YP1F8KgE+EQbl4vtl7JUyEGD6cRgI0gnl1MBQLissc6Eqq+9+ktpuSXAVUi8wh8EWliAa0BCEYqURSDoIBiXoQbmV1nLB+xyz+/qe74P2NU3Zw3tMZl8jYqNYtaGXtJg2gnYiMAVFADS0piBZ9Q2rJVBnIv1+YHiEquV+74MqtVDvOVezzrwpnrGhPNfCbTkyzCguFnI8jQiMSCYkOd86IIP2Ia+etbkzX3Arslpnd+gCK6Vgo1i2kG5EoOFJrhi8CFNdX73rutT1TKIsisiIClQJJlfso7j1OVDc6r1h8Vq/eGKbUB3bO/A9uU+DKAuAXgKmOA6kCAhKKlQRIkt8LZjg8b1tKAdrtfs0iEIXplG23WgWwYMx4ZTO2RgpW84qoF0gksOCFoHGhRR5nHNJgOv8Ic3bp57166Wsqxx14bgFqEghWC4jEhShBqU6j7ZyAfs/UW8mMFjvIGq1Q6v93uyQq97WC4+YFfoRC11t+hYtUreRj4tQjeSsJGoaq1L8Eamc1IhIiypSASjWNfchk0d3ehKtiIWikKWZAaG+JTCh/RedkDBWA7Kho7pfAb9k6O4PTaIVD6DrF5ExbU82K7ARt2SXBERWWMZdLe0Y3NHNzqSrYgGwg/I4End9/YnBCKSQQVT+TTuTozg1tgQpopZZCsFGCSllSoDF5AhICIHkQhF0NfaiY3t3WindRAIQRRpHZBj4tEB0Ngtx0apUkEqP43+iWEe93Qx741bqI3bgeDqkN0paIEcYs0CtJBUV83o1QLYRi/vxYZrrb+1DWKj+9+I+/MRmo85rNoHbCOkvcruSXAt550qXJtgCwnQq24pmugCIUlDT7Ide/o2Y0/vZrTEmqApKmTJO5R8rvWEHddhyJiWhYqpY2ByBCdvXsKN0UGMFaZhCRQIs0IoQ0fcAojIAfQ1deC59Vuxs2czmqNxqIoCmaFCEphbf0mbd2wbhm2hYlRwZ2IEJ29cxM3xQUwUMytPBq6AmBrC+uYO7Fu/DTt6NiIRiUGVFUgirYP6ZDBz7mmTQRus4zcu4vbEMCZp3CJp+LQTMRiywUAa0RY6UnB2yPqA9QLEGg3Y1abN1mTiA3YpiLHKnsFm4ZKDwpSAkt4EG0lAaDxc6R2nQEJrKI7nerfi8NY96G5uQ1ANMFQXq5HvzrJtFMslXB26gy8unsDtqWGUbAPO3Ji1WF26dx/BBTRBRmskwVA5vHk3OpvaoKkqpEWMymYZWBYKlRIuDdzCV5dO4u70WFUGi32Y39zERFOgCQo6okkc2LADBzbtQnuimWUgLlAG9KKmuc+XC7hw9zo+u3gSg5lx6GzJcD1NFlMIhj1NlqKMn7bv8gHrA/Zxq9sH7Ny+88/M1eT2MHUbuSkX5UICltBSNQs3VgQEFvIt9sbb8cr2fTi8ZQ+iwTAkiYKoGtPoZWtaJkamJ/H5xeM4c/capvUCHOrMMjR6bEBUsL6pk2Wwb+MOxEJh1tYa1UgGhmlgMDXGG41zgzeQ0Yuwl1EGZL3Y1LoOr2x/Hrt7tyAaCi26DGjcumHg9vgQz/2FoZvIW5UqZMtQxBSi8RIiCYGPHHxS8wHrA9YHbKPeTmvwvpTjWszYyKWCMIV2uAIFNDVerVMcEb3JNvxozwvYv3kXIoFQw8xOD08bmRAnc2l8evZ7fHvjLAPGXYYzWzXI2NjciTf3HMbe9dsRDgSXTAaWbWF0ehKfXfgBx29fQsYoLb1ftrrB2NrWjTd3v4BdfZsRUgMNlQG5DIanxvHns8dw8u5lFGydIsogogBNnkCsyUAw6pnkH9d8wPqAXbGAvXf4NVfam6k1eN6lB3+2Bmm2woZE2isVkMiMA2WzA44QW5poYcdFWyCO9/e/ihe3711SuNamgCA7Np3C709+iR9uXeDgJywhZEUH6Io24919L+PQ1j0sg6VuZDol3/THp7/Gqf5rqLjmkvqlJVdAb7wN7+x7GQc270RQCy7B1g4wbQt3xobx0akvcG7oJgzYEAQbkptCJJJGtIkKUoiPNRX7gPUBuyIBSwhV5SA0KQDLMVGxSnBcmwM3NJlMQjJMW+f/HgWtwL4YtnPX+RWke1D5PnqRLlaj1AcKOKGQFMvR74WVi4IEWVS43zQ2em69jT5LY3IosrOOz1EfJMEzIdKzFtIc20F+ykYuE4EpdLJHtOGNtBbIOLptH37xwltIhKMN1VieNh4yF18ZuoPfHf8MN1JDsJbQTBoVNby2fT/e3X8UicjyyYACwC7cvYE/nP4Kt6dGvcCnJWgk6iYtgte2H8Bbe19c8nVQ1is4e+caPjr9JQYy42wiF9wSNGkc8WYdwZgXVPVw8wHrA3ZFAlYWNaxPbEd7pBfZyhSGcjdRsYtQBAU9iW2IqAmkSiOYKAzAIm2Cch9dG7ZjgSAUD7QgpiUgMFxm85kJsB0TmUoKeT0Nm+73mEZg84IoqMCay897UqNrQ2oM65M7oUoBXJ88iaKZ53zDRKAVW5v38b9vTp1HxSrW0UcwrJtD6xjO2cokf/5pkKVnRdUk2sLrOB9wKH+T+yxy8QcXtms/dQwPj418r9PDDspW15Jpr6S5bUh24B9e+yk2dfZBmiWYqRakYlve3MgyFQegTcmDjVNTbBvWjOtk+em+TPpMvlzEsatn8dGZrzBdKTRei6V0JBfY2tqDv331XU5BWSyf68OyUhR5Vp82fWa6kMVXl07hLxe/R3YpTMUuoAoS9nRuxK9efAu9rV2z9vMR0NkUIW5yHWyaZ1oXc4ls5XHnM+yH/vOF75G3KwBrsZOIxjKINYlcw9gH7KNvRD+K+MkyWZYoYoIYQejFnnfRl9iOslnAZHEYJavAgO2IrUdQjiCrT2O6NAbTrsB0DGTKkxjO32ZNcU/bi+hNbIXhGKy5yVRViBLKHYtftpIgsxZIkFFFij6UcH3qDC5N/FAF3n2hkLasiBoUSUNUSUCVNZStEopmFoalw3KMR0BFWmNbuA9Het+BKgfw5xv/D6bLY1AlDVub9uOFnncwURrEN3d/j7zhQX0mLD2Yewntnnbt8pgPdf8YASnIfR0t3K0+1xsXbRJmavOyqGJDYgd2tR+BbpVwcuRzhJUoEoEWlslkcQTpyjgM8ivNsgmh55fzFqbHFJhCH1xQ+cMGN0rHERQ2i8qy/lEAACAASURBVL7z/MsIz2IWZf9wqYy7/cMYGBrjed61YzO6u9s5fafW+LpiCf2DYxgYGOEI5G1bN6C3t+OB6x43Otqo9E+M4F++/wQXRm7DbLQG5wIRUcVP97+KH+09gpBGPu+FN46UzRfRPzCCwaFxhs6eXVvQ1dk6a0Q2mUyvD9/F709+gStj/Q2XAWmvzVoE7z3/Co7uOoSQFqhbALRuK7qBsbEUbtzqR7mso7enAzu2bUIgMLc1TOO+OnQb//L9p7g5NQxbcCC6OQTVCcRbbS839qGdnK/B+hrsCtNgBQSVMLa3HMTu9iMMjbAahywpGMvdRSLYgoASQbo0ybAiLW280I9UcQTZSgoTxSHWGF/p+xl641twaeI4a6abmp6DpgRxd/oKf64j2sfa6nDuFjqj67G95QDOjX+Lb/o/RMnMs0yoTIEmB9EV3YDe5A4EpTASgWYokoKCkUXJKiJdmsDt9CWky+MMWmqSqCAgh7A+vgN7Ol9m+H3d/yEDlkzeL3W/h674ZgznbmK8MICyVcRYYQB5fboKWYGvaw518tjpvgRBTQri5b6fMmDvZC4jU04x7ImNI/k7vLmgzUatkYl9b/sr2Nl2mAGbrqQQ15oQlMOM03R5AldTp9CfuQJjxucetyDIPJxJWShkk7CE9moJxLrfc/O6UHBctIeS+O9//BtsXdf31BQM0kbHxqdw9vw1XLh8A8MjE5wT+sH7b+Dwod3QNO9lSteNT0zjzLkruHDpJkZHJxEIaHjnxy/jpRf3QdOebvauabGkyfzu1JcoucacNKG5CoJk0BVqwr9/92+wvn3dgtNQ6PkUuDM6lsLps1dw6dJNjE9MIRgM4Ncf/AjP790O0mSf1kgGmWKOA3/+cuEHlkEjc4QFV8DmZCf+m7c+QE9rZ90yoH4WimWcv3Adp89ext2BERiGiUMHduMX77+OWCwyp7mj+1GwG437s8snPD88dKjCKJKtZYRij+bF+oD1AbuiAEuaJZmFd3ccYfPmeP4uOqLr2eQ7kruFuNYM3dFxffIsw25dfBOGc7dxPXWaoWc6OmJaM472/Rzd8U348u6HmCqO4qW+9xFR4zgx9AmCSgTbWw9gsjSCC6Pfshn35b73cX78W3x193cokykXIpuht7U8j01Ne1gLHS8M4rn2l1jbvDj+A/++JdTBcDs/fgyj+Tvsw20NdWFD025sSu5CS3gddLuMsXw/RvN3GahvbvgNLNfEmZGvkAy2oTWyDrfTF3F18iQqZpGDcmnsO1oPoSu2kTVZMu2SFt6T2AJZkBmOZCImTTSnT+PG1HkM5q7BsO4DNiCH8WLPO9jctIdfSrbrYiR3B2P5u2gOdfC4aINxfPgTpErDTzUXW5aL1KCBitEDR6TgpgZHDlOFHlfAvp6t+IfXfobWePKJ73zaLBSLZXz3w1l898N5lMoVpFJp9on91a/exqsvPc8QpSCtfKGIEycv4vsT55HO5KDrnl/6vbdfwRuvHUagCuKnAYYAdfbOVfyXbz/GWDHz4PkFcyXoU0kGyA5woG8H/vHNDxAPRxZ8dzZ1ZnIsg+OnLiKXK6JULLOs/vav3sULh3ZDUWb3reumge+unsPvTn6OiVIW7uKlIT84xqp5+MiGXfi7o+8jFqpfBpTHe/X6Xfz5k+8wOjbJ+a3ZbJ4B+7d/9Q4S8bn7sqni13dXz+Bfjn+GaYO+qzZkdwyJphzCCRGS/KAgfMD6gF1xgO2I9GFry37WVumF0BbpZu1tojjIvsSyVUDFLCGqJRDVkvz3sUI/7qQv859RtQmvrf85+3DvZK4yODY07YIqahjM3YQiquyXJEANZW8xeDc07cSZ0S/x5d1/ZcgF5AB2tB7Gcx0vs3zOjX6LilnAT7f912yq/vDqf2Sf6J72l9AT34LrqTM4OfIZm3vjgWasT+zE851H2dQ9URxGRI2iYOYwmLmBrc17WdM+OfQ5WsNd2NX+AopmDmdGv8JQ9jpDUyENNtjOfSMtnSBCmuehdW+xufrm9Hkeq0n1U+0ypsuTKBrpByAZVKJ4fcOvsCm5m3fqY4UhfDvwEaZLo2gNdzN8g3IIZ8e+xpXJExww9qRmGg4m7prQsRkQ6jfRzZsILhAWVTYL/mTvkaeah0k2esVA/8AwJianGZqffvkDpqez+PUvf4KjVcBSX8rlCu72j2A6nUUmm8eZc9cYxm//+KW6AUsVn+6MDeKff/gUF0fvsKmwIa0qg18ceB0/2vsiAqq24Md4Wl0Jg4NjvMFITWdw6swVpNM5/M2v38YLh/bMqsFSJwhWZC798OQXuDo+0LhgJxdIKCH8/MBRvL778JxkQH0cGZ3gsZLmeuXaXbZc7N+3Y96AJTPxxf4b+P+Of4rbU2NwRAJsCpHoNKJNAhTyw87Ye/qA9QG7ogBL2lpTsAObm/aiM9qHiBZnUynVnR0rDqBsltjPmAy2sv80X5nmYCICxYWxYzgz9jVCcpQB25vYhqup0wws0lgJ0qQpkgmZzMJ5PYu76cuIB5rYRHxm7CsGrGmV0RbuwUu976E93IMfhv/CwUg9sS14Y+NvkNYn8eGV/5PNrhub9uDFnrdZczwx/Ambi8kP0xrqwZHe99Acasfd9BWsi21CQA7yhoHMx3QPMvGGlChaQu2sMV+Y+B6nhj9H3pjmSOG41sLjJ/8ymYhDUhivb/glm8j7M1eR1zNsTqff0zNGC3fYHF1rISWGtzf/ljXVTGUK3/T/HrfSF9jknNBacGDdW9jUtBuXJ07g+PCfeTyPbZSeU7EwOeBAF7ZUj59b8Lv+6TdwgbgUwD8c/RkObtnF5e9mM1uapslBSwTZ//RfPsLQyDh+/cGDgOXCCQZdZ2FgcAwf//kbDAyN4+0fHakbsJyyk07h49Pf4Nsb56vpKg2QB8FFDuK/ffNX2LthK9cWXoxGtZdN04Jp2bh5awAf//lrjI5N4a9/9ZO6AUv3GJoawx9OfoXjd69Ap2PeGtFcoDOYwL87+j72rJ+bDGjjVVsT+VwBn35+HF9+ewr7nts2b8DSBv/O+DA+Ovklzg7dgAEToptFJDiJeKvDlZ18wD64EPwgp0e/GMtWyYnAEpAj2NN+hH2H5IOMqDHW4gqVDHJGGjk9g5gWZ5MraY7dia3Y1fYCa2FsApYjDNh1sY348u7vMF2awOsbf4WwGsM3dz/i++1sP8x+2zMjX6IvuZ19tmQiJsA6joWdrYexr+NVlO0i/yxXmcaR3nexpek51pTJlEyaI4H4he6foCXcxZrg+bFv4bo2a7C721/kYvIlI4fOyHqQRknmXQJiwcyyD5jM2iTs1lAnymYR58a+Zd8sBVbtaDmEzc17Gciu4LCJmIBPUcQZfQolM8e+UwpWujp5ik3UMyOgSXbvbfmvsKFpBwayN/DH6/+J/dG0wY5oSRzofAN7Ol7C1ckT+Lr/948Ed9WWBZlW9aKJqWERurip7vQcGhdBQa6auGn3T/VuOYCLo4EpEtsL4Hq40c/iYgD/4zt/i529myDXWa2IXvwjoyn8X//5XzE8PIZfPQTY2nPIF3vrzhA++vgrDA6N4Sdv1Q9Y6ttUPoO/nP0On14+gRL53p9gMScZKJLE8265Dkyb0rKotm0tIp0OG+AwtsfKICmF8L/+9B+wqbNn1uAjugHdi8b2sExJ3pLkpa7VGm0yrly7wzIgn+ycAOs6mMhM499OfY1vbpxF5SmApWeqdPiCIPGmmNZBvTIgu/66UBP74Td29s4aRf44xtOz0uk8/vjJMXz59YkFAZbW1/D0OI/7h9uXUGHA5hGiQKc2i+sT+4D1ATvbXnPZAEsd83yH77JWOVUaZQ1TFQNsRqVWNHIcsNSfuY5L499hY9Nu7Ot8FddSp3Fy+DMEqxpsd3wLjg99wsFPpI2GlDCODf6RoU2+VfJjXhz/Ht2xzTjY/SbOjX3DMKVoXjKfUirNnenLODnyKfscf7njf0BIi+LzW/+M69OnWVtsCrTj4Lo30ZfcgfNjx3B65HM+Iuxw90+wIbkL/emraA62IRJowo3JMwxACtgyHAuOY7LJm7N1RYGDkMbzpKXn+UtKvmIyC9OLiRqN60jPuwipYVyfPI1b05dgOBXWbnW7WM2pvf+iJvPye1v/kbXnS+Pf4+uBDzkimzYryUA7bww2Nz+HSxPf49jAvz0FsHRqjonpYRe6tA3gc16f3mgBJYMxPt2lO9mGTKmA66P9mC5lOc2kI9YCqg40lptGxbqfI3wP6o6LiKjhf3nv77G9Z2PdL1YC9sjIZF2AvX1nCL9fAGD/dOZbfHLpOHTQEWePyoP83k2hGLZ09KIr2YxUPsuF89PFPAdgUT1hOhpuIp9GxfQC5GY2SimJCQH8b7/8R2zo6J41uIeio1NTaQ7comhq8rlToxrFyUQUPT0dCIfohBmvs6TtX7l2e16AJWhNZKbw4Ykv8M2Nc14k8RNk0BJOYEtHD9riSaRyadycGEa2nEdQCaApHEPJqCBVoIj8B6PgqY8kg3Ytjv/pvb/DRpLBPGpOLzZgh6bG8YdTX3JFK12wIDpU1WkMyQ6KJKb0n/uz6JuIfRPx496Uyw7Yl/t+hufaj7A2qSohPuuSUm7IT0iBQpQyM5y9hVvTF7AhuYN9rFcmTzIkQ3IMr63/BZtGc/oUSGdqCXvRh6TtaZRuoyVZ+0tXJqFJITQF29iHSoCl78crfT/H5qbn2Ox8ceJ7dEb68OMtv2VA/fOlf0K6PMagooAsgmlToBVnx75hWFGU8su9P8PWlucxXhxAW6ibYfz9wB/xYt+7CChhjhgmGFBQF/mGySx8auRzTr+p+UI97UdDQKJ6szKbkxmwSpTNupcmv2N/8ZMqWpHG/NbGv0ZbpAfnRr/ChfFjPGaSQ0dkPV5b/0sOFCOz+unRzx8IkHrgRU8m4qKJ1LAAXdwy66k51O+4FsZP97+CXes28wueNNCCXsbJO5eR00t4YeMu3E2NcBRqukz5vA9qcJ4GG8S/f/tvsKtvDhrsEgGWjrP7y7nv8Oml4yhTAY+H4MIm/mAEvzn0BrZ0bqAz4SCKErKlHM72X+NguJ3rNuHq6B18c+0ssuXHzKPrIiGF8D//9N9hc2fPrPmvlYqBb747g1NnLiNfKN2TKb3wW5oTeO8nr2Ljhm5OyVkoYKn/pMH+4eTX+PbW2WpE7aOvkqZgDH/94o+wobX73vm8k/kMLgzeQEBWsaG1C2cHb+Dk7cvI6/f7fO9OrhdF/d/9+DfYvII02D+c+go/3L4MnTXYHILaBBKtdvWsWB+wM1eCbyJ+9HuxrIDV5DBe6n0f21r2YZRTc1q5qlNRz7B5tGgW2PdY1LNsZowHWlHQMwyQ25lLnKt6dP3P0R3bxBorvQzI5FyxS/h+4E8cNEX/niwNcyTvhsROvNT33j0Tses4rJWSiZpgfm3yDJ7reInNvOcnvsP3gx9Dt0sIUTRyy//P3ns/x3VlaYLfS+8tvPf03pOiREqifMlUqau6qru3eyZ6ZnoiemcidmNjf9n9M7Z3Z2Njp2t6unqnuqarpJL39AYkaEAShCW8T6T3z2yc8zIpiIRJgEgQpN5lUBATz9x77s373eO+cwD7a15GID6JK6Ofc1Qu9clvq8KeyhewqXQv556Stn1j/DRebPkTJDNRfNr7j0iIUXjNpdhcdoC1dNKmu2evMcAySYTZi1bfLmwp288avKII8NvL2NxIwVo3Js5hIjqAaCYEUco8ArR0XZmjjgF5NjmBSGqWZWHSW9Hq343jDW+z3C6OfMqpOksxPWWTIqYL9MESGUSluxTPte2C1WTGtftdqPWVY0/dJlhyOYwEtpf6bjHtYHIB7Y0spi7ywR5/E/tbt3MpukLaemiwJEPi5f2k4xwu9N9CmvzeDwEsaVo1njK8vO0AWyAu9t1CS3kNtle3wJqTQSgRxfmeG+gY6mZN9lEVFvAarPirk+9id+NmGA3Lp8/Ek0kkE2mucTu/Eag6HXYOYMqbiR9Hg6VAr5HZCXx07QyuDt1DZgFyFpaBuwxv7D7KJQCpWEJLeS02VzXxuiCRBWIhfNfVgdtj/chICzCNKUCF1YM/O/4GdjZugnEVfui11GDZBzs5ig/ZB9sHUchCr4Rgt87CXaowZaJmIv7hStYAdsMBrI2jdzf793IeqstSwloXEUlQBC+ZiO0mJ2ZiYwwwJr2NfVuUZ0rECWRizqfpXJ84C5+tAi6zD3emLqN37gbnp+6teoFzT6+MfoEW/26cbPwZOqcvsAZLYFXnbmNSB0pnCafmUGIt40jdLwf+P47CpQCiRu8O7K06zhG/NyfO4ebkGSSyMQZY0mLrPVvxQuN7HKQVTs6w1rmn8jhCqRn8S9f/jUQmDL+1ksdK77kzc5nN3ASwdKAgHzDlAotSFrcmz3Gg0qGaU5yaxNHDYgKBxCTuzFxhYI9nwj+IImbTs6BnkzWZvUnTJYasOncLDta8yn7ju9NXcHnkcwbppcgmxIyMKY4ibgaY4H/xRl8om9EMt83BNVaDiQhbIKgIeIXHx0QBM5EQJsOzSGQfNQ/zk4lkQmfC6zuP4NU9x+Cw2pfFV/Y/yhImJmbx63/8AKNjU3jv3VM4fmQ3rBbKmVbrUtJ15H8cGBzFx5+dZaKFUy8dxsnj+zmdZ7kNgd7RP0FRxF/h7sQgJCpQ+1CjZ9iNZnjsbnVtxiNcDchldaDcrdaupZzKqfAckiSDhYg+mGjDhLf3PodX9jy3ogja5YRFMqAAIEpj+fjzM5icmMX7753Cwf3bYTIZl5UBmffvDvfjg6vfoWdmZMHqOqoMLPA5XAyw5CYgBiUqDl/u9DJYTpEMonOgtJ/FZOAx2PDm3ufw0s6VR1ITuNJhYy4YxRdfX8SZc+3YtWMTR0x7PE61dvAK6vyS/7hzsBv/cvlrDAanIOtkjiJ2utQo4ofZnDQTsWYi3lAmYtLcyEdKJkwy2xIxQr1nC5vHemauISkmOYLYay1nUCGTMIFnm38Pnxx7AjdYQzxW9xaafdsQSE5yEjzlvBKYUEpPnasVrSW7EEhOMehROg/5I29OncOZfJqO0Y5NJfvQ5tsNo8HCJtyu6XaEktOsMde629h/qUDmCGMKbiLg5HxVnQEltmrsrTqBalcLwukATIKJq49UORvY9/tl33/jACqP2c8pSU6TB53TFx9osHRIIFIJ0jTHw/24O9PO80T9JC7m+8E7fOioc2/id1IEMgUrkQn74Y2KNCjSoimwqcRagW3lh1Fqr2atmiKfiW5yMXrI/OKQsgoCY1kk0tWQde5l82BVHmhqwgN+Zw564g1Nx8BLmuBCAU55gCVy951VTZwDWur2LYkZpI2R/5HSb6ang/ji6wuYmQ3iuWN7sWNbC1xOB6oqSmAwGjh9h/6OjE3h0pVbfN2+PVuYZIHIB8pL/bDZFq/SQr7C6/1d+KcLn2E6QXmwC0c4PQBqpvFUNUr6jIuBE+lFrsj7ogMjmkQZ2FXTgr8+9T7z7z5uo6NAJpNBICeD+0PjuNx+i+Xx/LF92LK5CS6nHZUVJXzYWKylMmmc77qOD699h9lUdNHKOnkZ0Dzn55oOfARsOggFycAEHfbXb8FfnPgJ3CuQAQEr5flOzQR4fO0dd3Hrdg+am2pw8vkD8HpcKC3xcj5sob5d4iQ+13Udv2//GqFsAqDgQ2UCHl9Uy4NdZLEsd2B9nDWdX1eL7iOP8/Ai3vvETMQEBqTNkfZHJA5E5lDhrGMwGQ73cS4q+0ztFZiLTzK4UT4sUSrGMiEGXNLs2Ifq34m55BQzM6XEJPsfydVn0psYpMgkmhGT8NnKOSWIIoqJcYmuJ3gg/ycFGZEWSFolgVCjdyvnx5oNFjZRE9ANhu5xABbz/FJAibUMO8uPcZ8I2G9OnGX+31JHFfs9qfUHb7NmQ6k7dGAgjbRj4jS6Z65ylDHl6hL7FJmyidpQ1TDBZuOp6AgHXhFVY7WzmcknpmKj6A/c5Ojk+YstXxyBmLGa/dsZ0FNSiiOOCbQpkjrPQLXUeuLNalZCNOhBVrc+TE6QFJRaXPibV/8EbdWNSwY6EfVh+7U7zOQUicaZbILYp4gOz2wxM7i+/OJhNpPeuHkPNzq7EY7EkUqlOeqWmJ7sditqq8sZaKqryhbcdEm24UQM33Zexsc3ziGxgP91Lb+XFORTYXHjf3zjVyqT0yqCfOb3h82loQjnvt6+24dIJIZkSjUpk5ZvtVqZSvDUi4dQ4vcuqN3lo6g/6ziPr7vauRh5MXlHBElBg6ccf/3yz1BfVlWwDOjQ1d0ziDMXriEQCPNcpzNZGI162KxW+LwuHD28i+k0l2OvIhnm/c4U3Ha6u0NNz0IGJmEc3tIUbC4DHq73rmmwmga7oTRY6ozK/WsCcelSTuyW0v3sx6IgIIqwJb8ipcBQvisxNxGIEEgMhXvQF7gBvWDE/uqXUeNu4ShkuocMpA+3vIZFWjKBIqW6XBv/hoks8i1fMk9NK9CztuyzlCEjpxFJBdivO9//SdoJ5cA2eDczZeLAXCfzKFMrs9fgpcZfcLDLZHwIIgVw5fiNCVQpmOp+8PYDXygdAirt9cxIZTO5GThJSx4J9WA2Oc4pD0adkYknCPwpmnihAgT0nO1lh9lUTmZkCg6bSY5zgNRSBQse3phTMZWLOKPUQREen/RgWSBiE6kBL28/hLf2n4DDuniJNsrrJMq/8fFpBoz5s01Rs36vG/V1VcxSNDMzx8w+BMLzryM/JV1XW1PBYLuQ6VCUJQxMjOJfLn+JuxNDEKkaQTFbzkz8+q6jeG3v8nzMhXQlnU5jcjrA1JKp5A9lRTIo8XlYVlbrwnNMTFZEMvFB+7dsHi52VSHiIvaabHh111G8uPMw7AXyMZMZnA4TRDQRicY4qPDB91oQ4HTYUFdTAZ/PXRBok+Wic7AHf7jyDQaDk+waUAOcZuApEWHSuIgXXH6aBvuoWJ6YBju/K0S+QKkqxHZEOyERKZCmZ9CbmCiBtDkCYVHJIJaJcGRuWkwykUS5o54DoQjcCGAXi7Sld7jMXg5Kogo1FNREYLdYI5DVs09TrUazUKNALDogsDlOSqll9gTiWHYyWQVpzhRdTL48Asd8GhL5kMNpNRAp3+iwQfmvBMr0QAJSul+9Rt0w6BCwVG1cjkbWWdg0Se+UlCxkWVpxPV3yw86NS0imKyDpPMWvBatQbWsF9a4y/PkLP0FbVT378BZrlKZC43ukip9AhzYhV4GFfLAyj/+hOCCOciUw1uvVIgsPt7z2eu5uB1fTiWSTxa+mQ1KWgWZfJX55/E3Oh11NoM/DhyWSAcnr4RRkVQaUM/socT09g0CKq8p0XuEUpQhRcxaZNZPea1B02FJej/ePnEJjeXXBpBv5vGD6+YNG4yRzvV5XELjS920mHMRXNy/iW859zgLM4jQNlzvC/le9Uaums9B3UwPYDQqwDB6C7kH+HwFV3vypfq7WRiU/qFrLlb5E+SR+A//u4So1Cy0Aeo5aXYc23ZUDTyFagzoWgbVr6m+ecWl+1Rwa31rWoy20X4VeJ0sK4kEJoTkrskIVsE4Vdage7MGmbXj34EmUef3L5oMWOp6VXkfBSF3Dffjj1TPonx2DuEBw00qfWdD1RJmoN+JI8068vu95lHt8T0QG9N1LUF3UgXv47MY5DIWmiq695uVDWqzbZMOx1l04tesIStzedZMB00umErh+/x4+vX4WI+FZyIIEHdWDNVA92AyszkfNw9R3zUSsmYiXOnQsdJAXXn3nl8o91wsY9++GZHZBXkEUXrk+iJOlf4e6lqQa0q61p0YCdH7JpCSEp4idqhyysA5arKo2wWWw4LVdx3Bix0GOTl5J5OdaCJiiZgemxvBpxxncGO5VqQFXsO4fuw+yAr/ZiVd3H8NzW/Y8ERlQpG//+DA+vX4OneP9yDDBxjqorznhkSZf6fDh1M7DONS2k4n/12MdUEDXvbH7PO7uyWFkBAlQMjAiAIcrBIdPp3IQL9AIYCPjaQRuiUgOG0Ei+7G19dBgiyXTYgZPLWYmFl5550+VbtcJDWCLNasb+LmkxSbCEsJzFmTkMigC+UWLv8nqZAWVTj9e3nEIB1t3MsA8bsBPIWIm0zul9IzOTuGLmxfRfv8OElJmXUzDP+gfF14XUOcpw4vbD2Jv89Z1lAGQyWaYg5eCuzqG7iH+RGSgwAg9Gv2VOLntIHY1boLLRkxnxTmo0+ZKDFsDE8NMKnJztBdpcgvpFOiVCCymGbh8IiyOR8vU5eeOAXZMBdjEsB4LpAsXsgyLfk0xQbDonS/yC4oFsosdDoVX3v5TpdutAWyR53XDPj6blhENyIhHnRCFUigCkUAUH2SpfF2V049DrTtwoGU7yjz+ZYsAPI4Q2SSaSTGxwHe3r+DWaB9iYnr9wTU/CC7dpkO1uxSHW3diX9NWLuNnXKYQwuPKIJ5Oond8CGfuXMOd8X7EqOrSOmquDx80zIIedd5yHGnbxQQcJS5PwT7ZQmVB7qZEKol7Y/34trMd9yYGkVBEjhIm07BJPwuHOwG7Ww+9cfG1rwFsoRLfuNdpALtx5+aZ7BmljqSTEqJzApIJDyTBlwPZ4g+XtDiP2Y6tVY04vGkXmitqmbiCArjWylxIAUAZUUQ4EWVSgct9t9E/ParSAS6S81r8kefeQHVyBQF+iws7alpwsG0Hp65QKTuio1wzGSgkgyzC8RiuD9zFld47GAxMqKkpG0EG0KHM7sGuulYcaN2OGn+FKgO9SgO52kZznxazmIuEcP1+F671d+F+YJz5pglcBSUFoxCA3RmDw/toebqH36sB7GpnYuPcpwHsxpmLH01PyFScjkuIBXVIpghkvVC4CEDxNVnyydr0ZlS7S5ifdnttC6r95Qy0FGVMUd7cHpBdLD4tHFuqEFWwygJFTD3heBR9E8O4NdiL4bkJzCYiyFJocnEskStfqNzCOgAAIABJREFUMxRdTRWRDGZUuUvRVlmPbbXNqPKVwWomkFHpEFkKhcggF2Arc/CdWsouFI+gZ3yQZTAWnEYgEUYWJIN1mN9CJELczooAp8mKKncJNlc3sgzKvSWwGM0cBU1RwsvJgOIKKEBSpHETsMbC7G/lcYemEUrHuQoSBOUBuNpsMTio9quFSFOW7qwGsIVM5sa+RgPYjT0/z2zvHoBsSEAy6cqBLBVjL/4mTFGlxARko5QtqwNeuwuV3lJUekvgttkZWCidhdObFmsPgFVmKj8qQTc+N80UhnOJCIIp2lwpqnxdhrTidUIyoDh6m4FSvRwocbhR6StFhccPp83ONYaJv3hJrZapBCnlTGbKxkAkiPGAKgMqwhBKxrmgvFz8KV3x+HlacjJwEDWnxQm/080HDZaBheg1BS5usKAMcocqioymFBye+2iI5z6conErOYYqGTo5CaMuAKstDodXp4JrAQcuDWBXNa0b6iYNYDfUdPy4OkObcyYhIRaSkUrYIcIHmQOf1qY4+HLSpA2WGoGtSafnCi0mvZFzXclkulwgVJ5qjYCUTIMpMQsRKqgSteXT0ObLwKwzwGIww6TXM5MVafTLmY3z9WgprzslEsd1VtXYhadPBnTgMOuMrMUS9zMV7mCz8SKqJvlaKUKcxy3R3KuUNOrc0/+J0EkRmAxB2J0Z2Dx65hteTnPNrxsNYJ+Gb9DSfdQA9umfw6d6BOSTJRKKZFRGIqJDRnRBghuKjpiASINcJ6TiPGjVLEjRv3kWriWFmwPoBzQE69TVok14biCaDPKrTl0TSy3BB2QbD+aeSFwk6OQUDAjAaIzB7tVxrqvesLIFogFs0Vb6uj1YA9h1E7X2oqXMrRJVaEnJSIYlpBJE6G+HpDghUfUdLhpPm1P+b27j00SqSeCJS0AlqAH5mIlPXEnAgDAM+hisbgE2lxEGI5mEVwauNCwNYJ/45D52BzSAfWwRag9YKwlweTAJENMyB0GlEkTJp4OsmCArViiKgevaEgWiwmGZK9+01qqv2nM0CRAPnEDaqpCBIBCveQZUetjqEGCyqxqrTr/6NaoB7NO/xjSAffrn8JkbAS9KKtMmKXyKJxOyKAJylgBY/avTU5TI6jevZ05o2oDWVQLkZxUEBbQMdQawb1VvIn5iKqcnrEpjfXgAGsCu65QW5WUawBZFrNpD10oCKkV0vhwBAS9Fz+RCQNfqJdpzNAk8jgQopYcBd20PfBrAPs6kbIx7NYDdGPOg9UKTgCYBTQI/kIAGsE//gtAA9umfQ20EmgQ0CTyDEtAA9umfVA1gn/451EagSUCTwDMoAQ1gn/5J1QD26Z/DZ38E8+pdP1T6+tkfuzbCDSeBB57WtXW5PjJODWA33NSvuEMawK5YZNoN6yKBHBUhBTkxWxBFD9NPSjeUFQgcRaw1TQLrI4H8RklxTDrKENOpKTjM20z/XoaQYjW91AB2NVLbWPdoALux5uNH3xvO0JEUZDMyqLSdmFYgUY1qRQ9F0UHmfH4ZQo6U/kcvME0AxZcAZ42phBJqtLDMf3U6GXpK0THrYDLruPScmp69NqqtBrDFn9piv0ED2GJLWHt+QRIgYKUNJZuUkE4QwOqRyZohymYoigkCsznpKGOHq9cIqtqgNU0C6yOBfOmkHM+wQKYU4hoWsjAYUjAY0jCZZVgcOhjNxGO9NMViIZ3WALYQKW3sazSA3djz86PoHRFHZFISklEJ6aQJ2awTMmyQYYIiEPH/+nISr5yI8fE30w0z0TkgKUgGa6SpbYixr2jc1GNCWpV3WIAIQUnDoIvDaIjCapdhdeWJ/Vd/CtQAdkOsjMfqhAawjyU+7ebHkYCqtcpIxSQkInqkMw7mH1YEKxQG1XXys+aYo6hGKL2RNWRi41lGRc4rNbTNKgL9l34+hWCbjxxTFFBRevpD9V31S9RUUw2mCpXXVf9vDTS2x1lLq7r3QUFf5Mat+vuZiemRw4OiWk8EIkhUGFq53l0ea5k2UQSUBEy6MEymKJemM9sMq6ZL1AB2VbO6oW7SAHZDTcePqDMKkM1IiIclJCNmZGQfZDjWr/B6rvC4SdDDJBhgM5m5LqzTamfmKLPJxCXrFsVYOhxQsW1JQiqT4SLj4WQcaUlEWspAZMDd4GBLdXEV8PiNOgPsZgt8diccFjsXEqcC7I+U7MuZ6EVZAtVCDcYjiCYTXKovJWUh6ahU3eq1tnX5BtABShFgFgxcptButsLrcMFhsUIUJVgtFhipTF2+UaAdF1aXeE7jqSSC8ShiqYRaplDOct1bddwEtGno5DDMxgAcXgVWp3HFlXTo1RrArstqKOpLNIAtqni1hy8ogTy4BkXEIlaISilkHRW4XqLA+RqKkhQPCwxcZHxzdQO21Lag3O3jOqBc/5O2UaGwup1UE5Tqx1JdUAKa4Zlx3BzqwfDsJMKpGERCsA0IOIQHVp0BZU4vNlc3YUtNE0pdXlhMJui50HwuQnYBrGQYUcCAk6VxJ2IYnB7HraEejAamEErHIW3QcRP+E7CWu3zYWtvEYy+hcRtN0OspkE6B7qG5z5d3Vau9CpBkCRkxi0gijvtTI7g11Iux4AzC6QTkBwcMEXopCpNxGnaPBLtbK1e3hl/hp+ZR6w6wr779p8o99wmM+3dDMrsgr2DzKdcHcbL071DXkoTRvE7mw6dmKp+ejopZGfGgiEjQDBHlUBhciz+flN5jUASUO7zY1dCGAy3bUekrg81kYWB93OhPAtqsmEU0lUDfxDBO37mGgelRxMTUhjGhkgxM0KPC5cOehs3Y17wVFZ4SWMwWGHR0qFi59knjJsCJJuPoHr+PM3c6cH92HEkpA7n401rQwlfHrUO1qwR7m7diT+MWlLl9rKXTgWI145Zo3NkMYsk4ukYH8N2daxiem0BKFnPjlnMgOwmnT+TSdSuprjNfg00O66FIK5+bgoSzBhetRn5r8NoN/4h1B9jX3vml0uV6QQPYDb80itNBWZKRjEgIzxqRkcsh6xzrA66KAqMsoNFXhVf3HMW2uhY4rHboKalxjRvpOaIoYi4Wxvmua/jubgdmExEoZHFeBYCtVfcIZMzQY3NFPV7acQibahrhsNgeNQOv8oW0mZBGS+M+c7sdF7pv8bjldYxRW7DrsgKLYMCmigac2nUYbVUNsJktazpuOmBMh+Zw+k472gfuYjYV4boUFAill0KwmKfgKlFgsRsKrrRDABsdSyPQKSE5YoAirnJiinxbsUCkyN1+Jh8vvPbOr5Qu1/MawD6T07v0oMismE6ICE8LSGZLIQuedTEL0wZgUnTYWtmIN/cfR3NFPZsEiw129N5oIo72vtv4+NpZTMWDDLJPxGQsK7DqjNhZ04xXdh9DY3ktzEZjUWRA4w7HY7jUexNf3riI6XgI0vpY/x9dgLICu96MPXWb8Mqeo6grqYDRUJxxk7sgHIvifFcHvr7bjplECDLb07PQKwHYbQG4S/UwmEljXn4DYIAdTyNwSwPY5aWlXcGuLQ1gf7wLQcrKiMxKiEVdyKIcEIzFF4YCGGQBm8vr8d6Rl9BUUQuzYR3emxsZgQ0Fw1zpvY1PO85iMh6CTP7J9Wzkcxb02FbVjJ/sfwEN5dUqyBSxDzzuZByXum/is5sXMZUIqmCzjo00dvK176nfhLcPnEBNSTkMxAxRxEbjjiRiOHv3Gr66fQWBRIQDvyjwySRMwemJw+HV5+oZL90RDWCLOFHP6KPXDWA5SIW3EEolUFMoGOFzn1OoPUVKbuTGZAocUDK/nwIHYTwN/Z8vW9JeKR0nOKVDWqrK+V2Lv+PqZaDOU46fHT6FrXXNrLmud6O5CsaiOHv3Kr65fQWzqWjOfLg+PTEqOrSW1uDtAyexqboB5nWSAYFNKB7F17cu4Zs77Qhn42oa0zo1gyTwuN8/egotlfUwGooLrvlh8bhjUXzacQbfdnUgLqc4pUenhGEzT8FdosBkW97vqwHsOi2UZ+g16wKwBEBOkw8OkxsZKYVIZg6inAVlObrMHpgNdiSzMcSzYY4AZRCbB7g6nR46CropcDOgL5SsSDkgXxvtRK8zwGHyQC8YEEkHcv0XYDbY4DT7kJVTiKTm+L2LNQJoup+aJGdzdG+Frybqg1Fn4sjKjJzin6tttFmEp0XEYl6IQtm6mIYpSdNttOLdAyfx3JZ9sFksy+e2chqKuiaYZ/ahNcBzzcmfD8lCoIPPQvmTqsRonY3NTeOj9u9w+f4dZCAVvL5WK3Meg6zAb3Hinf0ncGTzHg7qWS6/Vz3U0QE0x/+cm3fKD6W0nZWY1slsOhaYwu8ufIGbI73IcDrL44yosHtp3KVWN94/9DL2tW6D1WQp6MZF51ddEYvkyD76aHrO8MwEfnPmY3RNDUEkLVZJw6ibgctDObLL58dqAFvQlGkXzZPAugCsxWDD1rLDaPRsQTQTwki4F0kxzt1ocG+C21KCQGISk7EhBi5JkZDMRvlaAtZyRx1fowIvmXfUPyofqfpFy7OTqp/LmEmMYSY2BlHOPDThqsapJ6o/2oBzz6FN/HtQ/uEtOkEPj6UMbf7dIJC7PX0R0XQQep0RDZ4taPRuw1xyEvdmriIjpfn9EkUuzgNbAle7yY0aVytv/H2Bm3zYKLRRn33WClS7miHLIvrmbkFSRAiUwqEonKpA78yl3C/72ExCQmBcQUquhSJQ1HDxd1kyDe+obMK/euk9+F2eZYFBogCsZAqRaByKLMPjccJmsz64T5IkhCMxhMMxZLJEKpAnGhBgNhnh9TjhcNg43WOhlsqkcX2gC7+7/CWbitUgmOI2oyRgT10bfvXCW5yGUwg4EjikUmnMBkKYC0aQSqd5DbtcdpSV+uBy2hcd40KjSWbSuNp3B/9y+StMJ8PrMm6TrMPh5m34xbHX4XG4Ch43zW8oFEE6k/3hGUoQYDIaeI5dLkdBAVKpdAqXem7id5e/xlwmltNig3DapuEqEZb1xWoAW9zvxrP49KIDLAESAeShmtdQ42xCVskimYkhLkahyBJKHdUwCEakxDiS2TiSYgKJbBST0SEMh++BwO1Q9Suo927FbGIcyUwUNrOL74lnIwxWVoODgS0lJuAy++C1laFz8jzax77iZ+UbbUqkcXotZfBaS2E1OqGDHlkljXgmgrnEJMKknUqZB+BNGqfN5MLmkv1o9e9CNB1Az+wNzCWn2bz9XP1PUOms574Nh3tZ26J3jkUGEExOPQBZkkO1sxUnGt8DaeS/v/N/IpyeLXhNGfVmbCrZhz2VzyMtpXB9/DScZg9MegtrNqRV0ztjmeAPTPALvYB8YfGQiNCsBRmhDsA6mOpkBU69Bb967jXW3ExL+F0JJzOZDKamA+juGcTw6CRvyIcP7EBrSz2MRgNjaSwWR8eNLtzu6mfQUYkoVK3VYbdi145WbN7UBJvVsuCGTq6KibkZfHztDC72dSLNWmzBU7LyCxXArbPgz55/Ewdad3BQUyGNyBYGBoZxpeMuxsankEpnuIKR02nHptYG7N65CZUVpdAXWNGItNjxwBR+f/lrXBu6hwzxIBV53H6jHf/6xXexvb6tYNNwJpPFjVv30HmnD7F44sH5idY7Hb6sVjN2bW/DgX3bYDYv72rIj/s3Zz/B7Yn7EAUJOiUOs3Eabn8aVufSZmINYAtZrdo18yVQVIAlAHKb/dhadghN3m0MYmQmJpMqAYLV6OCct7FwP6wGO5wWHwPVSKgXgeQkAokJWPQ2PFf/NmrdLbg0+jl/trXsIN/bPdMBk8GCOncrQqkA7gfvosGzGfurX8KtyfM4M/gBkqIKsAadER5LKZp821Fhr4PD7EGpvZo1WALLrJzGXGIKg+F7GA33IpGJ8qbjNpeg2beD32nQGxFKTjOJwVRsBDaTE3sqjrPGPRC8A5PejApHPaZiw7g6/jVGI32QZQkGvQkWgx31ns14ru4tfu7vbv8frPWqSfSqb5c2fNJ6F/JFm/U27Kk6gc2l+5Clw0Q2DofZi3gmzM+m59ydvoy7M+2s/X+v3T+64IlrODiZRTxeClEgy8Dap8Y8/FadpKDWXYZ//9ovUFtSsaQGQxtrb/8wrnbcQde9+5gJBGExG/Gzd07h6OFdsFio4ICC2UAQn3x2Fpev3obX60Jrswq+hBVmsxFtrfVobqqD1WJe9H2JdBIXu27iv7d/hVA2UVwzsayg0V2Bv33jl6jwlhSkxZEcs1kR/QMjuNczyJYKYjUKBMO4dbuHg6NOPn8AJ144wOMstMVTCVy4dwO/u/QVouyTLB7CEtfDlrI6/M2rv4DP6S543LQOOu/0ort3CKkUuURUUzmB7eDQOA/1uSN78MZrx/kQVUiLJRP47nY7Prj6HeJKmqQLozADtycMh9+gFgVYpGkAW4iEtWvWDWBJ+/TbqtDi2wmb0YFQahZ1nk0MdP1znTAbrJDkDIaD3QxWpY5aBJPTGA51s3aaEVMM0M83vI0aAtjhzxFOz+Fg7Suwm1zoGP8OVoONNcu55BTuTF1CtasFB2tO4ebUOZwe/ANS2Rj7PUvtNdhRfgT13s2YiY0ikg7iYM3LrPm2j34Nq9GOGncra9IEzmSCJSAj0/TuiuPYVLKXTbIEfqIsIpQOwG8th8VoYzDuD3TCZnSi3FmHvsAtdE5dQDQ9x2bkRt92VDkbUGav4QNAVsrgk55/YA3XYy2B0+zNaaFBPkDEMiE2lc+3iVkMDhyrfwvN3h0w6AzIyhl0TV/FWLQfJbYq7Kw4inAqgCtjX2Is3Md9XXSjyMqYHhaRkurXxzysgPM9j7bsxPvHXmEKxKVaPJ7AlWt3cKuzB0Qe0H9/BNlMFn/y3qs4fmzP9wA7G8QfPz6NqzfuYvvWFvzkjRfYhExNrxP4OpPJtOSmSdSKd4b78NsLn2EoNF08IgaiQIQOx9v24OfHXlUpIAtsBCrJVJploDfo+TA1MjaJ3/73zzE6NoXDB3fi/fdOweko/Jk07rvDffj1dx9iIhEElgCWAru58GUKYBUMeG3nEby5/wTnuxbaaNyJRBLxeBKiJKuxB5ks7nUP4OvvrrCV4rVTz2Hvni0wmQqzBlBe8O3BXvy/3/4ec+kYFB3xPc/C5QzAVaLnEncawBY6Q9p1y0mgqBosmUUrHQ1o9e+B2+wDmTkrnHUMOiOhHmQJsGSRNQ6dYIBeb2QtjgKeSBu9H7wDu9GNFxreRr13C4ZC3fz7Ru8WGPUWBhLSDkttVUiKMYyG+1lDbvBuRsfEaQbYdDbOvs991S+ymXcmPoIbE2dh1Jnx5qa/QiwTwR+6/hNrjtvLD2NzyT6MRwZwZewrTMdH2ERd5Wzk+2tcLeznm4qPQFRE1iIj6Tn2LZPpmfyfk/FhXB8/g6nYEPtEaazkNyUQrHDUsTZMz+iavcaHDjookFzIx0j+4tnEBHoCNzAeHWCAzzcyZ7/U9HPWwAmg6YDSPvoVYtkg+2YP1bwCv60Ct6YuonPy3JL+3WxawvSgiLTQCgiFaz3LLaZFf6+AzcM/Pfgijm/bx0xNSzXS2Mg8HAxF2Pf4x0/OYGp6Fj977xU8f/QhgP3kNK5ev4ud29vw7k9OMsgYDHrWZB/h7V3gpRTsRMEvH7R/i47hHmSLZSZmGZjxiyOv4tiWPSuOHOZCDJLE1hMxK2Lg/hj++fdfIhaP4/jRvXjt1LEHh4tC5onGPTg1iv924XPcnRxSqRSL0RTApbfgX598G3ubt604LScf3EVdo2C28YlpfPL5WdwfHMOeXZvx0onD8Ps9Sx6i5g+Lxj0wNYpff/sB7gcnOEVLjyActlm4/FAZ6RbBWE2DLcYCebafWVSAJdOny+xHo3crKh31bBoud9QyaI2G+xDPRlmLJU0wmJzBaKSXtbxadyvuTF9G+9jX7F8lgKXPrk+eQyITwZ6qF9ikTFoiRSA3ebeydtw9c439vbsqn8ONybMMsKKURp17Ew7VvsI+1wvDH/N7Nvn34VDta5iNj+Hjnr9HWkzwdYdrX2eNt2PiW/QEOhjQKQKatGIycxMgKwIx5KRwdeQbNg8fqXuVzb90MLgxeQ43Js8glg7l/K8Cm6fNeiuafDtwuOYVuCw+7i+N5X6wC7FsmGVS7WxkTZ0OCtcnTjPA5wOlbEYXXmv7CzT7tmMmPo6v+3+L8Wg/m6DdFj/2Vr6ITaV70TXTjosjn/J4Fmrs30yKmB1VVIBFYSf/x/oakO+RNtkX38Puxs3L+uCojyR3ApTJyQB+/ZsPMTY2iZ+++zDAhvDxZ2dwqf0W+yObGmo46KWxoQbNTbUcFJXnMl6s/+SXmwkH8Nn18zjTfR1JshwUw1qqAF6DDX/z6p9gS22z6i9eQSNgmJiaRU/vECanZjE2Ns3aK5nBXz55GE2NNXywKLTRuCfnZvDHq6dxcaATGQrIK8K4CSDdOiv+l3f+Eo0VNax9r6YxWUYkhq+/vYwrHbdRU1WO108dQ0N9FQwrSPfJ+2F/e+Fz3Bjp4SIQeiECm3UaLr8Mk2Vx0gkNYFczcz/ue4oKsCRaiiDexSbWPax1ksmXNItQMsAAS/5Ch8nFAUJ3pi+hybMNuyufx73ANdbQrAYnA2yNqxmnhz5AIDGFk00/hc3gwrnhD2E3erC9/BBHDV8fO40G7xY8V/8Wbk6dZ4AlACIT77byQ2xGJoBNZhN4sel91kxvT11C+/hXDJhkzj5YfQpVrmbcmjyLW5PnODWHtM7Npfvhs5UjlU3woYBMy1dGv0SpvQqVjjrodCpQxTMh9M114v7cHYTSMxAlMvWqcthedhRH699gbff21EUGQ/LX0rMI1CudjThQ/RIHal0b/wZ3Zi4/0GJJC3+j7a/Q4NnE2usXff/EpmTyIbssfuyveol93fTMc0Mfsql7MYBNx7MIjOuRFpoLCnCioCHy+5kNJi6ZRlkxGTGDjESpVgL7AVVavixoA3u4qZusBX/7+i+xpbYpR16//BePN8PxGfzn//qHBQAWiMbi7KelQKdQKMqBUVlRhMNhx7YtzTh2eDeqKin4Z3Hgob4RleBXty7hy9uXkZAyCwINy0BHMiCuXB1X7iE6PpIBBdoZ9QYeO5le5+d5PxilosBrsON/+sn/gMaK6hUDDWn1Xd0DOHv+GsYmZhAJx1jmO3e04eUXj6C+tnJFAEv3zkSC+LzjHE53dyCxyMFCnXsDLAYjHwJpbOlsBlmyPFEkb87qlJHIfbLA3FNqlt6K/+39f8vEEqttZMm40nEHn352ls3Bb752nK0W5AZYSaM+ToZm8eGVb3GhrxNZQYQOMdgsFEkswmzVAHYl8tSuXVoC6wCwdhytexPbyw4hJSbZ10qm43Q2wWbMYGqaI2HJZEwBOk3e7QyG3bMdOR+rCrANvq0YDvWy2bXJtxUGnQnD4W6+l7TeRDbCpl2Hyct+3o6J7xhgyRx7rO5N9tN2zVxl8zBpxe9u/Xdsvv24+z9jJNwDBRL8tkrsr3oZNa4mBmjyxZIPltJzCIyr3c0MhBThTICXIS1Rp8NMfAwT0UHegOrcbXCaPPwZpfOMRvo5arjO1YYjta9zsNZEbAhf9P4GU/HhXGqNwoFOFN1MAE+a6LWxb9E+9iXSUpJnkN73WutfcD9uTV7ApVFVS6X7yPx8pPYN1vLpnZdHPuOI6iUBdkKPNAoDWNpEN1c2YH/jVrhtDtYs74714+7EIEx6PbZUNSKSSuDO6ABXrHl4o30AsG/8iqvEFMo3vBTA0tjILxeLxlizSacziMWTuHOvHx3XuxgkT508gmNHdnMay2LpMCrARph84YvblxYFWGKb2l7djH1NW2E3WZHKptE1NoDeqREur9ZYWoW5eATdE8OIpuOPgk0OYP/nt/8SDWVVBZmv588fabCUrhQIBBFPpFh7vdLeiWgsgb27t+DlFw+jtMRb8HM5SCwcxGc3zuO7ex1IUjrbAhosHap21rZiX8Mm2ExWJLJp3B7pRd/UKFxWG9oqGzATmcPt0QEkMsmHs5E52pkA9n9//9+iepUASxHDQ8Nj+MfffopAIIQTx/fjxPMH4HY5Cg6YysuSxj0VCuCD9m9woe8WuwS+B9gszFbDovFemgarwelKJbAuAHus/ifYVnaIwcJmcHKQTlpM8r8p0IdAcjo2iqnYKIMEpdCQ9nZn6jLINJr3wfYFOjnwhzRKMjV1z15n4CHTKmlzg6F78FhL0erbieuTZ3IACxyte4MBtnf2BjqnL3Kg0IGal9nf+Un333NqDvWp1t2GwzWvcbTwtfHv0Bu4zsQOrSV72P9KJmLSRMmsmxCjGA31cv5oW8lujiBWc3lH+FmUvzsS6eUDBD33QNVLqHY3QVAUDIV68EnvP3BKTb7ReAgoD1aTuXkTHy6uTXyLTA5gKVKYtFvSsrun29EX7ORAJ/Jdk1n5RMNPOaK6Y/xb1o4XzbHNmYhnRpEzES+dokPA5LO78ebu59BaVotQIgK/3cNmcorIpLqjTosNnaN9TEUXSycejWAmDVZvxb95+WfY0bDph7U9l1ixywEs3TrfR0fpLAQ8H312Brfv9GLvnq1467XnWYtdzB/Lmlw4iC9uXsB3XVcX1ORIBn67G39y6CXUeiswGw3D73CByqUR7SJpdQREV+/fxdnumzmgeUiby5mI//bVP0VbTcOK8lbng0OeeIG098tXOvHhJ9+irMSPt958gVNWyPdcSCPZTgVnOUXpfN8tpCko7iGApTVZ6fbz3Nf6yhFMRFHi8EBUZB43HbQo3apjsAtnu28gkX00r5sA1qO34n9991+hvrx6xYBIY6F0rI8+Po3zV26irqYSv/z560vO6VLj5zU1N81EGx3D3WqqjhCB3ToDl0+CSdNgC1k+2jUFSmBdAPZw7WsMsKR92o2qBkv+yoSYQDg5m4vEpZxWHeecEvCR6XYyOsgmWo4idjXj4ujnMOmtaPZtw2x8kn2dFES1s/IYZuKjDC7luumDAAAgAElEQVQNnm043vAT3Jq6wABL79xZfgw7y49yfipF+O6teoHfc/r+H3B35hJH3Hos5dhb8Ty2lR/mAKsLI59wRC+ZgynXtc2/hwOSqI/h1BxCyRl83vcbpMQYSuy12FK6D7WuFkzHR9l/TEFOdICgdKKDNa+w6ZtSaqwmF6cFfcUm3jBrzrRp0iGDfMkHql9h+VAOL2nxeaIM0lQpSpm0bgrcUgFU4D7R+A7UvMJEHWcHP+Cf8hJRxN8HOW1aln+YgKnC6cP2miZOk+ieHIFZb8CWmkZsqWpisBwLTeNi7y30T49x9ZZHGge6mPHzw6/iyJbdsJoKM+sVArDz30VyJA3nw4+/Y7/sru2b8JM3T6CmumxRgGVGp8AU/th+Gu2DXUhjAaDR6VDpKsGe+jY2Qd8evw+X2YIt1U1oq6hnf+pQYAIX+25hcHYiVwj8ISmwH9qKXx1/HYdbd8JYYA7sYt/jfI7oP/zTR7DbrJyqcujADi5MX0ijcQ/NjON3F79A59gARCrK+xDAUgpdva8cm6saEE+n0D81CqfFzmuhtbKeD7v3p8dwqf82RuamFh03Aexfv/xT7GxoW3GQEwdjDY3h//p/fodoLIZ33jyJF55fWUrSDywBCgV3jeG/fPch+gJjHORkQBB2DnJSYDRTLvXCEtQ02EJWlnbNfAkUFWDJP0fAUe/ZymZdj6UEZY4aJneYiN1HMDnLTER+aynGw/dxd7qdAY1SaigvdTzSzz4+Arg6TyvuzVyH317FLEznBz/CRPw+Gj3bsbvyOUzGR3B17CuOWH6x8X10TqsAmxGTKLVV41jDW6h3b2aTMWke/XM3cX74Y6TFFLyWEuyoeI4jiEOpGc63JT8ngZvT5MULDe+gybeT+0YhGqlsElExjLP3P0BaSrP/loCX/cuCniOJCZwJ5AgsKZeWopvpMLCpbD+nDpH/lgKYklKc/cR+ayWTSFQ463Fv5hqujH7BPtyF/Fo0gQS4dPjY7N+LQ7Wv8iHh6tg3uDV1nq0Dj1AHzpt1MStheiiLlNwECLYlWZxIe6OxmZiUXUFazPmU9WYuBk79IN8rmQ4pR3PB/nKajgEnt+zFuwdfgstOJfEWb+zPzYpIZzIYH5/FP/3zJxifnMZbr5/AkYM7OT3DZCbKSCCZTHJ0KZmdaTPuuz+Cz748j5HRSbz0wiG8+MJBzpFdzERMPtN7owP47cXPMRCYUAnwH9pgaQ2SH9ekM0CGzDKg51kMlN9s5uup7mxSTDMBwoI5yCQDRYdT2w/incMvs1m50MZpOsk0gzsFbRGhBEVYnz57Dd+euYLq6gq889YJbN3ctGwAWf6dNFd3R/rxX777I8ZjAbU+7kONxkggS+OmYD7ysxKjOIG4RU9ArkNGyrC5nNKpFhu3XWfC23uP49TuY7AUeLjKd4UOEu3X7+K//uMfYTDq8Td//XNsbludBYCeSf28N9KP//TV7zCTjkIQKE0nAJdzFs4SHQzGxYOwNIAtdMVq1+UlUFSAJbAhcNtUuh817iY4TW64zGqCPZlTibWJOHnN5IMN97JG6jT7sa3sIANr13Q7m34p/5PMs6Qdkh93ONSDsUg/ZIgos9WiztPGwDgU7EajbxunrFAe7JnBP7CmTFG8BNqUj0sa31h4ACPRXriMPmwu28t+Uwo8oj6RaXkweJeBmXyn1c5m7Kp8nsGzxFbBzxoMdSElEvtTiH2iZoOF+3k/1M2HAuoLvTcfAawGg1iwueQAdlUdZ6aoicgA+4qJSIMBU6fn/FryB9+cOMsa+UK5rGQSprxZr7kEbSV70OrfjYycYZIJAlcyOy8Gyg82V1FGYFxEMlkOSedbH6IJGWjyVeJvXv05qnzEfbx4o4AWipa9c7cPk9Oz6B0YRiKeQl1dNaoqStBQV4n9e7eyD/ab01cwPR2Ay+Vk4BkansDM7Bzqairw2ivPYVNbA0xLaIsUsNPeexv/eP5ThLLxVZkwC91OBElBq68af/vmr1Di9hZ6G5MsEJh29w1xSkqp34vh4Qnc6R6AQa/jQ8dLJw4xZWAh1Iv04mQ6jcs9t/Cb858gKqcLvq/gTucvVAAq8LCjqhn/5tTP4HW6V/QIWgtnznXgDx99w2lI//Hf/wrVS1gklns4EYucv3cD/3zpS8TICiSIMICIJkJw+pbmI9YAdjnpar9/5JBazHJ1ROZvN7pQYq/kPFivtZzzOAl4yYxKtIduawmnr5DWNRy6x+xElC9KQUMUZESEC8cb3mE/ZzQV4uAd0m7pRE2NtFmiTZQh8WcUYERpK5Rmc3bwwxxVoqqFUb4p+UaJrpHO642ebcyMRKd0yrGlv0zkn6NKJO2z1tXKPlQCrS2l+2Ex2vFpz685UIk+I82U+IUbfVvhNvmQEGPoDnSwKXo+2NG7KVhqe/lRBt8LQ5+wRlxir4bD5EQ8E2NQJa11PjjPnzDaPMnEfrjmDc6tpUFQetO92avMPkW5wMuBKz2PNL5YUEQkYEdWqAYZyYrdiOzdZbDir068g33NW5dMrSBigWvX7+JmZw+z9pDGTeMiADUYDaisKMGLJw7CYjbj0pWbHF2bSmVUTVavR01VGdPnUaoOUegtFeA0E57D5xTo09WBpFKkFJ0HYKPAqyfKwPews6mNo3MLaRTAdenqbbS3dyKeSPJ4yMNrt1mwY2sr9u3ZAp/PvaIAp6lwgAsdnO8lishHzeKF9KvgayQZboMd//HNX6G1ur7gKHJ6fiabReftXly8fAsOpxVvv3ECXk9hXMYP9y8fQfzP5z/HNc55phz8JMyGabh9CdhcSxdf1wC24BnXLsxJoKgaLGtmZBDW6dlU6rNUMCOSoNPhxsQZzgOlKF3SWL22CgY9ChiJpkNsoiWyBcp33VlxjDVQClIiOkMy0y3UCGzJxNrs24n7wdus0RFYLdTUtAszjGTqUgRk5DREOf0IQFG0MmmtFNxEplhKoSHgpghgYnUiEykFQlGwVZWziSONaVzEBDUTG3lwECDNkzRgMhOT5j4YussaK8lGgD5XICDLz1yK5tCoM6LM0Qir0cbMTRQ9TdHEKtF/YWQBZFrNJkXMjAlIK/WAULi5ctXfHAUwKgL2N2zFL4+/Dr9zcbJ/2giJb5fMgwsdGAhE8/SHBD5kSqafoigycxPR5lH6xnJ5oWkxgztDffjdxS8xHC4ii9M8bY4KzR9p2YH3j76i0gYWkHxKMqAxxuMpDvjJZERYrRY4HFZYzKZl2aoenjMGraEe/ObcJ5ikovPFYnGad7CwKEac2LIP7xw6CZfdWcCo1Ztp7FTIgeaXaAxtVmvBpBKPjFvM4tZAN/7+9AeYS8cBPZmHQ7AR2b8fS+bA0rM0gF31t/9He2PRATYvWdpISHOlaFuCAQoAIjAh4KHPCIDzlW3IJ0laKgOQoGNwozxTAhKVQnCRxqBpepCnStevVY1Z0oCtRhdHCBOAUgTv/KYeJAw5wAYDNpm/Hx4/XcN0i8rC4LHcSuT6P4JKSk4+3kI01oWeKYoyQhMS4okSSDr/+pSrk0iLteDPj7+F/a3bVuyPW0o2+WjihUraLXQfE0yEiGDiHM723Fg0D3S5+Vjx72UFZRY3fnH0Vext2boiRicuyke+ToWywxYvxbdUn5hgIjiDj9pP49LAbaQWiB5e8ZgKuUGSUWb14C9Pvo1tdS1LFnso5HErvYbWBwWzUYGDq0P3OD1HYB7iaTjdYTj9Ruj0SzNtaAC7Uqlr168bwD6uqH9Ynm7pp7EJ7TFqpS6O3+oXsBjPflz5rPR+Sp9IRCWEZ0xIy5VQWIstApXPvI6R3AyKgC3lDXj/yMtoLK8tOChnpeNbDozjqSSu9t1m0vfpRKj4Wly+QxQxDj12VrfgnYMnUVdata4yiCXjONd1HR9ePc0+56JxED88Ablx763bxIXmiXTCUKCJ/HHnniw7sWSSc50/6TiLqEI+Zyq4HoXVRJV0RJgdWsH1x5Wzdv+jEnhqAFabvLWXgJghgFUQj3khCSVQcsXg1/5N81EWsAsmHGjaipd3HUZtSeW6Agz1JJFO4fZQDz6/cQF9s2PIUtHxdWyUEeM22nCoeTtObD/AQV/GFdD9raarpP1SPdSbg9346BoF8k0uGDG9mmcXfA+N22DFsbadOLH9IFcUKjbIcgR2JoWOgS58cOVbjEcpYpqOkhkYddNwOCMc3KRfIno4Pz5Ngy14prULcxLQAPZHvBRIi03FJIRn9UiL5ZAE57pEFBOeuYwWHGzahuNb96G2tJJNhoVGwK52yriQRDrF1XO+vd2Oe9PDyJDvuriK+4LdpRJufqsTB5u348imXajxVzDIFkMGlL4Uz6Rwe7AHX9++jP6ZcTWw6Qk0Cnbzmh041rYLRzfvRqWvrGjmYkpFiiYT6BzswZedFzEUmEJWIM5lCQbyvVoDcBL/8BLsTfNF9ABgOyUkhw1YItX8CUj2h6+kg0Ux1tITH9hT1gHhtXd/pXQ5n8e4fzckswvyCupCluuDOFn6d6hrSapVKLT21ElAEmXEQzJiYSvSUimUZfJi12SAxGlA7E5GG3bVteFA63a0VNbBZrGumAS/kP5wXq0kYi4a5uCeyz2dGAiMI/WEQIb7TH5URYDf6mAZ7G/ehobyatgt1hVF2S41fg4QErOYjQRxa6gXl3puYjg4jQz57p/AoUIdtwI6YPmsTuxr3IKDLdtRX1bN/vhCKTSXm3MOChMzmA4FcGOgG5f7OjEamUFWocLyEnRyFBbjLJy+LKwufcFBU98DrIzUiBFUeGk1bT772GruL+SePLhqIFuItIp3zQOAHSvZDdmkAWzxRL1Bn0wRxRkZsaCCWNQGUfZD0S1NPrEmI2GAARxGC9Pwbatt5uCXCk8pzEYjA20h5eYW64tKKSgjK0mg4uL3p0ZxY/AeusbvYzYRhUiF7Z8UyOQ7TTmiEOA0WlHnL8f22hautFPm9q9aBt+PW0QkEcf9qREG17tjAwikIpAUZUOMm47jbpMNjSXV2F7Xgs01jSh1+ThnmSLrqYDCShqNm0gk6CAVjkcxMDmCO8O9zJEcTMdUpirIEOQoTPoZON1p2D2FmYbz/ZgPsOlR42NpsMUE2UID/VYiX+3a1UmAAfauS9VgNYBdnRCf9ru4hF1KQiwEJGJ2iIo3p8kW3ypB+x4xN7stdgbaupJKJsOv9JbCZbWzj46CVNToaZL0whvvgxQlRQ1CIw1mLhrC8Owk7k+NYXRuEqPBGaTlLORip6WscEHkZeC1OlDjq0B9SQUay6rZR+mwkAwojSsvgx+Of35qFqc3ZdIIREMYmZ3E4PQ4hgMTmIgEkBIzG27cdMAyCnp4rU7U+St47uvLKlHhoXHbGGgXHndu1LRwKaBRphrSGdbUab6Hc+OeigaREDPqgUKQoJej0AuzcHpSDK7EDLWSuD4NYFe4sLXLoQGstghyljsFmZSMRBhIxi3ISh7IsOcCn1amTaxYpDkaXAOnQplRYnPDbXXAajTBYDCqpPKs2RDgL9YXVWOlNBS6nkyj8UwSgXgYc4kYREUk1mfekDdky8mA0tLsJAO7By6Lg+koiaaSKB3NRtNDWr2a95xP3yHtLZ3NIp5OYi4eRjAVR1bmEvIrApJ1lQ9ZMiCA5t5utMBvd/HBymKkHHUDa6Q0bgLb7xvNNWmsEpt3s6LEB6pYbtyRNFXqys83nbiI4jEMs24ONncWdrd+xeBK79YAdl1XxjPxMg1gn4lpXJtBkEIgZmSkYgoSER1SWQdkUOUcIucvvJj3Y/UmZzbN+47IT0m1V4nFicypSyEFm0dZ51HUVCrOFc7RkmxQXF1IVqTREuhQ/6nbP5TBw1YFVZtjAyiRlDwYtyqLlWhojzVvj3tzrqvEtJY/Ay02bh4vmbrJp6pTU/J+IAOe65xJWEnAgBBMpgScHhkmuw4GA4cRr7hpALtikf3ob9AA9ke/BB4SgAJIkoJMUkI8AqSTRoiyEzKcgGCCwuUOlga6NRVpnpyKXlkYUdWqNs817fNaP6wQGawCMNa6m2v+vBWNO3+xTGwcEJQU9EIERn0MNocEi0sPo0mHHyjCK+ywBrArFJh2uWYi1tbAwhKgFB5RVJBNykhGFaSSpClYICkO/inr1Goq3zfSuDRpahJYJwn8gEiG/NMSBIXqIyehRwx6gwiLXYbVoYPBTNWQVqe1zh+NBrDrNLfP0Gs0DfYZmsxiDIXNrpICMaP6aNMJBWJa9UcRotLWxhqDQAEjGsIWYw60Zz4qATaF87pTTRtcds4gwGQVYLYBBrMeBoOg0h+u0bLUAFZbiSuVgAawK5XYj/V6hXx8CkizVSgsk9Ng+EP+nMFVA9gf6+pY/3GzRVg95FHsG6V0CaSk0jJknua175IGsGsv02f9iRrAPuszXOzxkSKRDz0qwqZW7O5rz39KJTDfH79O604D2Kd0rTzBbmsA+wSFr71ak4AmgadHAhrAPj1ztVF6qgHsRpkJrR+aBDQJbGgJaAC7oadnQ3ZOA9gNOS1apzQJaBLYaBLQAHajzcjG748GsI87R+yDzDkiH/dZ2v2aBJ4qCeSCidbJB/qkRaMB7JOegafv/RrAPsacca5oRmL2I6Lp+z7a5zEeqt2qSeCpkABF7wowmPScElOMqN2NJgYNYDfajGz8/mgAu8o5InBNJ0RkElRX83vK9aUI6Vf5Ku02TQIbSwJMU5hPidHBZNWrNVU3WBGFtRaaBrBrLdFn/3kawK5mjqnEW0pCPJiCwWKAyaaHnvhNmT92zfLaV9Mz7R5NAkWXgJqCqoBqCWcSEmRJhsVhhMlieKYXvwawRV9az9wLNIBdxZSS9hoPZSBmRDh8FuiNPw4T2SpEpd3yDEtALQ4hIRnNsLnY5jEXXLz8aRSLBrBP46w92T5rALsK+dOJPTydhNGsf+Y3lVWIR7vlRyQBotFMhNOQRRkOv1WlJnxGmwawz+jEFnFYGsCuQrhkGotMJ2G2G2B1mp5539MqRKTd8iORAFlzEpE0pIwMu98KvQawBc28Wm6v0PJQBT3ywUXEz5wv97iyO7Wr11oCGsCuQqIEsFECWIcBFocGsKsQoXbLMyKBBwCbVWAnd4kGsAXNrAawBYnpqb9IA9hVTKEGsKsQmnbLMymB+QBL8QiaibiwadYAtjA5Pe1XaQC7ihl8ugBW4Gpd3ycSUXoFfUal5igYVF6FBLRbNAmoEtAAdnUrQQPY1cntabuLAbbL+TzG/bshmV2QV5AxXq4P4mTp36GuhQJ+5hff3phiIFAx6IzQ6QyQZRGinH0APDrooNcZGXwkRYQsSz8ApfkjKgRg6V06nR4GnQl6wVCQT4S+dFk5DVHKLPhu6hv1Xy8YISsisotcl+8rXW/S22DWW3isKSnOfh+byQmHwY20nEIkFYCsSMtOmE7QQSfoGZRJdvMBe9mbV3gByU6vM/BY6QCQlTOQn9BBgGUumHjN6AQqOi8hK9P6KK4MChUZzQmtW+qbJEuQuF/rd2j6cQKshNSIEQqlwK+yFcv/St3R/K+rnJQi3Ca89s6vlC5XcQFWEHS8WRoE47I1Q2lDJTCQ5oHfWo3bqDOhwbsNZfZqTESHMRK+x5ulUW+Cw+RBub0WNqMDU/ERTMWGuB8LtUIAlja+Ens1Wnw7UWKrhE4wQM8gpYPI4C2D+kNARe9hYJezGJi7g765m0iLyUdAjK6vd29FjbsJM/Fx9M7dQFZKM5AL0DFQqkCkBk8Y9RZsLT2ARs82zCbGcGvqPIPV/qqX0ezfjpn4BK6Pf4eMnEBaTCGeiSwIttRnh9mLclsd5zmG0rMQpSwUJYuslEVGSv3gsLLa+SJgpT67zT6U2Wvht1Ugmgmif64T0XSwqKC+UJ9pThwmL+rdm1Fqr4JeZ0JGTGAk0ofRcA/L8kk2+l45zV40ebbCafYhmJzmtRtJzSIjpddFXj9KgL0lITlieCyAfZLrRnv3+kmg6ACralFW1LraUOFsgJG0EoCBhtrDmkk6m8RopAcTsQGI8mMcEReQodXowHP1b6PO04a+QCcuj3wOUc6g0tmALSX74bGWwmH2YCjUjY7x7xBKTS9oQi0EYElzbfJux67K43BZfEhkInCb/DAZrZhLTCIjJVHnbuMxjkUGYDHYeBO/O3MVZ4c+RCIT5g2SDbwCwSeBjxmt/n04Vvs6a6PfDvweWTnFhwIC8NnEBPdZ1UgFmPVW7Cg/gmb/LkzFRtA5dQ4OowuvtPwZnGYPEmKcn0vz0Td3CxeGP0YiG3kkupE08CpnE3ZXHYffWgWjzgARIpLZOCYiQ+iZ7eCNnbTq1TZaJ1aDE82+ndhVcQweSymS2RjuB+/ixuQZBBeZi9W+r5D76JBUbq/D3uoTqHDUcZ/0Oj26AzfxZe9vWFZPshHAei3l6hz7dsBudCKcCuDW5Hn0zt1U5zJ32CpWPzWALZZkf5zPLaZm/yQkWnyAhQCbyYWtpYcYUEx6M2uz5c46Np2SJpbKxpgZhjb6pBjjzaFn9jqbS9ey2YxOPN/4Hurcm9A/dxMXhj9hTbHUXoMjta/Day1FLBPGXGIKvYGbGIv2s1b5cCsUYBu927Cz/CicFi/i6SjcFh/MBhtCKdIA06hxtyIjpjAa6YfVYEWJvQr3Zq7h/MgnDLAEOqSZkHZNWrZZZ0GpvRoHa1+B1eDAdGIUKTHBJuVAYhJdM1cxHh1goDPpLfBZKrC17ABq3W2s3QyHetDk345yew3uh+5iKjqCTaX7YTfaWd50fzQTQlpK/uBgQfBO77cYHXCbfHxQ8tsqYTaYEUrOoi9wE5OxITatr6bRIcJitKHZtwsHql7iMQ/MdeLO9CVMJ8Z4TZDJnppq/hJ4vXz/b1VnV7+c36c+5A8nqr+ZCjLQfx/9/SPPyl2XN1XTnDmNbjzf+C7qPVswFLqHj3r+nudo4aamSczPCGWf20NgN79/9JyF+shjpD+5cfNT5o2TAN+it7O1ZFvZIQZaskS0j33FFo50NrE0yCr5Xn7fW9Vnr7YH/nth4ZQSDWBXs+K1exaTgAaw8yRTqA+WTtq04ZOJkzYLMru9u/XfwWa048u+f8JwuPcBkMmQ2exJf9f69J0H2HoG2E7W2EhLog20zrMZjZ5NCCSmWGuKZcPILGCmpeEvB7A0RpNB1do3l+5l4CSQ0gt69mOSJk0HDdJeaTOkgwRtoDTm/sAt3Jm+jEgmyCb1Fv9OEFBbjHaWHfmKySxIBxQym14b+wbTsVF+Bh0OIuk51mB91gpsLtmLtpLd8FrLIZH5WJZhNVqRElMYj/TDoDeh2tnEJt7RSB9i6TCGwz0YDN19YKImS4Pd5Ibd6GK/KPn7qO8mnXpQIlNkIDmJQGKiIF/uQl8so87Mh41DNa+iylmPnsBNXBv/FjOJETZF5xu922X2srZOBwuT3gSb0cX+x0Q2zvKgsVCjvloNdjhMbtb8qZ/0ewJrckPQ4Y7GRWMg2dG80PqgeUhkoixL1UWgAguN/1TLr9Ds34GRUM8iACuwZYbWOvWLDg00Z+QXTWbpmSGeB2r0Pgv1z+yBRW/ltU4HG7J0kGVAPawIMOiNsBmcPA693giy8EQyc0iLiR8cgmgcflsV9lWdxKaSPZiOjeDiyOcYYVP2IgdVRYBBsfABjuZUB3I1qAcDWSAgV/3f8UwYKcQhLACyGsBqYLmWEtAAdsUAK+SARZfjKRXgNPnw8+3/gU2bn/T8GkOhLogPtB+VSFz1J+Y3IzJk5u8vYDoV8nCqG8T8RhvoC40/RbNvO8Yjg7g8+hmbVWkTJ02AtDTaDGmTXiqoZlmAJd+Yycvg2ODdAovBwZtWPsiqzF7DG+dsbOJB4BH1MyOnMRkdRPdsB2biozwG6rPDSEBg4k2ZTOwE2Mfq32JN5sbEGb6PrqNN9X7wNh8OCEBo49xaehBN/m2sAZIZ2mX2IS2lYaLn6fQ8TtKACbAo+KlrpgOXRz5DLKP6PAksNvn3oNG3jQ8iBCACg5EdTpMH0XQI1yfP4M7UpQfgVsAMPbiEDl8ecykOVL+MnRXH2JR9YeRjDIe7+cCRbwR8LpMPB2tOsTxn4+Nsei9z1DLQjob7cXPyPKbjIwyu5Y46NHi2oMrZwLKhg9Rg8B66A9f4EEIAuKP8KNwWP+LpcM5EXw29Xs/++XszV9kPn/ezLg+wqgmf/O1VzkY2LXusJfwZWUkIlK9PnkYiG2VQJwtAo2crqt0tLEeah3A6gOHgPQwE77Dvme6tdjWDDoTkxqBDWywd4sNh/9wtlv38gCZaI7XuVjxX9yZbGW5PXcal0c9yro5HNVCdYkSlpQm7a55j6w29j9YENfrukfUmmgrh7uQ19IVuQNI9CtQawK5ktWvXLicBDWBXCLD0pS931MJrKeNITGqkWRytexNmvRnXxr/DbHwM0oPIRzXoJ5AYx2x8gkHZbS5hrY02zkIabcyRdIA3oPkRsrTRnmj8KbaUHmAg7ZvrxHhkADOJMTaxpqXEktHD+XcvC7Dk/zRYUeVqVs3iOouqURntMBvsqHE1sdY1EupjcMybCkOpGdyfu8Pm1ng2woBa4ahHlaOBtV4CZaPOArvJyRuuy+xnPxv5cMmvqwbf9CIlxlVwNFixvewwWv27Ec+G+SDhs5axBltir4SsKIimA/w5gUCtpwV9gdu8KcdyQUWqL3kbqlxNIDCkLwDNX427mQF8MHgXV8e/YdM0yXSljcZY59mEl5p+Dr+1gn3fF0c/ZU1uvgWDgL3MVouf7/gPDKzhZICjoCmSmtbXVHQY54Y/wlD4Hkpt1QzYZBoPJWeQEmMsLwg6XBn5AtcnTnPQ1mutf44KRy1HBKelFGuu9Gw6VHROXUT72NcIpqb4oLYcwBJoVjgasLfqJGpcLawtk3Wi1FENt9mLseh9fNT9nzlq22srw6HqV9Hm34WEGMNMfEzVlgUdWwJ6AzfYl0pgebjmVXZh0EJvCLYAACAASURBVOGJwL7O3coa7sWRT3F35jJr5g8fIsndsbvyedbCP+/7DUZC3Qua742woM2zHy+2/RQ+e1kuLiJvKlZN0aS9Xh78CpdHv0AasUfI/DWAXemK165fSgIawK4QYAlo2nx7UO/ZBIPerG78OjNa/Dv4JD8Y6n7kJE6bPfngyE9IZsxN/r28yZv1tgJWp8JaQk/gOgaCtxk48i2vwbb6djEIxTNRBqtgagaj4T6MRnpZMyJT3eNosPQ+Glu1sxmbS/czIJkNFnitZRx1KykUgUsmwRT7Bcn867aUcATxuaEPEU7P8sGATKI1rlaOGiZzIpnwqNGGT2D3/7P33k9yXVea4PfypbeV5S2qAFTBW4IECJIgKXpSEinTrW6pu7e7d2d2J2JnYyd2N2J/2r9hf5iO3unY3plpN21kWqIkSjSiBQmSAEF4D5T3lZmVld689za+8zKBAlCFykJVlgHeoygQwDP3nnvrfvc75zvn0q3qtrtxevRTXJj8EqnCtKnmNYybLk+ywu0Nj5puymJKwENSdRwBRLMTAqQEFbqjyYwvT36NY4O/nqXaJTNjapBTNglhdwN2N1I4tRuD8Wv4evRDjCb7bmObFQzSzVsI4NsaDuCV7j8WAGFc/PTYJ3exYQIsWeGP9vwfCHnqMZEawtcjHwmIPdr2DSRycYk7TqaHsK/5CB5te17G/vPBt8VLQfczldPcvPz0/P8Dt92Db279c3QEu8UGZyc+x2D8qrjVdzQewnhyAB/0/hQDJXC6F8AKu3bVYn/LM9jbfETi3SdGPkAkNSKAy3dGMuN48/JfI5Wbkfc/t+n7AnpfDL6Dy1NfiRuX6Vf8+aA3wa16caTrdexqPARuvD7q/YW4t5/b9HvCTqkRePvq3wmIzr7IQsnMuYFlnP7tq3+PS1Mn5vQuKLqKRvcGPN75CrY27YffRXd7Od3OEGX5jamLONr7awwmLkFXuAm4fXQtgF3MbLfuXcgCFsAuEmDJUHyOkMSQ6H7iAsLF6pWePxK33Md9v8DITC803MrFJBjQFZYpJiRtg0DCFBrGcBe+DFlMyBhGE723Lfy3YrDbMBC/hN7oBWE/TYFOhFx1iKZHRU0rMViy33nyCRdisCbA2tEe3CIiJ7peCWxk4WTVCYmT0gFsuo39rpC4Fa9HzuJ3N/4FM/lISchixuC4sQg4QxJLpTuR7+ZizDhsc6BTwOaLobeFvdJ2XCTpomZceWfjQbQENspCzBigxxEQ93A0MyFeAjIgZwn82wObcTlyCp8N/ErcqLNd7OLW9LRgV9MT2NV4EIl8HMeH3sXV6BnkSox54bG5+w72jSrYF7r/QARTn/S9icuRk6Lunn3NBljak27pT/t+TWcmNoS3CgsfSfSKbZ7c8C1h7rHslGzU0oWkeBLaQpuFkf23M/+32OibW/5Uxr83dh6f9P8SM9moML9DHS8Jm32/98fijqVN7wWwjK23Bjbjyc5vikuXLJysni5WtoXiI9qbAJsv5vDcpt/H7qbHMZrow6+v/FdMpUfMTdPN4w6pXu7AS90/RGfNNgF7zkvG7CliYpvpefnFpf9XBHOzhV3csFCJ/XTXd1DnbcIH138i6VkE57suA1DhQptvMx5pfxZbGveVQFYRcO2NXMSXA++jd/o8CkjNeRSdBbD3M+utZ+azgAWwiwRY3k62NVtTSdfmH+7+DxKD/fWl/4Le+MW7ck5N1SWZGmO4DomRVn7YJN3MxZLL8lbs6U4VMdkDFza64Bivq/O1SOzz/PgXkhYyXwGGxQHsYVFRE2BD7gYBDnHhlgt9KxB2SmZIJe+71/8JiTzBzWw3nyOL3RjeIQyY9jDFN4qwMD7H+PWFiS9EGMRYIzc1ZMRcnMnWa71NwuIIFFycCe2TySHZ9BBguVgzbYcx46GZG/hy6J3b8oC5aFO9TGbYXbdX2C4Bm2rasxPHMJEauC/3MPvHVCKC4QvdPxS3PoGOSuriHcKc2QDrtLvw7rV/upnXS/AXDa5hyFge6XwdW+r3ixqc4MQNF8MTBMKZXEw2Bownv9rzJ6jx1Ems8tjgWxIe2N/6rMR5GQ/9uO/n6I9dEqZ5L4Dl9wlqRzq/LZ4BsnCCGmP6T3d9F9sbDmAqPYY3L/21xLvpmqb4bGD6Gn51+f+7CyQZP+8I9simoyW4CaMzfWYYxSiaxVCgiFuZ6UvcMMx2pXOseur24+muNxD21ON3136MsxOfyZyb8zIAO1xo9W3C/rZn0NO4RzayA7GrODH4AfriF5AzCK6WivjmaTpWHmzVdggWwN4HwN45GgKwu/4DfK4QfnP5b3Atxt25qRa9mY5wR8rFcozoXGk62UJKXJ/8OwJgQcuKi0/ct/PkEN4vwAqDzZPBxm6Ct6mqJoPdJDHh967/MxIlBivFKrytONT+ksT1rkXPYSTZi1yBMVYddptL4rpckLkhIIM1VbRmxSefMyjxZrrX2U96EBjPJlGiu5lxWIIuGVRey4sN+J6zY5+Ke565unxPg68D+5qfFlFOJDOK4fh1tJbc1ufGP5f82rJ6d7HjxPcTEF7u+SNp9+eDv8XJkQ/k2/MxWIfdibev/APOTX5+hxCKeaENkuu8o/GgbADoPqeL1dys2SQtKp6dRI2nCa/1/ImkTp0ZPyabCnpUDrW/Is+S1RIoKZriRuveAOsUQH+m6zsSK+dz58ePoc7XiiOdb6Aj1I2RRB9+fvGvRAX8VOe38Fjb8wK67zBGOmN6Hm6l9igSR36x+4eSs31h4jjOjn8mIQ0qeSn4yxTTSLDgxx1xb+ac7295Go93vCJj95srfyfhkjs9ArcZtwSyzd4u9NTtBTcw1yPnMZS4iqzBuOv8p75YDHaxM966/14WsAB2GQCWbs7vbP93EvNjsQfmX+b1rCyAZTcw46jzpcnc7xSdC2DJ+MrATtAx8wxFgzzvZxYFsM2HRbFKEGeKCRlMpngrxkuAZZyaatYb0XP4qO9fJQbLicZnNgS3SjyN4ExGxcVYKj+xnCArZKkuyY/NahlhgLNZN9nvrqbDsmhSFMS8XoIYBWd0yxIM+C6yICpXKbBJFRKSdsNqQBwPCnf2NT8lLHp45hrOTBxDLD2O3c1PYEvdfsnhJTgxbs13iypZz82ZPzyXQbmJ4Obi2U3fk1/PjR+T9CkyyNku6tkMdj6A5fvpDdjX8gwea3tONg1kqwRaCrroMiXQ0obcaLzW86fCYC9OfgVuFCjk2tdyRLwGJ4Z/h/MTx8RVXA5rME2HLJ+Crnev/hOShWkRWXEjxvxYumVZkILzmcp4irfI+AnOjP3+5PxfiMiJmoTnN/9AXPNnx47h9NhRceGS8XJfSeEax57jznHi2B3t/yXGUwPinaj1NsvPhoRAZrnSJW/aWWu6yJseF5bLDZuZG71AOUyCrOKEz1Ej84oeioKRhXEPcKW9LYC939XIem4uC1gAuwwAS0A50Poc9jQ/JYnwVEwyBmvqJxQRHV2ePCmuxwUXhkXMU8Yfn+n6LjpDW8zKRYNviUt1sVfFABvagr3NT0mFnfHk0M0aw+VcyPJ3zXqyqsR9qQgm46JLjwsmcxsf73hVxDiMtY4m+iUHkosxXex0P9sVVVy7p8kkS6Kucl4nF1rm0XKxpU1dDp8IZ+o9LRiYuYJsIY2u8DZxnZK1MXbNGDE3Aoz5UrizqXaniMAoPmIaDXMke8J7xQ1J8BmeuS7jxPSdWGYSN2JnxaVZydhxo8B8VIqDKEwiuFCxSne55HqWNjoE+0ZvO35/1/8i6SQEjktTx0sAd2sE2W+yP4qLmI7F8WXfeFFoNp2N4MPenwnzp8ipJdApsddoZlwYPFnftcgZAb1oZuxmH/h3jJ1ur39MNoPDM73y91envsZosl82QI+2PofdzYelJjDjvuVcZ8bPKcb68YX/iEhqVAppcNOyu/lJ2UjRZmSYjPnTbhenTiCWGUezr0viwW3BTRKfTuZNZTk3GGOJfnw++BsR9JUv/lxRMf54+yvi8j8x/L64kTmvKs0pl3Q42TJUVs/YAtjFrh7W/RaDrXAOVFpo4s7XSW1bZ1jietzd0zWnKHZhPlRQUmBDVyST85dzR8MUGbrmKERhTuSpsQ9vUxlX2O0FC03wPVyomSbCdBG6eSkwonDErNdzJztmpR6zbGQyO40r0dPon74g7JJg0uzrxKba3WgJdsmiXT6Jg+5sLrCMr7JQBEU+FNYQjCgsoyBmZ+Njwo5jmSlRqtKFyLzRK5Nf40r0lLgmmatLECaIxLNTAm5Md2E8jwyaLuzBxDVEUsMlxmSqZrfVPyruT8YzCaYEEYItRTF8T6UF+uniZiWiR9ueE4Ag2zs5/KEwbs4HcZ+y2IMzhN1NT4qX43L0JCaTBPG7U4No+7CnWYCJhTQIaEzdYnx9MHEVQ9PXJUf1m1v/TNKgZrIxsR3BjRsRVsgi6FLtXb5YDINx1q6abdJfjg1To6hUn8oMi9uW48xxYpybzJabkUw+IYyT958ZPyrM0Jz/NcKYW3xdqPM1S9oWgXZg5iqG41fFk8BYN9N82AfGYjmmrHpG+1Dxzs0WgZlsl6pjvo8bCwrmWAr0xMi7sim7n/SpSn8WLICt1FLWfZVYYDnX+0q+V+17ql4qcb4OSFUixTzBpnyKDSsNccFc6DSb+zUKd/9cbN2qG9liRsRElYLA7G9WwmD5LapuKZ4ioE1mRiR/cX4mYRaloxqWYMw8WNNFyngqc2gD4tLlQk8w5kTkos2FnPm7ZHtmPM6sX0wgJXhQacwTYHSd6UAeYXOMMbNmMVkW28PFmak6te4mSRmiMKgce6S7lK5zKegvYFYuUWhWIiKLZioVfZtlAVcZFCsfJ0VAkxsfboDaQ90C1v3xK8K66eIUoZJikwIXjCBz/My44tyufNqfmxGmqkh6mKGL2pmpSgQcAvprW/4UYXe9VI46OfqhxMaZ2sP5d2eREgIoXbpMuTJPFTJPPiqXqmRfuVHgZpFeAtqc3gEdmowZgw7Mx71Z8rEUJ6cNyTw5qBScme+7VeiEwiyOpZkHbRZC4Xvk3YYmKnvm+LIYCFXjrAxF0dqJ4fdk03W/sfFKx84C2EotZd1XiQUsgJ1lpftlsHcb+raqrZWMw33fM1vNXKnb7M6PVQKw5apNElcDhEFxQZw/sjvrK/PWreU9d9iKJXbl0dvfbB5t5xQWZB4aYB6wwNODCEy3x5nNWrfl9B+y4NlH+ZUr0s41btKaW7UJ5mxLJYNlnqTjQqN/A3Y2HERXeIe0l65ppiDxNCBuhsrjV+nY3V4R2PQf8M/INl/u+WPZWDD+yjgywW0+wC73Ya733d6/W3eUx8WshXz3GJmmuz2xdL5+zXWfKYJrk/KIVIyz7b3xS6IolypUxeUvN3rnWFoAW8nstu6p1AIWwFYFYCs1/9q4rxKAXRstXV+tML0aqrhgPQ6eY+uV+slk23IAQWXbkwo6TRd3nQATXd0sO8jc29mlGSt4yarfYta89qLGXSfsmcprMnTqGm6VHq1uMy2Ara59H7a3WwBrAWxFMdiH7Qdj+ftbPkHGrFy13JdZlN+srUxGT3fv+vzhvnVyz1wn9iy33SwGm0PEyoOt2rRanz+D85tj1WKwVRuhFXgxGezMRAYunx2egBOK7Y76cSvQBusTlgXWggVuMti8Dl+dB6r64P4sWIUmqj/jLIC1GKww2JnxNFw+BzxBC2Cr/2NnfWGtWkAANp5HsaDBbwHsWh2mddMuC2AtgIWm6UhOZWF3qPDWWAC7bn56rYYuuwV0zUBmJi+bTn+tGzaLwS67jR+mF1oAawGspLxwUSlkNPhqXbA7b6+1fOeJIw/TD4jV14fAAiXBOkVnxbwuPwuqXYE35HqgwyWWi7j6c9sCWAtgpZydltcwEyGLtUks1qYSZBdxHkH156r1BcsC1bEAU8MMgOy1kCvKr+6AAw6XXXK0H9TLAtjqj6wFsBbAigXkPNd0AblkqUg7iz8wx1JODrIuywIPrgVY15mxV6KpzQY4vXY43fYHmr1yNC2Arf6cXs8Aax5Uc/ulvPzGD41LwWcwUrcPmisIfRFb0OUrNFH9gavGFzgZtALdZBr0oi67ejnS00LYapjbeucasYB50JUB1WGD3anKr3MtLmukucvWDAtgl82Uc75ovYOrnIZ1x+JvAexS50y5klL5fNelvs963rLAerGAbCYfnt0kAXZmJIfoMuXBrmdAWS9TdHY7q2XvMrDa6M5Zfgb7F9jQnYPDdffL1+MgWG22LGBZwLLAXBagUjo+nEP0vI5svx1znDOxKMNVa8FfVCMeopurZe+qAWyjLYZnG/4Snd1pOF3q7WVyH6KBs7pqWcCywINvAa2gY3ooi9g5A9lBOxY6Ynchi1RrwV/ouw/r31fL3lUD2LASx1Oh/4pNm8fhC6oPvMjhYZ2YVr8tC1gWAAo5HdFrGcTPK8hPqlhqBc9qLfjWWM1tgWrZu2oA6zVS2Kn/Gru6TqKuzQa7S4WiUF14ryGm8nB14jbmOaqmQEOu1WmGNf8tC1gWWMsWKB9MNSu+LAU1onlErxaRumyHll764lGtBX8tm3Y121Yte1cNYFUti9bpz3Cw9n3UdCTh9Kmw0VPMuXfn/JNJq0C1l/JGHTb575W4aFhdAwqZAvIZDVpBMyvOLP1nZCWab33DsoBlgZWyQCnH10xBoioUgG6TdLzMpIF0rw2F6NLZK7tTrQV/pUy13r5TLXtXDWBtWhYtU8fxaOBdhDvjcPoVU7I/D0M1gc6Qcz2dThW+Om/VxVHM18tni8hM56TqDNum6xBwf4gEkOvtZ8Fqr2WBVbFAuYAGP05RUzFjoBi3IT9lQzGiQssqS469ljtWrQV/VQy3Dj5aLXtXDWDteho92fexf8OnaNhgmBWNyqR0TgZr7tqKOQ3JSE4YZKjJVzWQJbiyGER6Og9FhZRyY/3gm8zVYrDr4MfCaqJlgRW0QNk9XALYxFgOiRs60tcd0HJSTWbZrmot+MvWwAfsRdWyd9UAtkaZwWO+f0DPpgGEaukerszlS+ArZDXEx9KwOWwINi4/kxVwzRSRjuWgqAp8NW443IwRP2CzxuqOZQHLAtWxgAFZpyavpBE/bYc2Y7sp31iOD1ZrwV+Otj2I76iWvasGsJKmU/+f0LE5CZdnceBFVwxdt6mpDBRFha/eBYeIpJY+tGVwzcRz4hImc3WwlNsyvHvprbPeYFnAssB6sQCLS0RupDF9DsiPLT01Z3a/q7XgrxfbrnQ7q2XvqgGsWSrxP2LD5jwc7srY6+0TjMKjIpLRnFSE8YadpZqm9296nnSTTxeQSeRNcA0SXAncFrrev1WtJy0LPJwWEIDtTSF+EcgPO6AXl88O1Vrwl6+FD9abqmXvKgPsX2JDd+a+46hksmWQ5XDy+DenuyxFXtwAmzHXIrLJvLBVb8hZYq4WuC7Okuv47mWMkVVsBWt6VWyq9XajVG8ayCFyRkduxGKw6238VsJjsKYBlgZgwnae8VK6dBWezuEQxjlnus8cI8xTbGAoYKWVfJYpOIAn6DDZsMVc1/PPxD3bbqYzm8Wg6bngBot/JjvV0mkvVTlDUPKpDfGQlH+45L9t5YMeSnP3gbX8w9MxAuz0YA7R0wZyI+qyKYhl5lr1y1d0IlXL3mseYM3Jxpishlwyj2JBh6GZCyfVv/cCSbN4BI+JU8B/VJcKt59nUz4cJ3ys6AxdAx8rAyjnR7GoQcuXUr903QRYnXNJh140j1Mj6C33JW3QDNjszJVkWhqg2GyioOef8Yxg1U7Rn3m0krXHW+4RWLn3WQC7crau9pceaoAtgyzzZHn8Gyc2WYiZUzu/D85kr7yPi5oC1aneShCv9ohZ718xCwioUX2e11DMFmUTppUBVtjq7Rsx84eJ4Lb8PmODHytt6kwDlCuEQUDVbreJOp5HuVG4Z3eaueGWN2XFpsuyfcgC2GUz5aq/6KEH2PII3FbOcMFyS+Wyh+SvVvnDVZ/Fy92Akvu3kCsin9bAX1mJS+aITYEQVPm/tRAINRm0ueczvSosvEKRndNjelXkSKu10NTlHqcH9H0WwD44A2sB7IMzllZPlsECwlhzmgjXCtmCVOIiOkkxE3o21jJQMXQh7mrhu1AdBFk7XF7HTUa7DCayXlFlC1gAW2UDr+DrLYBdQWNbn1rDFhDWqiOXKiCbLKKQL5pYWnazrmVgvdOspcMlyiev2Ow2eEMOAdpKC7Os4ZF64JtmAeyDM8QWwD44Y2n15D4twB8CqsGzibyUueQhDSISWuuMdaH+irBZl0O6VYcCj98Jd8AJldXP1tOGYaF+PmB/bwHsgzOgFsA+OGNp9eQ+LCB1qvMa0vE88qkioBhS5vKBkuGWxFqKoUjtbo/Ux7ZA9j6my4o8YgHsiph5RT5iAeyKmNn6yFq0gAmuutSOJnOlcKmc5rIW27ukNpVAlkotip98YbcFsksyaPUetgC2erZd6TdbALvSFre+tzYswGpeBQ2p6RxyiYKZ+6wuPa3F0BUYBQU2yUk1oGMZ69wt1XJlkNUBl88Bb61L0nusa21ZwALYtTUeS2nNqgDsK2/8yLgYfBojdfuguYLQF5EVb9YiXlqpxKUYzHr2wbAAFzEeKSiVvJYBXCVhy1CRT9iQi7kQbqyDM5hBOheFAZMdr4mrVLCCIVjGYz01Lqh0iVvXmrFANQG2Wp2sFpBUq70PwnvLOe535rorFsA+CMO7fvvAxYC1o5ORrBy1uVTmqhg2OB1+uJQwkmNO2I0adG7pgOFI48aV08giAmeA5TR16GuhVJ0wWd087CLkhifgKBVXWb9j+iC13ALYB2k0q9eX+YrIWABbPZtbb17AAnLQQ7aIRDQr4iZW4ro/QRMZqwI9Z4NN86GluRvNLRuhaB447E44PS6kk2lcOXUZsegIQl06dHsS+UISml5YfRWvYUhpR1Z+8te6pYa2pSxeGz8+FsCujXFY662wAHatj9BD2D4uXqlYFplEQWr4mmUxF3FJuWEbHKobNsOL7JQDtmIYm7dvRWtXM1Q7D3sw/cFkielEGoloAqpPQyI1iqGhq8gWYlBdOqBKwuoiPr68t7JEKEuDegJOeGvc5mbDulbdAhbArvoQrIsGWAC7Lobp4Wkk2SvVwonJDCv5QlF5OMNi+q/AyNtgM9yorWtHONAOPe2Bx+NDbXMYTrd5IpOhKQKbNhu/Uj5xR8dMLI7LZy8hnhiGK5yHzZNDUctCl8TbxbRjme4tuYpZSpGqYpfXvvgNxzI1xXrNLQtYAGvNhkosYAFsJVay7lkxC3DhYtyV1ZpsjsW4hhXYVQcU3Yls1A4narF52w40tbZCtRGUbLeKN/AIw6J5HKLq4Ik3txgqaxrHxmOITkaguDIo2KOIxkaQzSdgs2slIdTKMlqWhqSr2OM3U3dYx9i6VtcCFsCurv3Xy9ctgF0vI/WQtJPsNT6elqPeyNqMhVgjPagaY60O1Iab4XPUIz3pgM8bRtumVvhDvjkZn15U5GAA1U4F1e2AycVTKxSh6UUkZqLou3EV0dgw7P4cVHcBulEQ1ruSl1E0JP/XV0sWSxa+kl+3vnWnBSyAteZEJRZYVwDLNIuVXtgqMaJ1z/JYgIejJ6NZZGZyUgS/EpesUVSQnVZhK4awY89+NDS2wtBUOJwucQfb5ovfMheW2DqLvd7ZC7Ynm8pgbHAck+NjUNwpaPZpZAtR6MjBqMKRd/NZUs601Qyp8OQLucxiG9a1ahawAHbVTL+uPrzmAdam2GBT7OLmc9icKOp55LSsHJ691i4ekiYGpfoTi2+fHLLGdZMnrlTIkPg9G5NEwUL42s3n5Jh5xSav0+Vc0sW3Z6Xty7Ncp0dSUtCf56YufCnQs24kR33wGPXY8/huNHY0wO5QFzxj1Tz6kAKqezNRtiWbymF6Mo5YJILo9ChSxSGoviQUxwratJQba3ep8IddcLgsRfHC86N6d1gAWz3bPkhvXtMAS+AIumrR4GuHzxlEwFmDSHoMfdMXkSkkKgahlRgwgpnfUQOPw4dcIY2ZwjQMQ6v40wr76qyBXXUhXZhBtpAGYfrelwK33Sv24UZkPNWPXMEUBzlsLtR4GuGwOTCTiyFViN8nyBLAbaYQaA6QvgXk5jFx5um7pWpLdN9Cg0aB0EIbBoqbMkXERlOwUylbAUNToELRwijEm2HLetDS0YjOra3w+t3iQrXx/+YhejpjsDddxHNYWcS7hoB9JpXFSO8EBm+MIBadguKJwN+cht2jV8SyK54EC9xIRTG7E6jzSJUny028XJZd/HssgF28zR7GJ1YVYMuL83wrhaqoaPF3Ym/z0wi4amC3ORHPRXB67BMMxa/Koi8ClhJzLB2tfvs4ltigZmgo6oX7BJmFp4bL7sXuxsNoCnRgOH4DF6aOo6Dlbj5oVlG5nS0RVAUEWLFH9WJ/6zPwO2twNXIawzM3oBtFYWK6tL14V9v5d35nGAdan0PY3YALk1/iRuwcNK2AsLcZ+1qeFhS5NPUVxhJ90HhkS8UXz1dV4VTd8DoCMHRNQLqg5W9jyex3yFUHl90jTFq1qbDbXHCoLgGDaGYcE6nB22wxVxPoAk1O56RyE0+VqcQ9rBgqUAhDVTZChR9OhwNtmxoR9HqAgg6X2wHHXG5i5sYWTQBl2sudLFbycPNFZFNZZPN5JNIpDPePYXI8inwuBac3Dn99ykzjWUFPLeeQXjDgD7vhCTotN3HFc3n5b7QAdvlt+iC+cdUAlmDotHuEoXrsPtMzKha+tWLxnqArjG0NB4SlTWenMJ4axI3oWYzM3EDY04SOmi0CvjbYhJHcefFtRaOIydQwBuKXkcyTWS7EDBc31ASWJt8GvNTzI4Q9Dfhy6D1ci5yRY8gIoHQXZwpJYd38M14ErxpXAwKuWumx3xnCk53fEkZ6avQTxLNTcNrdUG0OXYf6egAAIABJREFUTKVHZUORLSRvgpsJZna4VA+2NTyG/c1PYzo3iQ9v/AyZYgo9dXsFsCdTIzg+9C5i2TEUdU3A+s7+cxKoikPeR8ZWNPLy+7CnEQ3eVjT42qSN9BwMz1xHQc9LH7gBavR1yPfZb2502F+n6oHXGZDvXIuewcmRD5HIxe7JyHVNx/RYWgr7M/e1EuBiqk0m6oEdm9DU3SVg6va6oOQ0ZMaTCAX9aGivhcfnKrHqWxOEwihhsMxzLU05AphhKMjnCoiMxTA+NImMnoXm1JHKZFAo5GFojA9Pw+WOQ7EvZsOyuDk1591k1UUdbr9DcmLltB3rWhULWAC7KmZfdx9dNYDl4kzQ3N7wGOq8LeKGnGtVddqcqPE2iMvz0uQJnB77FNPZSam0Q+Dd03wEPkcAyXzcZKizhoDrpkv1IuSuxWD8Kr4YehtjyX4BmfJ1k/UqEIZMkOC7BYhgwGazkx8LWJAF3w3gCrzOIA62vYhH256XvyYIpfPJEgN0gQt37/R5nBn/FNlCSu5xObzYXv8Yumq2C6gGnCE0+jvk78eSAyUQM5AtZtAXu4TrsTPiOua7aLuwpxkNvla4VDd8zhpsDO8QG16ZOi1m3F5/QDYe/fHLGIpfQ66YRaowg6nUsDDRMtBLKT5HAG2BbhkPbkD6YxeQ03PStt1NhwX8yYqvRs/g3MTnSORjYg9uanzOEOp9bXA7POBRa3xXV3gHNtRsRTQ9hhPDvxOQzRbT93QTa0UNUwMpKCrVspUBhwBsxA0Vm9C6sxsuAqmiQMsWkBhNgPjXvqkRNbVB8TjzjFXVzvisGX8lwAp7ZdqOpqOQL6BY1BBPJNF/bRiT41Ow+WyweWxmTF0HjGIOqhqF0xOHoi4MsGUvjVqa35KDK8JlM86u8SxYxs4rYcKimNbhYGWnOrcZh7WuVbGABbCrYvZ199FVA9jywl7raQbdjHO5d3lP2N2IPc1PiMDp69GP8fXoR8gV0+KC3NP8JHY1Hka2mMS5sS8wk48IAJUvYZb+DXi84yVMpkZxtP+XGEnekPQLYZGwwe3wCXOjC7YzuAVBdx1GE30YTfaKe7bW0wK/IyjsOZaduAucyTK31O3HofaXhXGeGPod4tlJiZ4GnWHsaDyEoLsW5yc+xxeDbyNTTJrsz2YyxLCrAe3BbuxqPizt+XLoHcQyE8jrOQH0vJZDOj+DZCFearchfd9atx899fvgsftFzOR3hOB1+iV2WzQ01HmbRBA2lRpFXstK/yLpUVyaOoGxRL+4i80xCIodt9Y9ArfdD83Iozd2QVg0wXJv81PwO4OIpMfRP30JQ4lrSOcZ/zaZOL/NfxSbCp8jKJuGHY2Pygbh65EP0Tt9AWky7wW8BiyJONWfgOriuypBG4KkDUqRDHULAo3NUB0OaRPdzcVcAUZBh8/ngVNRoSfz8HqcCNUFxXUsuxCpNAFoxSJmIglMjU8jhzzSxSxi03HkcjkoTrOSlIjF8jqy8SRUWxS++jTsC7iIbYYNHnsAdf4mBNwhia/bbebmgd4EhhBm0tOYSowiY6QWjKlStMw4LJXRgQaPVTpxFZdbC2BX0fjr6NOrBrDm4syFi/xwjgVVdC52bKrZhee7fyAM9dP+X4qbkkyVsUECw46GQ5jOTOLY0G+EMc1W3xJgO2u24qXuP0IsMynPlwGW33Tbfdjf+iya/B24OnUaAVcYW+sfwWR6GB/3/StsULG7+UkBq+vRc7g89dXNWCKfd9jdaA904/GOV1DracJXw+/jzMRRYWtkmR3BHjy36Qco6AUB12vR0yjot+KyvCfkbsCTG76FzeFd8t2B+BVE0+PCtBOFadjFdesQgMppGfk+3bBBV518kxsPbhia/Ruxs/kgiloeI8l+dIa2YiozgtOjR+XvCYLpYkI2CdliSsCFGxt6AR5tewF2xY5z48eEfZKxXp78CucnvxR3r1v1IJGflg0MmTBjw7MvEWi5a7G38Ulsqd+HvJbH16MfYmD6CtIFehaK9xakGUCeBR4GkwKwqBBg+V2H2ghvcBs8gToB+ZuX7LMoClJQSOeRGJ6BQ1ewobsZtY1BQLMJI4VdRzKRwrVz/RgbmYIaUmDzqSLMks1aaWqSnWs89H0qIQAbaM7AcQ+RE7/LDcfe9idwsOdZ+FxBiVGbP3B0RRuyWUtm4vjk4ts4PXQMReXW3JhvDWGqDp8NNfikqlMlrvR1tB6tm6ZaALtuhmpVG7qqAHvvnlPAE8QjLd/A3pYj6I2dxyd9P8eMuCeN2wCWjO+zwbcQzYzexWDp5ny5hwA7dRvA8tsED7JjsuDpbERcmc90vSHil99c/Xvoeh5Pb/yOuPCOD7+HG7HzAu68yCI31uwUt3CdpwkXJo/jq5EPMJOdEncimeG+liMCXoPTV/Bh788kRlpmcjQ82efOpsN4rPV5BJxhxHNTAs4UPBFsL04eF7cx45xUAl+aPI6hmavCPn2OGuxrfkqUwmfHP5PF/GDHSyhoWXEpE+gI0idHPkKjt11i2YMzVzCSIIPXpP2dNdvxxIbXUOOux5eD7+L85Bdo9LbhyY2vC6ieH/8C5yaOIV1IiNuc7sw7hVoE5jpPKx7teB5dNTtQ1HLi4uaGiP9OpUcQSY8IAy9qpu3uvIhj+XQBsdE0VNcizns1bNBzIbhcW1Db3grV6Zzz/XSr5pN5GNkiamr8CPo9yMbyKOaLsPsMxFIJDPePiqBJ9ahQ5vC8EmCNoo5cKg3VFoOnJgG7a36VuACsPYiDG5/Hi3u/i5CPsfbbN5Kcx7HUFN48/nc42f8xCooZ277XxdxcVnWqafRaSuKFjFXFv7cAtorGfYBevWYBliKg9sAmPLfpD8SFy1geQYwAYoLjLQZ7vwBLRsG44wubfiBiK4JgV3g7Au4wrk6ehl11CgCNJnrx7vV/xnR2XACcCyVThg60PS8M+XrkHM5Nfi4AyVxUvrc90CPMmwzzxMj7wg7zWkbaXma/PbX78ETHqwi569A7fQlnxj6FQ3Hgia5vCmhn8gmki0kRKlE0RXablPQfHR6HH4+3v4zO8A5cj5xBIhfHvtanxKXcH7uInvr9GE8O4PrUGexsflzY0umxoxiMX5EWtAd7pG/Nvg5hql8Ov4OZTASq6kJ37W48teFbEtNl3PjsxDGk8kzzueV+lz6oLjT7u3C441V0hrdKvzKFlLiEC0ZOWDwZOMfn1Ngn4mKmu3ougM0l84iNpeFYBINlDDY17oTN2IiOvVvgCnjm/dGUthv0CCvQkgWMnR/DTHQGvjYnQNFx0QT/exWPYNwURh42NQancxqw3TsGq8KO1kAXnt3xbezbeBhet/8myLI9yewMjl//GO+e/imm8+MVxWGlbGJeR6iZAOtc0K38AK1Va6orFsCuqeFYs41ZowCrIOiux5Mdr4pYp3f6Mj7q+xliJYBbLoDleyS9pukwwu4mXJr8CtHsuLjxmC5DAKv3tkj6C9kpY7/li+BBkKMwiqwzX8wIcyXIhDwNeKLjm9hcuxt9ZN79v0Rc2KsJUATgOm8rHu94Ge3BTcJUr02dk5jsvrZn0errkHddnjolGwumJvH9VPeW32G3OYQxUlylqg70Ri+gu36PABgBdkv9fnE1Uz1NV3pf7CI+H3wL8XxUYquHO16T2DEFWZ8PvY3J9JBZ0F5s4kNP7V4Bf9hsODf+Gc6NU9x0K7eXGxz2j7HnBn8bZrJRnB3/FL2xSxITp4iK4i3GdmnfkUQvvhh6B+NJxn9vZ37lAv/Ti2Swhq4gF/PCjs1o3rYRTr97wR802i+f0jB1fRLTE+Nwhu1QnIz7cmDuXXRCwC2Xg2qPwumdgVqBitgOB9pqNuOZbd/Enq6D8LkC0sZENo6T1z/BB+d/ifH0MKBUpmyXNhQMhJqYC2sB7IIDXqUbLICtkmEfsNeuOYAla6IydVv9QRzueEnERUf7f4WB+KWb7tm5APbY0G8RTY/eFusjCHbWbMNL3T+a00UsbFJR4LC5BfQYHyXIuB1e7Gg4iEPtrwhAfdL/JiZSA7cJnMpMVFhPSbvMtvtdYextfAKPtL2AWGYMH/f9HEMz125re5n91XvaBITSxbiAJYGQwES1r0N14nrkrLDf2cBenn9sd9BZj5e6f4iWQBeuTJ1Ca2ijgD0BdmvDAclZzRUzcKpOcSNfmDwhHgCCc2tgk+TQMkeVG5ey8KvcLxbM2Fy7D4+1Py+biMtTJ3F+/BhiFHAZmgi4aJ+OUA/Gk4MijCLLlUpbelbUyHSntwW7cajtRfnmydEPJceX98y+xEWcLSA2nILdWXkMlnxURQO8/m3wh+uh2OdR1ZZTkEseWq2gI5tIIzIxjnwhJy5Xem8l/3YekKWLWM9ryEQTUBiDbcrA4a4sD5ZHD7TXbMaRba9iZ/t+GePTfZ/j44u/wVh6kFriipcVxmDpJg41mjFYq9hExaZb1hstgF1Wcz6wL1szAEvQoSuY7I/CpX1NTyFdnMEXQ+/iauSUMLjZAibTRfwU9jQdFpckGdZMLnrbPRRQsVDFIaqI06M42vfmbSriO0eViljGPzeGd+KJzlfFbXh8+F2JzdL1Ol81opttd9dLsYk9LU8hkZvGieH3cCXyNfLF7F0in3L6BoGH7lq6ZKlC/rjvTck7bfC3YiB2WeKi4lado3wi2fcjLc+iNbhRXLMt8mtSAJa5qUwNIcgNx68LUJdV0GZ7KbhhSlLxZsrObHuICMzhx6bwLuxveQYBVwg3oudxavRjiQ8TkAKOsBSYCLnqRQVd524U8DRsCi5PnhC3dp23DYfaXxShF9l4b+zcbZuN8jcLOabpJBblImYlJ7utAd7gdniDdVDUWSKn0osJ3kLMdbNYPqtKkgVmCLBjBNis1PjVpaqTCbAK6xRLQapZLvGSyIkAa7PFEGxcXCUnB5xoDXVhRxs3PgWcHTqOidQwDCyc6nPbZoTnwxoKgo0euDyWyGm1VmYLYFfL8uvru2sAYBnLcwibYlGDnrr96K7bjXg2gjNjn+Di1Feiep0d/yszWKaQsIqR1+FHPBct5cHeHickQ6TrlYUaPu77BYYT129ja+XhIksLuevREdqCfc1Pyh8TtBmfpMvzzu+XnyPzpcCo0d+Onrp96K7dh5nclIDr9ekLyBfT8z7Ld/BQcOYCH2h5VmosH+37pYCW31UjgqnpXERiobQB03XoXuXvqSymyprlGdl/gvKeliMCxgPTFDntF5C/OvU1pjKjkqJDsKVAajZbvdd0JcgSxGmTbfUHBJAvTHyBvukL8i5OHgrF9jYdwY7Gx8SF3B+9gJ3Nh+FSXeiNXZRYOdk5Ge6JkXelaMbsPOTy91lgYmpgRo5iUyookyjP6TYUUgE4Hd1o2NgBu5sFJWbtg8yy0FK1iU4GwV+Vv9cQH45hcmQcNo9h1j2W5FTzPo2Mlh7jEuCarJ45sAaK2YwArDvItlbOPPkO1WBM2iWbrQLd/crinmfbKNiyqzb46600ndVcai2AXU3rr59vrzrAEihaAhtlAd8U3s7Mf8ndPD36CYYT1yQ1ZS5wk1zQ+gOSd8lVcSI1ZILZLNuXY6ltwc2iZD0x/L5UgrpzgSdzbvJ3YmfjIWys2S6KXabkXImculncYa4hJeBQ/but/lHsaHpMUl3Y9jPjn0nbCXbzAfNNgLZRCLMJj7e9hHp/O25Ez2EqNSJCJqfqEqDlr4Mz13A9ekbcxcxXZX4v02nYdwJug7cDm+v2QDMKUkyixd+F6VwUVydPistWcMfQMZEekvfPBXJzT1tugJySZ0uwTOVnkCqy4IUZM+Q4bKl7BPtbnpb/vjx5UlzWXTXbpA5xKp/EWLJPNitUMc8uHzn7ewS16HBC7GWzV15oIjXphqp3oX1Pz02Rk4R4dR7WfkdFqLKLOK9h8voEpobH4Ky1Q3XP+p7OMopMhTEZLQtf3FYhjJWc1BgcrumKCk3cadMyKa6osMQdD4vGStOFufJcWLvzbsa+fpae9d1SC2DX9/itVOtXHWC5aBMoGSslG2QaCdNhZrIRSQ2Z71QZs5pRE1iognHGaGbsbjcuCynY/cIuGY+cSA4iJYcE3C4oITB01+6VeCIZHkGCop+FAJJK53pPqzDQkKtWYq03YheQzMeEJVZyIk45Hst82q7aHRKTlZJ9ilnYne5Aqo8pRuorqXCZA9tdtwe13mbJbxV2RMWuaqap6Mx7lbKH2s2yhvxzum9pWzLccrpRpRPNzFk2qx/Ntp+koziD6K7bJxsltsduU8F/snpWYtj905clHl0usTjXN8nMElPlg9ZLpwot1DjdhnwqAJfajfquDjikJCJEBMQhVuQw9btzrFluMD42jamRMSguHQpjr7MvvVSEooTPenm6GDqKmbQArDuYgOpcJANdqD8L/L1Zi1iHt3xkXYUbkSV+1np8DgusR4A1N9nVPcd4PkCxJtHtFlBeeeNHxsXg0xip2wfNFYS+CDVFkxrDNxr+Ehu6M2ZM7R4XWaDPHoLL4RGRESsR8deFKv+UQYXFBnhvubThXYyB7tTScW50r859IgwrOnmlHCNBKKulpSbvgifAsE6BzSEFK7g5oMCooC/MWu9qYyn+TDc12Wh5kpo/C2ZhgaJRuHlYAeOnbCuP8av4Kh2DR5BjMYpKwL/Sd5c3CfRG8PQeio8I8uKONorS7oUYs8RFkwUkJzOmqreiYk42KEYd3GoPvOFGUdWyJiLfJclQ8009w0A2kcHU6JgZH7/Xua5lRssyibqG3HQCNjWKYGN2xU/TEQWxZiBQ64En4Jy/f5UOnHXffVvgJsCe0pEbsWOZy5vfd7tW60ELWBdn+RUDWDbr5jmoJTBZXFOX726pE3ufO7ylPLt8PVj9N8kPmrDcRe6UeYINqzmNpCROWlk9YhuMQhBaqgVubyNqOsJweliP+N52MHQd6VhKAJYbF7Dg/3wX+1IgK2Ztag2FVEIYrK8+B7vrVqWnlbA8wVW1KfDXeeD0WArilbD5fN8oA2zklI78iGoK6ZbpWo9gJR6uynbFy2Sl9f2aFQXY9W0qq/XLZQEuWjOTGeSzRah0f1bAYvWcA6kpDxQ9jJZtm+ALh2AYKhSbzQTpOd5BsIz2RzA5MgZ7QIHtHl4WCptYalHL5uDwaLC7MlDVJByegsRnV+oyxVo63D6HGX+1TtJZKdPP+R0LYG83iwWwi5uOFsAuzl7W3ctgAYJIJpEXkGVOakVF/zUgn7FBz7tR09IBl6ceuaQKu8MDb40PdhcDsbc3TitoiPROSgzWHlRvFzmV41Ql97yeLyIXT8AopuCpLcId1KDaCoCtssIQy2AWeQXZKwPgchasuIcr2H0s18et99xlAQtgLYBdyo+FBbBLsZ717H1bgKfqxMcz4PF1oiauAEfMs+xV2J1eKJofyUkbbEYIdV1t8NUG5RAA8V6VXFh0ESenZjA1Og6d5Q5ni3F1yEk8eq4oB6rbnTnoORaXyMDh5e/pFl455iqGLKfnuFQBWCePqavALvc9CNaDC1rAAlgLYBecJPe4wQLYpVjPeva+LUCmlpnJIxHNltJkFoEkBFBdRT5hg17wIdjYDl9NE4yiAzbVAaffJW5jxtlzqQymRlhoIiMiJ0kPAiBVnqIJaPk0vLU6PDXM980BigYbqzwtojn3bYQ7HmQhDF7eoAueoFMKZljX6lrAAlgLYJcyAy2AXYr1rGfv3wIUO+U1JCJZaLkilApZ7OwPiqJTt8PhCkFVQsjEXIDhQ7i9Ad6wX8A0MTmDyMgEdJWpYATWIhzMcjKyyMXjsNnT8NTopXKIK+sOvs14TM0pGnC47fCHXbC7LHHT/U+u5XvSAlgLYJcymyyAXYr1rGeXZAGmo2RTRaSm0tBYI3gesdK9P2KeNWzodmTjKrSMDzWtG1DT0gw9p2CqL4ro+CTsQfO8WC2fhb9Rh9Ofg6KzWlMBNoqYKqt5saT+zvuwFJYwD1j3hFxwBxzy39a1+hawANYC2KXMQgtgl2I969klW4Cu2lQsK6InljK8b1GPxC8VGJoDLl89XK4GpCZVxIbME5DcNUAuwZNx0gi0GHB4ilAqPNlmyZ1c4AUsvsGCGe6AE74at1kr2brWhAUsgLUAdikT0QLYpVjPenbJFqBwqZAtIh3LIZ8vzptyU/mHFCnMYehuJMdtSE0oUP0O+OpY8ikBu6MI1a1XWOCi8q/e751k8dxk0DUcrHPDYQmb7teUVXnOAlgLYJcysSyAXYr1rGeXxQJydmu6iNR0FsWCvgwgy0wXBVoeIoRSnSocPh2Kjax1WZq8PC9hxaaiDpvDDn+tS2oP3zeDX54WWW+5wwIWwFoAu5QfCgtgl2I969llswCZXC5VRHo6B03T5bi5paKhmdZjFhpWVjrlZgHLsL8s6G+z2+GrccLls+KuyzaZlvFFFsBaALuU6WQB7FKsZz27rBa4CbLxHLiwSY1hUs61xDqXocc8SN0o6lDtdnhrnHD7LXBdBrNW5RUWwFoAu5SJZQHsUqxnPbvsFhCQTRclR5Y1i6U0253H0S37V1fohWTUjLmy1rDDJqUQXV67pRheIfPfz2csgLUA9n7mTfkZC2CXYj3r2apYgPmtrFMsIJvlKepyfPD6ZbNS/dCQ039sUODw2KWQhMPFWsoPGD2vyoxYvZdaAGsB7FJmnwWwS7Ge9WzVLEBAoro2lyqIAKpY4DEmPMmDp+StD7exGQM2z6zlqUM82IBF/JmOwypN1qkkVZs+y/ZiC2AtgF3KZLIAdinWs56tugUYryzmNGRTBfnVBFqTzQr5W2MxWuKpQrZKXDUMCR+rDlXqCrt8dthdquUSrvqsWb4PWABrAexSZpMFsEuxnvXsyliAYKUbEpPNZ4rgQQFkt3LyjEiEZwmOBXRXQBclZ+GWLvkP84xh/svaUqqqSJxVdalwulXJb6U7eE2lCa3M6K3rr1gAawHsUiawBbBLsZ717IpagKyw7DomyPJf1u9lJST5lXmlclPJNVsloL31eh61R3BXYOO5tHZTkKXaeeKPDQ4n/4zVqcx7rGv9WcACWAtglzJrLYBdivWsZ1fNAiZbNM9PZbEGAVkNIiTiP7fo5fKzWQHYsneaKmcbAVaRuCoBtRxfFUi1cHXV5shyfNgCWAtglzKPLIBdivWsZ9eEBURMZEKeKSpa6auEpBagrrThq/89C2AtgF3KLLMAdinWs561LGBZ4IG2gAWwFsAuZYJbALsU61nPWhawLPBAW6BaALueY/JS/MXSFFQ07y2ArchM1k2WBSwLPIwWKANs9LSO3IgdRilLbC3bgvqEal4WwFZuXQtgK7eVdedcFijpiSwtjzU9Vs0CVZx8twDWQG5EXTcAWy2Qnc1c1xOLrZY97pzzd9rEAthVWxXW2YdLhRNEpcsTaqji1czyf1JQQVHk4BrrsiywUhbgAUmcc6LgZiqU5Bmbqu7l8mBaAHt3DHalxne5v1NNkJ1vs2EB7HKP4gP2Pk5KpsIU8wbyWR35FFDImQXruYpJrSKdB5iry7aoPWAmtLqzzBYo5yFTOS4bO+gs8wHVrsDpVuDyKnC4bfJ7M2Xq/htgAawFsJXMHgtgK7GSdc9NC5CZakUDuYyObMJANsNKRR5ohh8G3NAVB4sCm3mepUpGVs6nNYFWzALlOOPN+adDMXJQkYZNSUFVC3D7dXj8NjhcrKxVmquLbKAFsBbAVjJlLICtxErWPQKWPPA8l9aQSSjIZpwo6gHoCACKAzwPxkTVJdCCxdh5do5rpc+tUNMqbc6y3CeAskDHHrR+Vzr20u+ysIcnKxBss1CVBOxqEl5/EZ6AIqcXkdEu5rIA1gLYSuaLBbCVWOkhv4fHxBULOjIJHekZFblCALoSgqG4WLJ+RazDuBqPdOM//J/NUKAZGuw2O2wL+PqkupM4DM3Ta3gxPqzzvxe3rq5IX+f7yE0bMJ4oFaMUGJoOu8oxmKcjPH2IfZfTBtZhv0tDZJPRL2/hFOi6Brtqvyst5GbdZxvnhy4lNPkUbSBjTyPSdWykYcc0nM4U/CEdLr8Ku71yNmsBrAWwlSwGFsBWYqWH+B66hBljTc8AmZQbBS0MHT4Yyj0W9eWyV2lxtSs2eB0u1HtDCHr9cDtccNod0LQiHA4HHLZ7gzxrEXOx1XQNuUIB6VwGkVQc0UwCBV2DRuhdSkBuufo713tkYwGoig0+pxsNvhACbj88DiccJRu4HE6peTz7KpM83dBRKBaRK+SRymel39OZJPJ6AZJZslY3GKUNFcfe7/SgzhdC0O2VsXfY7chrRbgdTthn9VugU9flX9ojXyzIeKdK4x3PppDXiwK2ArRGETbE4bJF4Q3l4QvZYXeoFdnEAlgLYCv5sbcAthIrPaT3cPNfyGpIxoBUyoeiEYaheM0Ya5Uvrn9cXEMuHzrrmrGhvgVdja1oDjcg4PHBLqBqCqpMjJgfKco1iMlmuOhGk3EMTI2id3wYg9ExDEUnkdXzMNbYIee0gQM2hL0BdNQ2o7OhBRsbW9FUUw+/2wvVpgorE4XsPP0X3mYYyOXziCTjGJwaQ9/4EAYiYxiZiSBbzEFfS/0ubaqcih213gA21Jn97mww++1zeaDabPP0u+SfKFfH1A3ZWEwlYhiYGkP/xAj6I6MYT0SRLuRNdbuiQdWTUJVJBGpy8IV4IMPCIGsBrAWwlSyBFsBWYqWH8R6Ca15HMmYgmSC41pbAtcqUp7TA+h1udNY2Y3dHN3Z0bJbF1UnGotpg4zE093mJ+pmsTtOQzqYFZE/3XsaFkRuYTM+gxOvu8+3L9JhBx7uCgNODrtpm7NrQg+0dm9EQqoXL7hBhzmJtIP3W2e8ikpk0bkwM4UzfFVwYuo5IdgZFutGrPLQLWoes1QCCTi+6G9uxe0MPtrR1oT4YhtPhkA3FQuGAO78xu9/xdBK944M4238V54ZuIJZNoFh2GetJOG2T8NfjDV3QAAAgAElEQVRk4ashk733HLMA1gLYBedzKYwz131Wmk4l1nuA7+ECkorrSMQ8yOsNKweuhoGQ04d9G3rwWM9udDdvgNftlsV1uS8uvgScWGIGZweu4IurZ3F9ahhZo7jcn6r8fQIyCuo8AbHBo9270NXUBm+JuVX+ovnvNJl8EZFEDOf6ruDY1TPoj44jZxRXD2SZM60DtZ4AHt24A4/17EJXQyvcTtdd7u/7tYEw+WIBk/GIbKo+v3YWg9MTKDJWq2iw6Qm47JMI1BbgDdklj3a+ywJYC2ArmYcWg63ESg/ZPYy7ZpJFxCN25ApN0JXAyriFdSDocOPQ5l04suMA2uubJdZa7cowFABlcllcGLyGD859iUvjA8jpqwM2Nh2o8wRxaPNOHN66D211TRJzrIYNyGjT+SzO9V/F785+gWuTw8hhdTYXimYg7PbjyS378MS2fWipbZCxr8al6TpS2bQw+HfPHkNfZMz0XNBdbEzD64kgWKfD6WEO99wgawGsBbCVzE0LYCux0kN2Dw8sj08YSKbC0Gz1AOzVt4AB+BQnDm7egRf2HBZwJbCs5JXOZXF+4CrePvUZrk4OoUBKtYIXvZUhhxePd+/CszsfQ0ttY9VtwHBlNpfFmf7L+NVXn6A3Nipq6xUVPxlAjd2LJ7bswbO7HkNzuF4UwtW8yGYz+SxO3biEnx//ACMzU9BFRJyH3TaJQCCOQK0d6jyuYgtgLYCtZH6uOsCqUunHFKxoZA2l8zttihlvYbzM4L+zT8qupGcrdI/IS0oxQbb1Vt5d+c+pViylCKxQm5byGbLXdIIA60TOaIGheKq/2hoGVEPBzqYufO/wi9jY1F51YJnLRlx0U9kMTlw/h18c/xAT6emVEz4ZBpxQsaetG28cfE6EPfYV3GAksyl8duFr/OKrjxBjWa6VEj6V+v1o53Z869Fn0F7fVHVwLY89fypTmYyw919/9TGSWg5QDdiMBDzOCQTri3D75maxFsBaAFvJOruqAEsQrfW0oM7ThEwhicn0MPJ6FjbYUedths8ZwkwuiunsOOjWMS+qIlmCzwa7zSF5kEqFqlYdFHkUoFExugyATXC1q07UuBvAvkTTYyjoOWmlS/Wg1tMsv5/OTqCoV+Z644A4bC7pX1HPS77fvdrKNqg2OxyqS+7LFTNin/u9ikUd06MaUul6aLa6lclz1XQE7R78ydPfxoHunXA7nRU1v1xDdL5JTBeopmlSIIOMjPmiqjq/209ml2FgIh7F218fxUeXv0ZGL6wMm9MNNLpD+MMnX8H+zdvB1JvFXOxrsahJ+9lHCqEW41bmc+OxKfzyxEc4dv2sGYdeCdGTpqPJW4M/+8Z3sKNjk6QeVXqxzRxf6TdnqmqTMb4zZele7+M7hqMT+NfP38PJ/kvIiau4AAcmEQhOI1jvmLMIhQWwFsBWMk9XFWA9dj/2tz6LjTXbMZUaQd/0JWSLaQHOLfX74HPVYGTmBsZm+krsVke2mEIiPw3V5sCm8C60hzZDVewgeN7amZr/Va6Wxl+ZqJ7XcrgRO4/++CXki5m77EOQlMIFNsdN9qzpBQHHuUCLSs5adwsea38BLocXH/X+FLHMBFTFgfZQD57oeA3R7BiO9b+FRD5WEai77F7sbDgEl+oWe0ykBqHdQ3TDvrcENmJbwwEU9QKOj7wPTSsICzBFPHkB+UpAl2k5uUwRkWEFOaMTEPZa5UtSURQc7NqBP3jqNdQFQgsCAxfVTCaHVDoj3oFAwAePx33zOYJNNptDbHoGIyOTmIpOw6aqaG6sQ1tLI2pq/Pdkh0zlOT9wDT8+9g76pydK6RxVtIMBOA0bnujeg+8/8SJqaYMK0U2EO7k8pqZiGBoeRzqbQ0NdGK0t9QiGAqViDJW1PV8o4OzAVfzjJ29hNBWtPns3DLgNB76x8wBeP/gcQl5/RQ2VeV0oIJFIY2RsCqOjEyLaqguH0NHehPr6MFxO54LzqPwxjveZ3sv4m4/eRCSbLLHYafg8ZLGA0313PW0LYC2ArWSyrhrA2m1OtAU343DHK2jxd8oOtKDlkCmmJec/5KqVPytqeeS1PHLFNNLFJEZn+nAl8rW4jh/veAWbandiIjWEdH4Gbodf0hf4DgKqy+5GUSsgr2VR464XVnxq9Cg+H/oN0oXETfvQRe22e4WJNvs70ejvgFN1IZ2PYzw5hLFUvzDpQjF7EyRpOIJbW7AHB9tflO++e+2fEM2MwePwYX/zM9jZeAhDies4PvQ7pAszyGsZAcHyRUAn8yQDZWfJQP2OIJ7Z9H24VBfOjX+BgenLJsAqimwQaAdj1uGTbOf2hoPY2/IUMoUULox/ifaazSZ7LubRH7+Mq5FTmMlFoC9waCULMiSjBcxE/SgobTBWIPaq6Iaw1z9/9jt4ZPP2ewJfGUyGhydw7PhZXL8xIKzlxecOY9+erXC5nLKpSCTTOHHyPL4+dRHJVEYYDsGDzKZn8wZ84+nHsKGjWZjeXBffMUkWe+ozfHDxK2SNKrNYw0Ct3Yc/f+572LOxB44K44/cEKXTGRz/6jw+/vQr2VTIiTFQpH/PHnkMG7va4HBUFs8UFhuP4FfHP8KnV8+YgqdqslhNR43dh//1W3+E7tYNFSvFC4UiLly8jk+PnUIkNo1CUQP/TCsW0dBQiyNPHMD+veZ8qORiv8emI/jJp2/jxMAlETwpyMBln0CoNg1v0C52nX1ZAGsBbCVza1UAlu7PsLsRB1q/gfaaHvTHLgkAhj0NmEgNo9HfLgB6ZeIkAq4a1HgaMBS/hmvRswKMZLEBZxhHOl8XBvtx35vCgI9sfAM+ZxBfDL4Ln8OPrQ0H5M9Pj32CjTU78ETnN3F2/FN81PdzcUlz9SC41XqaBKA6gluEPdd6GmWhns5Oivs5WZjG+YkvcC1yBql8XOzqtHukDZtrd6K7bi+S+RmcHPkQ8VwEDpsTL2z+AdyqF73TF0GmTnDjxmB45pqALA0fcNZiW/0BtAQ6pWwf2SY3Htw0OG1ORLOT4vIlqyaLJlCemziGdJ6bA7PkHzcGB1qfR0/9PtmgeOw+ScRPcMOheuFQnbg89RVOjHyAVG76niyai0ZkpIhMpgmarXZFlMNUzW6qbcG/e/kHaK1tvOeczWbzOH32Mj765AQGBkcxk0zB7XLi97/3Mo48sR9ut4uEFqlUGhcv9yI2HUdjQx18Xg8uXr6Bjz/7CrlsAd9+7Rk88fg++fP5CjixQMHxq+fwD5/+BtOFVMVsqJIfujvvoYJ2S10b/ufXfoT6ULjiVxBUzp2/hn/+6W8Rn0ng2acPoq21Ee9/9CXGxqbwyN7t+OarR9DUWFex2zSTy+GLK2fwD5++haSeq16/meurA7tbN+PfvvR7CPuDi+r3tesD6OsfQbg2KJ6JSGQGv37nIwwOjWPf7q34wfdeRn19TcXtZ3Wvzy6ewo+/eAcJxmKVIuzGJEI10wjU2e9yE1sAawFsJRN2VQCWzI9McXPtbok1pnIz2Fy3C35XDa5HzsCmOITxDcSvIuisQUfNFkxnJsS9myzEBUhCrgY80/U62oObcXTgV5hKT+DprtfhF4B9R4Bme9NBTKWGcWr0Y3TVbMfhDa/idAlgswVWb7GjNbARhze8hgZfO/pi59EXu4RXt/yJfOO96/8CvyuEfS1HBCC/Hv0Y58Y/l9hoZ8027Gl+Sn71OQLCmumajWbGBQQf3/AqYukJfNL3prRxT/MTGIhfwfHh9xDLTsjYeB0hbArvREeoB16yb5sqoNjk7xDGOpEcwmRqWPrOX7n5oKt5NhMla396w+vYVLsLbocP6dwMPh18CyOJG2jydUjfsoUUjg+/i77pi7cx6DsnSLGgYaKvgKyxCZCKTdWkL+YewaWoeG47XYTP39NFyO1EIpHC0c9O4vTZqwj4Pbh6fRCZTAa//92XceRJE2B5SUGFghmPtNtNAd31G4N4862P5NdXXnwS33j6IIJB37wLcFHTcGnoBv7l2Nu4ERmFXq1zDGgDw4YXdx3CG48/L5WKKr1oj3/+2Tv44vgZtDQ14H/6H35PmNzPfvEezl64hpbmerz+6jN4ZP8OOJ2VxTZZTvLC4HX87Ye/xEgyUj03sQH4bU58+8ARvLj3Scl3rfTiuNIrwX85vhSDxeMJ/Pado3j/4y/RvbkDP/r919Da2ljxxoIaj0uD1/FX7/0Ek7kEFIXCuwiCgSkE6m13FZ6wANYC2Erm6yoBrANtwU3i2mzwt8Jt86DGUy9CoUh2HIViDgW9IKBjl5NaeK6jTZjrmfFPcX7iOHx0pXa9js21u4TpsdZsk79dGGg0NQqbzY6gu04YIEHPa/eLi/jEyPvCYHNkwa4wDne8is3hPeibvoyvRt5H0FGDb2//7yXO+5PzfyHu5R31ByXOSoD7Yui3GEn0CjjTDft05+vCuK9GTqM92CPfZx9q3HUYil/HxcnjCLnqsKvpkIDn6fGjOD/xpcSaqZJmP7zOIGwwy955HQE82flNOG0uXJz6CsPx6wKKjKMm89PIFJOlAubm8HocAbyw+Q/QHd6FdDGNS5PHcXz4d8gWkwh7mnGo7SW0BjcKAz858gFy2t2x5/JEKeQIsEXklK1yQk7VL1btUV34weGXJfdxoUWWwMnYq8Qco9P4xx//BiOjE/j+d17C0yUGe2ebJR0jk8OJry/gnd99hlyugO++/hwO7N8B1z1Ah98ajoyL6OfL3gvIi/ilChZhao7qwR8feRUHe/ZIbeVKLnHnjkfwF3/1jxgemcBjj+7C9779HE6fu4ZfvvUhZmYS8Po8eOEbj+O1l4/A63FX8lrZnPRPjuCnx97FmeHrZqWjKvW7RvXg37zwPezp2rIk5TBFbEPDY/jJz99Fb98IHntkJ777xvMIBnwV9Vk2ZYaOvokR/O0Hv8C1yDB0xYBdicHnnUKwzpATd2bbwQJYC2ArmVyrArAESwJJW2CTgF7AVYvO8FZhcFcmTwkohtx1ApiR9BhuRM8JSGyu24Pz418KC6TblQBLoD7a/2tMpcfw9MY3JIZ5bPC38Dj82Nl4EFPpEZwa+RhdYTLY1wSgCbCM7VIkxfgp3agf3PgpxlOD2NP4BA60PY/RZD/eufb3INNtD3bj8Y7XJLZ6cvRDAU3u9MnCH2t7Hl5nAGOJAXSEuhFw1khclawpVUgKe+QPJsGV8dLe2EUB+an0sMRtO4Jb0VmzFS67R4DUYXNgc+0eiR/HspMSV6VdUvkZXJw8gRvRs8Kgy5fPEcIrW/5ENhpjyQH89vLfYiozIiAcdNXikdZvYHvjQWnzsYG3ZJMy52UA+UwRk0NATulZVO6rWb7OlJTRRVtWPZcnV1nte9d3WbVJ9eDfvvB97O7aCsc8MdE7n2OseGR0Ev/l73+O4eExfG8egBXRVi6PazcG8d4Hn6N/YAT79mzDC984JOzuXmpTMw4bwzunP8OHF08gfQ81cflkm/uzARC2e/HvX/lDKQs4X1z4ThsQVHr7hvGf/vpfEIvPCCvfvLEdv/7tJ5iYjAozZ3z2qScfwffeeAEBv68inGTRDaqJmbby6bUzUt1pvgfNFDW2bPFjz3QwAuz/+Z0/R2dTW8Wu3LnmQiQaw/sffomjn59Ca3MDvvnyEWzftqni2LMJsAZGopP46bF38FX/JRRZ2UmZgc8ziWCtVio6cevrFsBaALtmAZYNc9t9ONT+krBYLsiMnTInNpVPoKBlJf7JOOfA9BWcn/gcG8O7sK/1CK5MnRTRUBlgGYP9dOAtxDKTeKrrdXHXHhv4DfzOALY1HEREYrCfipv5cMfLN13EdLMyBryj4TFxxX428Gvk9Txe6v4RGr1tAqSnxj4WV3GdtwWPtj4vyuAzY5/i69GPBEx2NT6Onrq9iGYmBDx5XyJHhTMVywVx585koxLvpTq4wdeKfDGLy5GTmEgOSP4vWe+m8HZh02TdBOdWf5cIPkRglTQFVtH0uIi5RI08Kw3H7wzhta1/hg3BLbgSPY33rv2TuNe5+HGT8mjbC9jReAgXJr7E0f435wVYAaNUAZERFTllc0UAy0Xc43Ah7AvC5/RIDDmSSkgCPzcPfrdH0qt4mglLEs7FLkM2N/79az/C9vZNYrdKLlkMRxYG2Hy+IKD64ScncOVaPzZv6sBzT1P4077g4kuAjSZn8Lszn+Odc58jreXnBBra2evi2IfgdrqleH4snUA2n5Mx5Ak4RV0TG/DXuTYZYbsP//vrfyqHGVSaYkL3KOPK//lvf45kKo1vvnQE45NRXLrci4YGziUF128M4eCju/D9N15AOBysCMTY76l4DL899Sk+vHQSGW7m5mCwHF/2rdYfhMvuQq6QQyQ9I4cKcJPgd/HkJQ3JXEY2o3eNvW5urv6v3/sf0VbfVMmw33UP50EsFsdnx07jw6PHURMK4PlnDmHf3m3weJjqVjn1Fo/AdAS/OP4+Prt2RoRONiThdVNJXIDLw2paFsDON1CLsfV9DXYVH5qXACzDN1eFwZYB9snOb2F7/aMCUBQzURxEN6cCQ1SvTtUtcdhLE1+J8Gd746O4PHkSJ0c/gtceEAZLZsq4KdN0Nod3wa46hCW67R40+jqQKiREWMT3Mw7LZ8lgGf+jK7andg8uTJ4QIVTQWYtvb/s34pL+1aX/jOHEdTFxg7dNmGpToBOnx47izNhRScV5YsNr6K7dhYH4NTT42+FUHfh6mGx5G/zOGlE9s3gGL5tiFxcvhUqD8Sviei7n0TIlx6l6JDXH7wrj0bbnhNFeHD+OS5GvBBT5Hp5/eme6DXOFX+75Y1Finx49iuMj74nSmLHtBm87aOOWQJeIu74celf+bq7rfgCWx4Xtbu/BgY3bUO8PIVvI49JIH/ojY7Imb25sRzQ1g9MDV8Cjwu6cyPy9AOyrP8T2DgJsZfWGKwFYxiIHh8bw8dGvcPlqHzo3tOLppw5g86Z2SeFY6DIBNo73znyO9859gdQ8AOtyuHCgcyse6dqGGm8AyWwGl0b7MBwdh9PuREddI8bjUZwbvoFkjgrw8gHgpRYYBgiw/9u3/ztsbG6ruIg/AfbK1T789d/8DNPTSezft+3/Z++9v+PIsjPBL713SAAJb0gYgh40Rc9isbzrMl2tlrqlmR6do12NdGZnztnd33T2v9g+O7MaqXdGLXVL3dXluwyrit47kAQNvPfITKTPjIyIPfcGEgRJmEg4mopXja4iGOa9+1687133XfYv+ws82LF9I+7c68S99l7s3b0V77/zIoOPmk2QNfdIEF9dPYPj9whg546gJm7kndUbsKOmkUsIRhIx3BnswWBojHN4awtLMRSeQEt/BxKZR90SpMESwP7dB3/FrF35NupnKBzFufMErpfhdtnxwqHdLAc7B6+pB1d6txJJPIFPLn6Psx03IeiolF0OYLOwMG3i0w+w+cr5h3D94wHYd38m33EdxpB/O0SLG1IeCzZgCOGFol+iqi4Jk2VurYQ02P1Vb2FzYC9rdWR+Jf9lSkyyDzaYHGaAnUgMM4FDwFnNWh4FEN0dvwIyjSoAuwGdk7dY+6vyNDAQdYZu8rVkPo6kw+gNU5RyMRoKt7H2qQCszGk+jYXN6Aq2sl+U/ntLYD+n1nzd/muOGCaNssa7CXsqXmaAI/NuV+gm+2A3FO5CU9Eu9h8ToE4mhjiC+ei6H7PP+O7EFWSkNJurC+1lDI4UcEVauCBlGGApf7bYXsGmcqfJA7vZw2MisFH6dYHN3GQ2nyvNhggtKNiKtFUypfdN3WNTM8myyrsBL9S8z/HGlweP4c7EZdbI5wNYMhFPDMjTJuKFfYG0gRU7fXh9236Ue4swFg3BbrbB53QxoXoynYTT6sD13ntsYo1lUnNob+R/tOIvj76H7bUbVLM3LQawZD4dG5vE9ycv4catNlRVluL5Q7tQt65SdeoGvYNI4b+6dmZewgkyjRe5CvD+rhdQ4PSwBuSy2uG2O5DOZjh9xGw04mLnLZzrvMW8v4+qcoqJ+K9f+QmaqtZPl+FbfFsjXylFzP7yv/0Gg8Nj8LjdsFrNeP7QTlSWB/DJZ8cxNDLOh4p33noBTgcFrS3eaNwjwXF8evk4znXdQoZSux7CKtKyK3zFeGPbAT5UTETD8FgdcNmdPO+Uk0qVjy523cK5jptICY+uOdrUvHob/o93/j1qSypUHyxyYEjm73MXb+Drb89xcNvLL+zFju1NsNvv50MvPtr7V9C4yef+b2e+xPWBdmR1Egy6COyUC0u8xA/lwj6NJuJ85LGUa1cTqJbSnyf5Ht1rOYAt3A7RvPIASybTnWVH0VS0G0TmQIBIoEDBRaRlxdJTsFtciKZCbPI0GawMxF2hWxiOdsNucnOAEZmILw4cg93s5f8eCLfj5ug5JXK39CDGYwMMihRl+3zNO7gxepYBlt5JALmj7AgD31CkG7UFm1jzO93zCTqCLfzRU07stsBBVHkb0T55A5cHv0UoNcoaMAFng38H9le9zqlERIpB7ybNNpoO4tN7/8hpRQXWADYF9nIaEgEmpc0Q0NF4SaveWnKAx08pRRSsVePdwH8m7ZvGShpvf6QDocQo3zeb2YlA2mS0cJAU+WYpZ5YZsqwBbCs5hKbi3eifase5/i84EnmhXNj7QU71gG7hqE6Sjd/pQV1ROW/AXWNDHKTUWFqFYrefDw9TyRhaBzq5Bufc5lHAZbDgveeO4vCmXbCbFw/EYfYeSWIT8f/3608wMDSC9995GYf2NcNKZkFQmk4KFy614MtjZ+ByOvHKi/uweWMdb8R0TqTDwWKmWCXYZxifXPoeV/vapsngH/xk6RmkuTeWVDNbVPtoP9eqbSipRKHTx+8iLfjWYCcGQ+MLyuCn+17FgaZm1QxOrGGHpvD3v/oQN1s7mMGItLd33jyC8YkQB4CRlvjKS/s57zcXYb3YpkPj7h4dwL+e/Qq3R3ohUv24hxod/ko8BagpLGWTcM/ECHwOFxpKqvmgwWbmWBitg50YCo/PYmGb9SAO7rLiFy/8CDvXb8oryCmbzbJV4t8+/AbjE0G89vJBHNzfDJdTiXwn8zjXyM1DKaBxd40M4FfHP0YP8THrZRgQgtM+DrdfpygKT7kGm488Flsncx/SH10rS3nOs3TPfIcOBtjbbkWDlVYYYNlvZXajwd/MqTpuiw8+WzGD20R8GNFMkCkNKUVmcKqDQZE0XgqKIgAhky99EAer3+LgKDIJU6AU5Ye2DJ/CeGIINd6N2FyylwGWzMJ1BVvxfO27M0FOxOTkswbQXHqIwZfeTQFF3eHbaB09z0xRlJ+63rcFJa5qjMX6OU0npyFyBLDZg83F+7Ct5CCvCXrGaKyfAZIIJz65+w98OKA8W/LX+uyBBwCWDhlEtNHob8ZIrB+XB79jsD9Y8zZHKJMfmv5sMzv5uW0T1zAQ6WBt9j7nsbIcFcpEoo40wWctYt92Q9EOJIUoRw9TDq5y3/xNFCSM9WWRylZD1lME5sJmNvKZUuFzLswuZXlDsxjIj0wsOmBAoXzSOcGVVRHAAgP21W3BT/a/umguJAEraS6UnjI0PIGPPvuOI2lfOroXO3dshNft5GCeyeCUkqrS2sFEC4cP7ITH7eT+mcxGvs7rdS0YsUtpOsTm9NuzX6IvPMZE8HO1h2VA64JcBUQWQf9NvudUlug55/C/TsvADD0ONWzHnxx4jQFabUsmU/jm+/P441enkRWyeOXF/Wje3oTL127h5KmrqKoqwdtvHEFjfc10utLiT1bG3Y5fHf8Eo4nwvJzENO9c+JxYlSQRBp0eZoMRRqp+RKQx2SzSTEs6/7htOiNe3bIPb+0+Artl8cNVrveJRAqff3mSLRSUpvPe2y+iuKhAOTgZ9HA6bCjwuR9g91ps5DRPt3ra8Q/f/wHBdAwyAaw8AbebKusYYDA9/UQT+R46FpPZ7L+ndaBpsI9KbD65rCrAkoZFRBO1vk0MYhTtSnmotAAoBYZYmQgsKM2GAJbMugQapAWS+ZO0QALTQ9Vvo65wK2LpMG/wZEqlgCVJzsJnC6DIUc7Rt6OxPs4tpYAkAtuTPR9zdDCRTPhtpUw1aDHZMJWaZCCjd9X7t6LYQaYrA/epI3iDNVTynRJ6UHoNPW9zYB9vIgRgZqOVzbzbSg6wFk6sUcTeRGZf8oOS1kcmYjIdkyZKJvDtpYfZLJ0WEhiIdEIPHdb5tyCRjeP60HFO56nxbYLfHmBCjtvjlxDPPEoYQc+q9DRwZDNxOxe7qjg46t74Fe47Af1iH4AkygiNCIjHipFlHmJ1QUcPL6sczZ8avme9KKPCU4y/efVPUFlUOq/WQWdjApRbtzvQ3tGH8FSUmZziiRSqK0sRCPiZKm/P7i2civPb332JvoERplGkzZe5eckkbzUzmxMxP/m88wf+EOn/uXst+P3FY5gSEjzn+bR8ZABJRq0ngL99/c+4TJtaTSOXnvLF12dw504n0wT6C7zo7h3i08uBfc3Y99xWuKcPF2r6T2Xczty5jt9dOIaYpKz1fBqNW8280zOJZGRDURX+42s/VeghVb4rFkvgXz/8Cteu34VOr2fWKjOzVel4nksChdixfQO7BtRGZceScRy/eYmLHcRlMmkLMOmIaGIKTiKaeAaYnDSAzWclr8y1jwVgyT9J5lXSWimthbS1Oj+RThhwa5SYiiIMrhuKdzJ5A6XPEHGEx1KI/qkO9sNSowAeSrUJJobZnEpAR+DKHy9X46HcUqrGI3NeKvlBr4+cwpm+z2aoEukaAlraGJRqOECJswal7moGu6l0kLXXaDrE4E6bB0U7FzkqsSmwB06Tl83W3aFWiJBQ4qjEmw2/4AMCsU+RKdpktLLJl8D22tCJGR8sHzRsASabIB+z3WhnjTUqRBjUO4M3mDOZtHMyQdNhYXZBgdlLgDR88sUSaUUqE8NkcoRTjehwkRbnCK6ZY/2QSTE+lUV43OS2tUEAACAASURBVI6MrkJVJPGyl6Ekw2mw4mcHXsX+ph0L1gBNpTMMqgODYxAyAkjbornNkds7HDY2BZMJ82ZrO3MRk3atNyj0gdRI4ykpKcT62ko2Kc61qdM6oJQNSlU533kT6Tn8kMse9wPHf8oHtuLnB9/Acw1bYVGZC0uPIArIvv4Rpg4k0zBpsqTFk/ba2FCLAp+HQUdNy/kh/3DhWya+zxC/d374quY196+RAb+JKCLfxZbqBtU+eIoOp/mlVC0K9ppd2ICsBh6PiyPGcwerxTrFPv3JUfzzqc9xa7hHSdGR47CYxuDxp2FzPVog4mn0wWoAu9hKWPm/fywAS8Mgcyr/ozcwgFS663kTJDpEAgTKZy1zr1OqxDDw6RisKN+VAqDIJ1tXsIWDl8i3GBcij5hNc+IiQPdYC1BoL1WAK3RrTrJ/5XqqZmNigKT3kkma/JY58FXAm/J43cxdTABOBP/J6fxSIpUgjZR8qSMxpUgBjYF+T/0gEy8R+M8+CBA4UpQz5QbTO2OZKfZFEyDTBLGsdIo57sGSePcXBGvj9jJOU6LgLAruEqTUotV4Hl5SmaSIySEgJVZA1i1uJl6JJWmUdNhcWou/fPF9+N3z09vR+DNCloneHykYpFOqqSgk75T/qgDww0WTqLIgMf+YTaZHtJLcWCjF5krXbXx4/luMJEIK2f8qN5Okw/aKevz8+bdR5CH/rfqXEsgkkklMReIMsEQBSZo7cfE+rHktNIxkJo3LHbfw4YVjGEtG1mTcZkmPPes24U8Pvg6vU30qEYEsRYo/HJRNYqN1YDKb2C+tpiXTKZxva8HvL3yLYCYGMIsT+V8pRUcHo+XZIPvXAFbNaljZax4bwM4eBoEZRcPSlkJARYBGgEKpLbM3GgVgFLAjLYV5d3UmTmPJEiH7fD52LgFn5tQdIsyn62cD5lJEmjsgcKXXWfVqyQdK5mOKOKb30N/TQYJAljRWYlKifNHZnc3VlL1vVpSW1D96vmKio/tJGPkHHYhZGZHxLKJRH7I64gZWt0ktRYYz91DKhtGOd3cfwcGNO2G3WhesJvPwpjpzkHoIk+a6bjHcIt/+QHCU0zUu99yZZnBSD3ZLlQMVPSiwuPDOruexb0Mz+yTzAdnch0xjVoK48usza68To/i3s1/hxkAHMlRsPr9HLGnoNO5Cqwcf7H0Ru+o3w6Yi0C33IrXrYKGOkdyIuerXJz/HvdE+ZPUSdHIaJv043N4onL5HeYjpeZoG+6BUNR/s3KvsiQBYRW9Uvma1/psH71HuXKjNLv+VzzuWsmvMNZaljG8p717uPbRppeIiQiN6pKWyNdNiifi90lOMD/a9hE1V9aqjaZc73tn3c25lLIKTty/j21sXlWCXNQCZXB9Mkp6jsn+0+wg2VKxbMxnQuMPxCL5tOY/vWi9hiio2LXYSWUHBG2QdGvwVXKqvvrRatal4uV3gccei+PzqCZy4cw1x9jlTwXXKYBiDp1CG2T53XV0NYDWAVbP+nhiAVdNZ7Zq1kQBFE0cmRcQibggIrBkvsUHSYUNxJd7b9xLqSqrYjLtWjT6EaDKOi2038eW1MxxBO1eKyqr2ZzqqelNZLd7edYTzQ6kA+WpifG7c5+9dx1ct53jcXNhgDRv1wSIb0FzViLefO4KqwpK80naW0lV651QihlOtV/DtrQuYTEYhkvaKFMy6Mbi8MTh9cxdb1zTYRyWuabBPuAa7lI9Eu2d1JJArvB4eMyCV8UPSedfEVEwfKRUebyqpwVu7DmN9aTWILSofU+lSJELvjSTiuNR+E19cPY3ReAgyWcbXUIvL9ZsCzWw6E7ZUrMcrzfuxPlDJmuxqyEDRXGO4cO8avrlxAWPxMMQ18AjMOUeSDIfBjO2VjXileR+qiso44G01xk3m8HAsgjN3ruJ462WMJqcPFbLAFXQc9km4iw0wmR/1veb6rmmwmgarZq/RNFg1UvoBXkMpO4moiMi4ERmpGJLeteS0nXzERwBDAT+1/jK8sn0/NlfVwWlXatyudCNXAZEWEOfwqdtXcOrOVQ7uoeyk1djY1fafZED5wY2BKry4dQ+bi51W+6LkGKqfT7mrWQGh2BS+v3URZ9tuIpiMKrm+a6y9PtBn0mRhREOgCi9v24vG8lou37cYKUg+484IGaauPHHrIi513cFkOjrtBhBhEKdgsYyyadjqfDD+4+F3aACrAayadacBrBop/UCvyQoS4qEsIiELsghMk0+sPNA9LF5alBRZHHB4saWqHs/Vb0GZvxjEf0uRocsFPwpkIirDaDKBjuEenGy9gq7xYcSzKaX+6eMEmWlhEMiaYUDA5UVzzQZmOyrxFsJmtcBIaWVL0K6JqEPIZlhbvzvUxebRnskRJEVhXiKNtV76yrj1KHX7sbO2Cc3rNqLYW8BBXxTYuNRxE7CSC4Bq3Z5ovYy+4ChXClIIRAhcozCbRuEqyMLunt80rGmw+ZlC13r9PGnv0wD2SZuRJ6k/xNCUEREPC4hP2SDIRZD0zjUxF5MYqBQpaXKFDg8aymqwsXI9Sjx+WC0Wzl2mwDbSbmYHsM3z+c+kOGWyImKJOHrHB9HS24aByVFMpePIEiXgEkBrtaeLgnlteiOKnD5sKK9hbbbIXcC0lMyiRXnZrN3PdSpQ2HUYWMUsIvEYuscGcauvDYPBMYTTCcXP/ASOm0goLDoTAi4fNlTWoqm8FoXuAjaXK+xhEvR02Hpo3BzqOB1BrxwospiKR9E12o+bfR1MWRnJJCHRC3jcWRjECCymcTi9IuzeuaOGNQ124ZWu+WDzO3isKpPTam9K2vNXUALTIJuYyiIetUAQCyDBBZkLsq+Bqjdd79ukM8CiM8JmMsPrcMNlszHXrsVsWZSthzRWIiGh/NZwIsaaKxUkSEsCk7rzONZgKEueFSLLkAGzzgiT3sCczV6HiwsLUL61zWyZ24xK4CpSqbwUphJRRJNJpMUMUpIAkQupP8mDpiKt0+Mm+k2dUvrP63TBYbEjmxVgt9ofIdHguRZF1nSpRGA4HgWxchFtY4qoG2nc00YYHdLQS2FYTJNw+wCrywS9UZ1MNBOxZiJW8z1rGqwaKf3AryGFgDaUZExEMmpAJu1EViaQtZH+tCa+WZ4CTu2VoZOJskMpkk3MPUrB9/l0V+XGXFawlEvnYtb/p2xic5los2SQy7OeSwTK5ZQ7DiUymMDlST9MzDUlilrK/6OUHmqcC697NIWGN7SZEvCYPkhMP5RvlaGDAJ2chEkfhsUSg8Orh8WuTnPNdU8DWA1g1eweGsCqkZJ2jbKpiTKElMjBT+mkGULWCRFE70iVd0yQiSZprVBr1ka6+DunkelJ19jyWWc50Jm5Z4HTwtN2kFhIDtPjzoHoo3M/Kx9+Zr4p/UZkYAWTSMRgMsZgdciweYwwmvKrvEPd0wBWA1g1n6sGsGqkpF0zIwHSZqWsjExKRDohQ0jrIWStEOkHlFZBIEu0jkoRa+KXXivM1aZJk8AMdyIbKGgRkguASjgKMBpTMBpSsFhlWJx6mCwG5qleStMAVgNYNetGA1g1UtKueUQCDKCSjGxGgpCmHzrVkwWOiiYYeF8jf5iOI141AWoSWBsJ0IbGwW8EsFzLVoJeL8FgpJquSl1XKj1H58ClRCRrJuK551ELcspPLlqQ09rsB0//W6Y11ZzGStqtJCngy7y4q5/V8/TLUBvBikkgZyBmgGWQpRqx0wXYuWb6yvjeNQ1W02DVLFpNg1UjJe0a9RKY3uHyLzOg/hXalZoE1EiADSerZD3RAFYDWDVrUANYNVLSrtEkoElAk8AsCWgAqwGsmg9CA1g1UtKu0SSgSUCTgAaw864BzQc7t2g0gNW2DU0CmgQ0CeQpgfsarIT0kBGymOcDHsPlWsH1tRe6BrBrL/Nn8o25ICdlcBT5pFOCnJjcQGuaBB6HBJSAJg52WuFQ9hzATl4ngDWsGMCudD9nS301AZa/eo7gXtm2Gs9c2R4u/DQNYNdS2s/Yu3jxU16sKEPMUsqODEGQIQtE0Sfz7/WGuQtWP2Oi0IbzpEhAOekBBooeBqfnGE2AgdJz6Hd6StFZfuTTfYAVkR40QFohDXY1QXA1n72a058DqacdbB847Lz27s/k2+7DGPJvh2R2Q8rjBBgwhPBC0S9RVZfkvDOtPVsSoIVO4JlNy0jFiNWJAFUPSbbwjywbIROlXS5PJ4+182xJShvNmktgFsOVXicywYROl+Efo0mC1aGHxWGA0ayA7VKbBrBLlVz+92kA+5DMNIDNfxE9FXcQJ7FELE4SklNZpBMGiJITApP/W6er7DDp7Sw22KVvYk+FTLROPsESmGagZtNlFno5AaMuAqMhAZtLht1jUmgSlwC0GsCu3bRrAKsB7Nqttsf0JoW1SUQ8IjHhv5B1Q9R5IOuIh5gI/9cISHmzVIqUzfDRLpjwqJixc43/c426umpTNUsGM1J4wErwkC9stgie5rHnKKWnyzfcJ43IDerBuSb5z0iCYwGmmZ2kBAy6EEzGOJw+wOY0wGDKz9KmAeyqre5HHqwBrAawa7faHsObJElGOiEiHpKRTNqRRQFknR0A1WRd/ZaLk9LLOpj1BtjMVpgMRkiiBJPBAP2CRQaougpVlJG5tBsVWk9lMxAkCbJOqbzyNABuTgZUAdWsV8r2mfUmpqM0GoiOcjZA3AdYqh4kSFkeN/1kZYmqwD2F49bDYjDBajTznItCFiaTCXriup51fOK5ZopOHQRR5Lmm0oRZKHWUaM6V0QvQSzEYdeNwugQ4CkwwmZnqSVXTAFaVmFbkIg1gNYBdkYX0JD6EfK2puIhYWIdUkrRW37Q5WOVOtIxBKaU7dbAbLfBanShwuFFeUISSgiK4bU4uU2fMAewC3ckVHad6sJPRMIaCYxidCiKUiCCUjCMLkUFH7ea6jCHlfSvJgEDVbrTCa3Oi0OlGWUExSnyFcNnsoMJ9JiMB7KMCYH1NkpBMpzARDWFochxjkSCC8QjCqRgEiJCfUP+4Mm49HCZl7v1ODyoKAwh4/XDY7EotYKPpkTq4HB9AlZZkGYl0EhM035NjGI+EEUxEMJWOQ5Bp3DQVEvRSGgb9OGyOGNw+A0xWCspbfJo0gF1cRit1hQawGsCu1Fp6op5D4JqOS4iF9EimPNPgukaF1iXAYTCj3FeEhpIqbKqsQ5k/ALvFeh9UCRNVbIYzpkJZRlaSIGQFRBIxdA73oaWnDb3BEUzEp3jjZZb4J6FRipMsw2m2ocJThPqyapZBqbcQthkZKL7uxWRAFgiRxi0KCMcjaB/qRUtPO/qDwwimFMB5Yg4X08XlnSYrKn3FaCyrwcbKOgR8flhNFmXu9frpADrFVfBwy+nvBMKiJCIjZhGKTqFtqBe3+trRExzGVCoxPW4yK2dg1E3AYYvC5depAlkNYNfuI9EAVgPYtVtta/Qm2pzSSRHRoA7JhA+ijszCBK6r34yyHl6LExvLa7GvcSvWBSphs1hg0BtWLJ+RCnYL2SwD7c2eNlzouIn20QGkZOHxg6xMxncd/DY3tlTWYU/DFlQVlbFp3KBfXtoTjTsjCAjFIrjR04YrXbfRPtaPlJxdUrDPSq4G0lpNOgOK7B4e9+76zagsLOW519PcL+NlpMmnBQETkRBu9bbhavdddI4PIiVnAJIp1YnVTcDuiMBVoIPRQmtt/hdqALuMycjzVg1gNYDNc8k8+ZdTCbrIpIh4lMzCRZB15jWxoRqhR5mrEHvrt2BX3SYUewpgpkTGVWr08SYzafSMDeD4zUu40d+OSDb1+EBWBsw6Ayo9RdjbsBXN6zaiyO1jM/BKNgLaZDqNjuFefHfzIm4NdCIhZaAz5Bfss5J9suqMqC4IYH/9Nmyr3QCfy8O+9pVsNO5EOoW2wW4cv3UZN/s7kNIphwudnIJZPwqnOw6Hjwqxzy8LDWBXclYWfpYGsBrArt1qW4M3kWk4MSViatKCjByYDmhajv6grtN6SUa5uxAvbt6L5xq2wG1zPOJjU/ek/K7iJA5RwODEKI61nMeFrlbExfTag+y0v7XaG8CLm59D8/qNcNsd00Fc+Y1JzdW0cZH5tG9sCF9fO4PLPXeQxuMxk5tkPWr9ZXhxy3Nort0Au9XOPvbVaikhje6Rfnx59QxuDHYiLWcBvQy9HIXVOAq3PwubyzivVq8B7GrNzKPP1QB22QCbS7pYu0nT3jS3BCgDJJMSMTUqI5EJQNJ5QaFGq94kGR6jDa9vP4Ajm5+Dy+5YMXOw2r5nxSx6R4fw+dWTuNbXhjSy6p28al+y0HWSjEKrG69t248DTTsYXFeTOi/XFTKVE9h8cvkEWoe6kNatEC2RWplIMkrtPryx8zCbwx1WCt5a/UZR1R1Dffjs8gncGelFRpcF5CyMCMLpDMLl188bWawB7OrPT+4NGsAuGWB1MOpNMOiNkCQRWTnD0X+0qdDvKfWAfy8Jc86mkgenFpyVT1ah21o5zkyK4qS+Uleon7LM8aicPkC/J5OU0v+F3qmDQadX0ghkSifIr3/UB0pVYfIkScz7/tnCJe01FhYwNemAoCsDQKbhVW4yYIURe9ZtwjvPHUWxz7+q2stCo0kJGdzu68Cnl0+gc2IQWX1+c7FkScmA02DGvrqteGPHYRR5C9ZUBulMGjd72/HRpe/RExqBtAZnKuWDBBx6M15o2oXXdhyEz+lek0NFbp5ovlu67uLDi99iMDIBSSdDhwSsxjG4C1Kwu0mLfXRWNYBd8krP+0YNYJcIsEa9GZWeBgSclYhlpjA41YmUmIBRb0C5uw4usw/B5BhGY30QZUHJZ5wGXAJhm9EJi9GmcMsvBkr0lcgyUtkYUtk4A998bSaBfdHn6mA3uVDlaYTJYEJH8CaSQpSDcfy2clR7GhAVptAbvousmAZlIEqUIvAAKbaOx+CzFvPvJ5JDEOc5UMzVXwJXu9mNQlsJsrKI0VgPRFmEQWeYlhcB9vxjffiZQkZCcEhEKl0CUb8G2ut0tGy1uxh/fuRtNJRVc17nYk0URQhCli8zmowcXTpfowAXupbEbjIZYFjgWpqDSCKO03eu4LOrJzElJNfEVKyXgPX+Mvzs4BtYX1qpSgY0XooQzmaz/EP/TY0PqEYDTCajahM7jXsqHsV3Ny7gi5YzSFDwzyqaaHPgapB1aCyqwJ8dfhM1xWX87ahtnH4lisgIWc6Jnhm7yQizae7UpbmeHY5F8Merp/Ft68XpcYswYhIu0mIL9XP6YjWAVTtLy79OA9glACwBg9tSgH2Vb2BdwUaksklMxoeQFOMMNKWuGjhMbkylQwgnRyFIRA6Qwnh8BIORTn7jxuLnUOaqZQ1RJNOOzsibAv03qZQGEMhIDDhGnZk/3q7gTdwev4hUNjGr16RBGmA0mGHUmWDQKb4X2pgJ2Ond5KObDVScf2iw8AFhU/FzyIhpXBn6DuHUBKxGK3aUHkVdwVaEUmPoCt5CWkwilg5jMjmKZDb2gKZb7KjAzrKjrIV+1/07xDNTqlclaclVng3YHNiDdDaFiwPHYNIb4LEWIitlEUqNI5YJIytlFn0myT0VyyI4YkJGrppmaVr0tuVdIAN2nRGvbN6DN3YdgdNGBBbzNwKRVCqNgaFR9PQO8Vpp2lCLstLiOUFWFCWMjQfR3tmLdFpAY301yssCMCwQzEOpHV0jA/j9+WO4M9wDgdBvNRtprzozXtt+AK8272cTqZpGspiaiqKtvQfdfYNIJtMMsgSulRUl2NS0HoWFPo48VtOyosgpPL898yU6JwchqrtNzaPnvkaW4dJb8e7uF3Bk825OP1LbODgtmUZPzyDutHcjElH2DavFjPXrqrBlUx3sdnXPo/m+N9CDfzr1GfrCY5CmfbF2yxjcfoG5ix821WsAq3amln+dBrBLAFir0Y56fzO2BQ6wBmczUTCHAePxQViMdjjNXiSyUQU0IWMiMYLJxAj//WC0Cya9GQer30alpw43Rs4imBxFjbcJ9Ny+qTaYDGYUk2acCmEk1oty93psKt6Dm6NncKr3UySEqHLihQ4moxVFtnKs92+C11IMh9nFCfwpMYmUGMdwpBvdoTuIZoIQpSz/ndXkQImjCpsD+1FkL8VYvB/RTAiTiVHWsg9Uvw2X1YdwcgxpMQWzwYKJ+DC/vz/Szs+h8ZoNVlS6G3C49h1+7u9a/29MpcYW18inZU73bw0cwKbAHqSEBMYTQyi0l8BisLFOT+9vHb+Igal2PigsDF4SImMiolNeCPrANAXi8j+QBZ8gyii2ufHXr/4E9eW1bCqfr9GBJxicwvUb93D95j0MDY/BbDbh7defx64dm2CxPGjOpg8zHI7i3IUWnD5/nQ9Mb7x6EHt3b+X75muszSVi+P7GRXx+/RQSlLqzik5BSokqsXrxn978GWtxnOepopHmdvtuFy5cbMFkMAynw4FUOo2R0UlYLCbs2bUFRw7vgsftUmV2pXFT+s43N87hm5vnkSBLyiqOWyfJqHQW4m9e/1NUFpWq6mNOLHTIunLtNk6duYZQOAJfgZsZnuiQ0LRhHQ7v3wGPR+W4IXOeLPlij9+9qqQsgSKKx+D2EZ2i4ZFgJw1gVSzQFbpEA9g8AZY0xBJXDbYE9rGmNRjpQsBZAb+tBOOJEXitfmTEFFpHL8BrK0S1txFDkW60jl1ENB1EUkzAbfbhcPWPUO5ehxM9H2E8Poz91W/Aafbg0uC3sBkdaChsxiSD2jnU+jbiUM2PcGP0DE72fISkEGNwJWBf79uGpqJdsFvcCCdGUVe4jZPy2yavw2vxw2FyYSDahRsjpzEa7+OTst9Wip3lL6Devw3RdHhau9Wjf6qN+0TgS9r3nbELcFq8WFewCT2he7g0+A0mEkMM7UX2MpS51qHcsx4N/u2sZX589x/YzEtAo5s+XJBZOSNmprXQB32CdKDYU/Eq6gu2zYByMDmOnvAdFNpLuX9kor4w8DUmkyOQF6gMLQoyggMC4pkKSHr36qflUNSsrMPW8vX4xQvvoMhTsOAnGY8ncPZCCwMmAWdoKsLpK3/y/ms4uH87rFbiRb7faBO+2dqOz788ie6eQZjNZnzw7ks4cnj3I2D88IszWQHXuu7gN2e+xGgivHpmYpKBBDRX1OMvX/4xvA6X6m2JyCOCoQhCoTC7SeiAEYnGce58Cy5fv42Gumq8/6MXUV1VtqDGPvuFNO6rXXfwP09+ilAmsXoAS+Z62YCDdVvw08OvMzOX2kZm4e6eIfz2919icHAMBw40Y+f2JljMJpDFwuGwo9DvZRO52ka5wZc7W/Gr7z9GVE5DpxNhlCfg9pCZ2Mil7mY3DWDVSnb512kAmzfAGuC3l6HGtxFui49NoxXu9ay59oTusomXTK5pIQmHxc0aZTqbxHhsEAORDkwmh+Ey+/F8zY9Q7d2AtskWMgQzyFiMVvSG78FosLBvN5GOoCd8Dy6LBw2F23Ft+CQDckqIsfbYWLgTzaXPsxZ9degE4sIU3mz8DwzAn939B9aEtwQOsMn67sRlXBn4DjEhBIuBNPDtaC57nk3dgiQgkp5gTdWst7Kp2GXx8XP0eiMEMc0A3Rm8yYcHk8GKpsKdaCzcwWDts5dwn451/StMeiMqPPVwmDysvUfSQXSHWlkzjwuRGfMyid1udOL52vexrmAzB1VNJIZxsudjTCQGUeSowP6K12EyWnB9+CTujl+BIKXnXfHZjITRHgFprAd0tuV/GYs9YTrAhaJmX91+YFHzcDKZQntHH2to5HM/fuoSa7Q/fu8VHN7f/ADAZrMi+gdG8NWxs7hxqw3xRJI33A/efRkvqABYNhMP9+P3F46hdbgH4moFO7GJ3Iwf7TiEV5oPwGp+8JCwmAjJJKwEBirkRuFwBMe+u4DvTl3EhvpafPDeyygvK1KtFRNotw/14NenPkd3cARSrjDSYh3J9+9lwKW34Kf7X8WBjc2wGNUH09E6+OLrMzz/HpcLf/Uf3kd5WfGs8nP5l6Ij60bbUA/+/tiHGI4HIetlGOQgnK5xuIndyfygb1gD2HwnfOnXawC7BIAtdlShqWg3yty1DKBuayHzzpKWlcwmIIoZeCx+UExfUozCorcxm8uNkTMMFjajaxpgm9ATvsvmpRrvBgbN4WgXDHoL/I4SJDMx9tmSSXedbyOuDp9ggM1kk/DbS3Gw+kfsx708eAx3J66g3LkOL9X9KQPkR3f+K5uI6wq2YW/F6wyAlwaPoTvcyocAMmOT75R8weTnnYgPISHE2M9Lh4PdFS+y2TqejaJl5Axahk8ygCsboh42k5MDueiQwKZygw2xbARmvYVNyFPpCQ7GKrCVMKDcGb/A5nDy0eaCuki7fqn+56jzbebrz/V9hY7Ja8hIGfgshdhZ/iJqCzbizthlXBz8BukHfM8PTlw6mcVEn4S0rh5gYolVbjLgMdjw88NvYnfdZlhMCxNK0CaYyQgg8ByfCOOffvMp+2J//O6DAJszDZ88cwXfn7zEwEq/i0YTeO9HL+KFw7sW1WBJ7sPBCXxx9RTOdt5AWqKUnVWQhwz4jHb84oV3sb22cVmEEpRuc6+tB7//6FuEwmEc2NuM1145CJdTnU+XRkfjpnzgP1z8Dpd77zJJ/uqMW4bHYMd/euPPsKG8VvUBgPpIfuf/9qsP0dnZj107N+G1l/bDajXzHkBzbbVY+N/5pDgRf3H/+DD++dTnuD3SA1EnwagLw2Efh6tAhtlqeEAOGsCuwrcwzyM1gM0TYMk0S9pqo7+ZNUgCUo+tkNMSJlNjmEqOs9/Say3EULQH98avoMbTiM0l+3B7/BIH8lAEMWmwZI493v0R+2dfWP9jOE0enO75FA6zG5tK9mIiPogrg8dR42uaMRETwFKk7sai59Bcepg1yu+7P0Q4NYk95S9jQ9EO9E6143j37xmQAs4qNsOSCfv6yEncHD3LI/bZAthT8Qqbu/um6U6JvAAAIABJREFU7qHctY6B9+v238Bt8WJv1Rsc3UtaI5mbrw4dRzA5gqyYmQFIk96KDUU7caD6LRTYijGVHMO14dNoD7YgKcTZT1vtacTOiqMQxAwDfFfwxkzqEmm5bzT+e6zzbcJApAuf3/sHTKUmuH9Oiw87S1/AlpL9uDN+Gad7P+EI6rkaaT/puIDJQR3S+vq8KuVQEA35DUmbIv9zzoid2+AejJq+/3b6vUdvw3987afYVLWeo8fVNNoMh4bG8Y//9BEGB0fw/kMAm85kcPNWOz769Ht+3LraCgyPjKN/cBTvvnVUFcByRHc0jG9aznF0aXIRf+SDMrifarWYDEjt9Brs+M9v/TnqSqtUByQ9LCfSPAcHRvDR58dZy9/QUIu3Xj+MyopAXuBF4x4LT/LB4lTbdfZHzgewdN6gQy8VLlf4ju/nzy42bvI7u/UW/N1P/ldUFpaomXa+hvs3Nolf/v2/or9/hP2tmUwWsTgFLcooKynCgb3b+ffkMlALsvTc4dA4Pjx3DBd6WpFlgI3AbhmHy5+FxU6Afb+bGsCqnrJlX6gBbJ4AS5dbjQ7sqXyNQY4iesl3atQbkcjGIYgpRJKTsJhsbO69OXoe6ws2o7n0EO5NXMXlwe9mNNgKTx3O9n2JUHIUh2rfYa3wTM9n7Pckv+pkYhg3R85wpO2eylfQMnqaNVjIEp6reIX9tPSOSwPf8Cje2fBXcJg9ONnzCe5NXEJWzqLAGsCu8hfZpE1m3paRUyhxVmFz8X72n3qtRZAkAVlZQFYSMRzt5rQb+vPAVAePla4Ppydwd+wyusKtHNlLzW0pxO7yF7Gt5CCbxY91/hY9oVbWnGlhkfm8wFaK5ype5vdfHfqef+hQQI36+kbDL1DprkPr2AWc7P2YU4VoY6E+0AGgzt+M1rHzONv3+QIAKyMVFRAclJE2NAIqeIfpQOSyOVHq9sNndyGZSWE4EkQ4GWX/ts/mZHL9qWSUS4c9nEpFm6xTb8F/eePn2FC5TjW4LASw5J/rHxjFx58fR2/fELZtakBdXRXOnL+Grp4BDog6cmg3bHbrgnmmJHuqvPPV1TM4dvuiwnA0hwZLMqAqNyWeInjtTkRTCYxGgoimyDVggMtiR1rMIpqKc0rJXDJw6634P9/9BdaVVCyJtYk0++HhCXz+9Sncvt2JmupyDuaqrSnPyw+ZA7DR8CQ+v3ICp9ta5iXboHXps7tR5vHDbXcyp/NIJIipVJwPSiQLKhU3lYzxuB9pogyXwYL/60/+GuV+CqhT1wjI+wZG8P/+4+/Q0zsIm82K4sIC1NdVcbR4X98wyssDePO1Q9jYtF61RYABNjiG3537Gpd67iKrl2BABDbTKDyFEixODWDVzdDKX6UB7BIBlrS2zcX7OHiHgo0o+Il8laQ1jiWG2Z85FOlCV6iVzagUqHRn/BJaRk7DbnTj+Zp3GHgp9YVMWyXOSuh0BozEemAxUHmvAAMKabdOyhW1l+Ly0PcMsLRXknmYUmlujZ7jQCjyWb5R/xdsov7w9i/Z10tAQRosARxpmC3DpxnIzAYb+2V9tmJsLTkIt9mLe5NX4beTxiogkVHybeOZCKZSkxysVeqqZdMvRRJTVLLL7MbmkgPYGtjP/SNT9+dtv0IkFZwhpiBTss9ahN3lr7CmS6lAdBigtB9qdpMbR9Z9AEr1uTl8GjfHziEjJnmjDjhrcLj6HXhtRWgZPcUaNJnG52qswSYETA7okdavB7CwuZbk57Q4cHTjTuyoaZqOxjZhMhbG5S4yoUvYVduE/skxfH/nCoIJxTQ+uykarBV/++qfoql6ZTRYCoQ6cfoKvvjqFG++z+3czCBz5fptDA+PY8/ubdi1owkV5QH4vB5OaZlbHgrAfnP9HL69fYl5eucCWI/Vgde27sO26kY2XVM+LgHN9Z67MBvNXLCgc7QfZztu8sFjLhmQifi/vPnnWL8EDZbAdWwsiC++Po2bt9o4oOl1BtcKzgXNt+U0WMoLPdl2bU4Nlg5vdKgg3/mmsvWc203+/8HwKK71tMFmNmNHTSPuDvXixN2riKQetZooGqwVf/fB/4LKovw02OGRCfw/f/+v6Ojqh9Npw5+8/yp2bG9i3/zvPzqGYCiMQwd24rWXD8BuU5eqo2iwE/jD+W9wofs2sjrKJY/Cbh2Dq0DTYPNdRyt5/TMLsHfchzHo3w7J7IaUR9J5wBDCC0W/RFVdEibL3CkHpNUdqH4TGwp3sWmWTKqUekM+TPpgI+kQLCY7a7IEJoWOMg50Ik2M8krJ/0lRxKzB9n/JPtttpYeQltI40/Mpih2V2FKyj/2iFNhE4Ly/6g2OIiaAJcYk0krJDzwc7WH/6+aiPUwacWfiMs70fcqaNZmiGwp3YFf5UQZKArf+SBtMegv7X2sLNqPIUQaz3szvCqUmWFMkKKGgKjLvEvhTn+k9BLox8sNCZr8rafBkLidAJEKNP7b/E/tpOWKFEmX0JpS51+G58pcZzAlg6TBAWj41CsKqcjfCYfZiONbNhwLadM1GKx8eDlX/iMH+wsCXfFCZNx+WKBLTWYz3qvPBkuYWcBXg+aad8NicaB3sQrW/BFWFZbCaiIULSKTTuNx9B2faydyt9PdBhCUfrBV/cfht7KrfpJrUfyENNhKJ4buTl9By4x6nbFBkaTojMAglkkkUF/tRWR7A/j3bsHljPYPwXEub5mwkNIE/Xj2FM+03lSo7D2mwNGcl7gK8tnU/LCYzbva1o7a4DJUFpSwDenA0mcC5jhu43HMbxBo0lwx8Rhv+8uh72FbbqJpggp5DS4T8kV8fO4vT569xLvA7bx7B+nWVC6YhLbT5sQ92chQfX/wel3vuIjOH5k7m8KqCUhyo3waT0YB7w71cUrDMF1D86JQelYhyhaIrvXe54PkjU8+mcRv+tzd+jobyGtXWC3oOpeX81//+O9y63QGf143//T//O57TsfEQ/vDpd2i93c4HKwrwoohiNY19sBPD+JdTX6B1uHvaBzsFu30c7gIJJuuD1XU0E7Eaqa7MNc8uwLoOY8i/HaJl5QGWona3lhzgFBkK7vHZivgjm4xTkFOMSRMcFg+beIOJUdjMTqSFBIajvcx2RFG8h6fzYK8MneBo5AJ7APcmrnO0b7VnA3aUPc+gdXHgG9T5t+Fo7Qe4MXaWAZb8oDXejQycZE4mX22Fu55Tbr7v+jeMJPq4X7XeJkVDtfg4wOja8AkkhAibZg/XvIcGP0Uu29gkmxDiiKQm2cyrRApb4LcFWPsmIo32yesYjHSw2ZnSayiCmDRPPfSs3cYzYZzo/YS1XAJC0oQpHYkAvrFoB6f3XB44xkFbCpmGwtrDxBhEKykTW5HM7y1x1WJX6VFUuNfh7sRVnB/4CpH05AMRyA8v//tRxHWAbuGTP5uHrQ4Uu3zseyOtzaDTwe/0oraonOu2joQn0DU2yMW95/TDTkcRv7n9AF7avh9OFQQLdHgg4BwamsD/+JdPMEh+1XdewqG922GzWbjYNkXShiNxZAWB0zYoX/bs+RYMDI3h4P5m7H1uC0oDhXA6HfNu7OTTJH5eiiK+RVHEukfJJkj2pMGWegpBvLbDU5Nc/aXI5UNNYSmDzWBoAt0TQ2wiXkgG7+w8jBe37YctjyhiYqeiNKRf/+YLpNNpfPD+K5yuwulKxCJKmdXsH1cfnUXjpgo7/3z6C3RODM1JmUgHC6/dhSKnBwkhzcXcOe/c7cO6ojLW4vsmR9E7MYxYJjnvuF0GK/5s/6vYv6EZ5kUC3GavVYoI/+iT73HiNAWwmfA3f/VTrKstx9DwOD785Fv2tx/Ytx2vv3JItQZL66p9uA///djvMRibVKKIEYTLoUQRGymK+Bnwweb2jJWBvrV5yrMJsO/8TCYNdjUAlsDAZfZy9C4FCrktflR5GpiTuD14HSkhDq+tmIOcyId5c+wsR9uu923mDZQCgMiMfLDqLQ5eIuIJYmIipqQbI+cQy06h0lWH+sJtDM63xy9jfcEmHKh6Ey3TGmxaiDPFIGmwtd6NnNaTykT52eOJQbitfgTslajzb2FtlbQ/Mu1SGgy1Qns5m41LXdWcpkObzlh8gMkeukO3OUWHQJDMvaR5EwkFsTpRBDBpCRzxaLDAarCzpkmmYjLtto1fQ6G9jAGWTNV0aCh1VjMxxq2x82ibvMYHjYd9efQ8OnTQQYC0d/ItU9DVQKQTV4a+x2C0c1EKxmxWRrA/g0SmUlUeLI2ZgFahsKT/V3zGBDL0ewLeuXyvM58l1T2VddheUY+/OPIjFHl8C36xRAdIWgr52kZHJ/DdyYuYnJzC3ue2MmtRgc/Dpl8CWsUAICMrSujpGcDnX55CR3c/3n79CJ4/tBO2RQJgKCL3evcd/MuZP2IkPjVvvQMaJx0MaV3SD20G9GeKJ6A5IRmQX36+QC8ydVAe7M7qDfjF0XfzyoNNJFKc43vs+/Psa3z91UMo8ClcvsRE5nTYUVpSCK/HpTrQKZf/+08nP8dkOjpn/i8BNz2fDlQipwlRUBdZWwzMIkYWAfK900FoXgpTKssHPQ41bMdPDrzGlZPUNjpYtN7uYDAdGZtk4pCmxlqQ6fjcxRaWwasv7ceWTQ2qfdA87s47+MfjHyPC7hcJRowrebB+IwzG+fJgJaSHDFggvVztsGYOzHnd8IRcrDaYbKndnff7WeoD1+i++fqte/WdP5Pvup9fFYClyFjS7Cq9jRwgRFoamUFps+oO32FAoqAnSk+hqFvKHSWTcJW3EbF0iDVJMt+SD5WAkwAxkYkywMaFGH/UdpODQZmikUkrJSILChK6PnwCJ3s/mQkEIlO1x1II4kWmwKO0mGBNllJvKCKZ7h2MdnAeKpmImZJRb0S5qw51hdthMVhQ7W3i9KCLA18jmg5xtC+ZtCnIiPJvKYqYzMNEqDEW60cyG78fRWywoKlwN7aVHmRT+K2RCyh2lnN+q8IyLnMuLR00BqIdbGKea9LIzFxfsJ2ZrYoc5XwNae+kvZLpmHzbizXic42MZxGJ+JDVrQ2TE7H5lNi9+KuXP2BTIQH0fC2RSOJay11cvX4HwdAUkyqQ39Nht8HhsKG2uhwvPL8bgWL/DKBwdO3gGE6cuoz+wRHOgd3ZvHFRJqdoMo7jty7h4yvHmclpVTcQUUaZowB/8/pPUVNcrhoMKR/062/P4cKlG0im0iwHHRdkB0xGE9Ml0uGjbl3lvL7m2bKmNUN8xMdunMeXLWdXncGKjALEQU1R5BWFAdUypn7GYgkOXLt4pRWRqRjPP1krKCWJ/LF7dm+By6WuGhEdDojJ6curp/Dt7ctIyhnokIZZPw63L8q1YR+2AuRMxMEWAljjigEsHwsfilVY7Lt9Ev5+Vb+PJ2GAS+zDYwFY6iuZNY0GEwdH+G1lTGNIUZeXBo6xCbbEWc0BUE6LmzU5YjYizY+0w47JG6ztUoRspaeegYSKBSgpItOBNDquMTP9Z4poLWLN7s7YRU51IRrGXCPAp/MpkfHTXQSMRLNIvmDSWGOZEEf4zq6UQwxUdDigfjWXHoHL4sWxjt9iJN7LHwiNiwKQKM+33F3LRQFIw703fpVzfenZ1AjYiWSj1reJgZf8q2TqJfnodUa+jrRZ+iHT8VwaAWkUVpOdo5o9lgI+VIzFBzES7UVMCC+quebkQP1ORrMIERexrhryGlXSsetMeH3bfq6mshAPryAIGBgcQ9/AMAhccuT21H+9QY9Cvw8NdVVwOe9vrDSmeDzJKTqxWJxBp7ioYEEQI62zd2wQH57/FjeHuiDMYR5e4vc2923TpvK3mg/h5W37YLeqI/mgw0Vf/zB6+4eYl3em6cBmWtLoKejJX+BRBdo07u6RAfzm9Je4N96/euQaMwsOcOrN+Mmel3Fo0868SDZoXqPRONo6enlus0IWFouF05LW11aoBlfqCo27bagXvz75GXpCow9wEbv8AqwLcBEHW+QV1WA1gF3RL+uxP+yxAWxu5FwNxuRiQCOgIKYmCuAxG23sn/RYqXSZkcGFzKsUEUwATExIZGImkgryyzKBwzwVdQhoCRADjkrmLB6O9Syg0elYi8pVoyECiRywzp4tAmW6joCUNFiKgqZAJjIF54RKpnAK3CJtnMCYtF/qP0UW5woHMK8xczG7mJyfwJxAlSv6sP6qrlwanSBJG6d+cfEDKTsNyPkR1QtpEcFBCclsGSQd0SWq48VdzkomLv1aXwn+/Pk3UVdaPW9FFZIraaRidm6Tq95g4KCbh0/TfJ8ocfAXRQ0vxPXLG3cyjrN3r+Gzq6cQTMdWjyZxFtAQUVRjUSX+9MDrqC2tUJ0TTGZYTv+ZrqRzH2RpHStVddRwG9MqiySiOHnrCj67dhLRbGr1x02rS9JhY3EVfvb8Gxwgp6avsw+EdMgg1wEpfbkqQjRmtRoVzTelGH19/Sy+vHEWSQ5mU6rpUE1Yt18Po/nRb+C+BqsBLM2HWnkvZ594Gu997ACrTA758hQtMqelcYAG/Y5MXvQ35OOifySl/Br9jrRY+jcFDc0Fgg8DItedlcXphHh1wLXYpM70Q6dnTXGuMni58SmnU/GRa2bq2nJ5vPwAcbH+5fv3ZCaOBUVMhXL1YBdO18n3+XNeP10P9lDDNry750V417gm6Ow+kS/u7kAXPrr4HTqoHqxuZdaJGjlRTvDzjc14fefhNa+LmhYEtPZ34OML36I7OIzs6p+rFJHIMhw6M17ZthevbD8Aj109F7MamS52TVrI4EbPPfzhwnfoi4wp9WDlJKzGUbh8Sdg9j5qHWevNSgj3p6FpsIqENYCde6U9EQC72Eeg/f3aSYA0gUwyi/CYDslMAJKO+JDXYLeVZBRaXSAz6b4NzcxLvNYfLR2OhoLj+OzSCVzouoU0RWrnEYG73FkiS3SZ04fXtx/Ecw1bF+VmXu77cveTVYBoAulQcb2vDRkdkWqojzxebj+4qo67GG/sOISd6zfCodJEvtz3UiBbzxiVJfwWd0d6kKEJoBgLBOFwTMJdqJ83zVAD2Aelv9bf6nLnfq3u1wB2rST9FL2HzKnxsIjIhA2CLgCZif9Xf8M1SjpU+QJ4cfMe7KrbtKYgSyAzGQkxNeLZ9haE03HIawiuueVhgQG1/jIc3bwb22ubGGxWc/MiE/NoaBx/vHYaFzpbERPTj5RmW4ula4ERdYXlOLrlOWytaVxVkCWbRDYroG98hCkhr/TcZcYqiq/TyzFYTaNwFWRgdyl1oedqGsBqAKvmu9AAVo2UfmDXkBZLvtjopIREjCKKCyGroE5crpjIGmvWGVDpLcaBxu3YXb+FafgoYGe1Gn0AVKpsMDiOE7cuMDFCOJ1gU+HjaPRaq96EmoISlkHzuia4Hc55/dJL7SONm4gv+saH8V3LebQMtCEqpB7LoYJNjAAsehPW+8twaEMzttU28QFLbbF4tXLgQL5MGl0j/TjWch43Bzu47i2Bq06myOExON0xOH1GGEzzHyo1gNUAVs2a0wBWjZR+gNdQ0Ew6ISE6qUMiXQARPoDr065uoy3NBAMK7W5sqazHnoatnMJhM1tXdLOlhU/5qfFkArf7O3H81mX0TA4hLmUgr76yvqAQCWQtOiOKHF5sq27A7vrNKC8o5ijZhQrSq5kZHrcociBXa187j7t7cggpEKn/4x04g6zOyAxhzdWNbMUo8RXBajLnFfw0lxyUcWcRScZxs6cNp+9cQ+fEoFJcnbRUOQMjJuBwTHFgEzPQLSAODWA1gFX7vc113armwarpmHbN45cApcEkYxKiIT3SBLI6b15VdpYzAoqqtVMKk68Ym6vqsaW6nguy02ZLZPIcbUqECipfQvooBcKRKZh8b6lMGj1jg7jS0YqO0X4Mx0IKW9NjBpmZ4ciK59tptKLSF8DW6npsqqqD3+2DxWhiSkWKElYjA/It58ZNBRm6RwdwuaMVnaMDGIuHIVDQ4GMwh883dQZZGTfRMW6rbUBTxXoUuDx5jZvnmyLOiewkm0UslVTG3dmKzrFBBJMRCLKkCFkWYJTHYbOG4S7UwWxfPApZA1gNYNVsPZoGq0ZKP+BrCGRTUVEB2YyXNVnFXKwW2pYhPGI5gg4OvQUeuxNlviKsL6lAma94xnTMVIALgKICrMQ0JSEppBGMhtE3NoTO0UFMxMJc/YX4dh+31rqQlIjtym6wcHWiCn8A60oqUeIrZPYjIj0hEoRH/LQckQ6uU5xMp7hwQc/YELpGBjAZjyCSfrLHTVo8z73RypWaeNyBcpR6i+CyOaYpIB+de5prnm9ZRiKdYhrHntFBPkwEYxFEM0kIutx8k5AyMMnjsFqnOKjJbKPMhcXXtgawGsCq2dk0gFUjpR/4NWQuTsVExEISkik3RBRA1lPg0xpEF5PsFZRkWkWLwQSzwQTagEk7IWBZCGDp9hyFIdeshYy0KCBN+c25fXTx/fTxrwDK85QlGGTKmzbDpDeyXEQxC4NBSXF7uM2uyyuSz1XMICNmFT/rGk3dsgVH45aIF1gPm1GxXtBaoNzfucY9e66ZqlKWkMoKEKSswqs8A55Z6KUETLoxWB0puAqNMJmJBUvdYtAAVgNYNWtbA1g1UtKuYSIDISUiPiUilTBDEEmbdU1rsxSEpG5jWpYoZ8UdMQEH/ZlJ7Rdu05c92MfFblpWR1fx5jxkMAOwsyX0jI97moJ61rqYHjD/i+OHFa0VYRj1ITi8gMNjgsGU34lDA1gNYNV85RrAqpGSdo0iAdaYKPhJRCKShZCyQJBIo7UDOjNR/U9rtbSb0U8O2p7WXV2b+KdLAg9HftOfiZSG8ltF6CiQSReDwRCF1S7C7jbAZNUzzWa+TQNYDWDVrBkNYNVISbvmAQlQbAjlygopCamYBCFN5loL/0iSGZCNilWX/p/J+zWA1ZbQWkmALBsyM7zpdASuWej1aRj0KRgMWVisgMWph9FCwDqH71plNzWA1QBWzVLRAFaNlLRr5pSAEjxE5DcShAz9AJJA/jGK4FSCTYgmUgNYbQGtjQSmj3W07vSKb55c1UaTDiaLjs3ADKocFLa8HmkAqwGsmhWkAawaKWnXLCiBXO1VdotOW+mUf933fmoi1CSwdhJQ1t0MhirZTKoDmNT0UwNYDWDVrBMNYNVISbtGk4AmAU0CsySgAawGsGo+CA1g1UhJu0aTgCYBTQIawM67BtSmN/3QFpEGsD+0GdfGq0lAk8CyJaBpsJoGq2YRaQCrRkrLuCbnk1zGI7RbNQk8NRJgv+cyA4iehsFqAKsBrJp1qgGsGikt4RqKopVE5YeDfZYbtriEPmi3aBJYSwnkgt0or9QwHa27lu9fy3dpAKsBrJr1Ni/AvvbOz+Q77sMY8m+HaHFDygMgAoYQXij6JarqkvMWLFbTuaf1GlGQkIpmmPmIOP1o4yG+WK1pEniWJSBRFLkoQ2+ktBgDzHYTjGYizn/2Rn0fYCWkh4zEY6E1TQKPSGBegH393Z/JtwlgCzSAzWfdSFkJ8VAGEiSYzEbebDhl4DHVF82n79q1mgSWLgEq+aZULJJE8OGSzpQ2r5lB9llrOYCdvE4Aa1gxgKVgoac1YGg+MHnW5j6f8cwLsG+893P5tusQBvzbIZk1DVaNUJkUPy4gFRXg8FmZLSb3sTyDh3g1ItGu+QFJIEdUSN9BJpVFOibAZDXA5jKrqlDzNInqPsCKSA8a+FCx3MaFK/TqCw4s930reX+uitFKPvNZeNYiAHsYw/5tEDSAVTXXRB8YnSRKNj0cXguzxmhNk8APUQIUe5AIpzkGwem3PnPfggawD65qDWDn/soXBNg7LvLBagCrdoMUBRnBoRjsThNsPovmd1UrOO26Z04CpMXGwxlkBRGuQhsHPT1LTQNYDWDVrGcNYNVISeU19NFFRpOwOo2wPoNmMZVi0C7TJMBc1MlIGtmMBIdfA1g1S0IzEauR0tN1jQawKzhfBLDRsSQsBLDOZ8/vtIKi0h71jEuAADYRSYOsOs4CzUSsZro1gFUjpafrGg1gV3C+ni6AVcjQ75PykyDuE6RzqTmtaRJYogQ0gM1fcBrA5i+zJ/0ODWCnZ4jKquUgR6KCpzNNKXtF4CND4hJs8zW1AMuh+MgvWpDTHx7o14O90M+UhZMXvE65SwezwQKTgWq4ZpERk5BkGWaDDTaTHVkpi5QQ41QjSuJdCGyVuptKwWrq42oCs/KuXDH31X/fQh9vbtyzjyQ8+gXmaC03g/v9Uw5Rqz03D49NA9j8Z1sD2Pxl9qTf8ZgBlsBLAZpZxaXmlBlv84uAzFKFrdcZ4LMFYDc5Ec9MIZyagCRTHp8BZoMVTrOHwSieiSCWCfPfzdXUACyN1WFy8/usRsfM2Gn8OUCj91Lj9+h0PO5wahLB5AhESXjk1XS911oEp8WDlJDAZHIYkiTeB76HNn6D3oRSRzWKHBWIZkIYiLQjK4uo8Tahwl3H4xyMtCMtppAUYkgJcaVvDzU6JFiMNritfhh0RiQyU0hm49MAT0AvqgB7NbOmg0FngM3kgMtSwO9MZ5Msj0w2taqgPnfvdNwHn7UIDrOb10lWEhBJTyKUGmfZP85Ga8k83T9aY2kxiWg6yHNDB6q1aBrA5i9lDWDzl9mTfsdjBVij3gyfrZg3aKPOoFCYzmhD0xSD0xLMSBmEk2OYYvB7dLNfjqAtRjt2lh5FuXsdesN3cX3kFLJSBm5LAcrd9Sh1VcNucqF/qg33Jq4iIURnjKuz36sGYI16Eyo9DdgS2A+PtZCBgjZp0igj6RAyYhoBRwWD03himH/vNnv5vZeGjiGRiTKgzNagCPzr/c3YHNiLqeQ4zvZ/wUDsMHsYwKPpMOJCZEa7shhs2Fi8B+sLNmM8Pogbo2eg1xlxpPY9lDprEM2EEUyOQRDTPOb2yRbWch9udE+hvQxNRTvhtRUjlBzjjVwQBSSzMYwnBhFNh5ap1elgMphRZC+ZNRITAAAgAElEQVRHtXcDytzrGNwGI524OXKGAW2ttUYC1AJrAFtK9qPSU88HM1qfHRMtuDj4NVLZxHKW47LvJYuCz1qMjUXPodJbD0HMYCjahZ7QHUwkhniN5ZwDy37ZPA/QADZ/yWoAm7/MnvQ7HhvA0mKyGZ1oLNyBWt8m3jRp43Kavax5kSZJWgFtBAS19Oe2iavoDN5i8FvJZjO58HzNu6jyNKAjeANn+/7I4FLmqsWuihcZCCUpi9FoH26MnsVovG9OLVYdwJqxzrcZ20oOsgZLBwa/o4RlMRYfYC2jwb+dtcfu4C3YTG5Ueetwb/wqTvV+wnIgcLWanHBZvKxhEwiXumqxu/xFNuleHT7Jmgpp3nFhCh3BWxiL9/Hv6FDjsRRgU/FeVPuaMJkYRvvEdRQ7q7C99AAiqSAimRBKndXQ6Qy4O34Zl4e+Q0KIQGTN7L6JnOaLDiFVnkYUOstg0VthMzpg0JsRSo3izvgVjMS6l6U10YEk4KxGc8lhVHkbFe062oX+qXvon2pnDXs1zdJzrTNany6zD9XeRgScVaj3b2M5dAZv4o/t/4P7+Dhbbn1UuNej2qMcSlwWD/qnOnBt6ASGYz0r/g09PF4NYPNfARrA5i+zJ/2OxwawJBgCh4CjEn5HGWspNoMDO8uOwmy04ubIWcXUyX5PIJNNYDTWzydwUV5ZMxdpp4dr32Og6Ay24GzfF2xqdVl82FS8h4GWzH/D0R4Mx3pZU5vLTKwWYMkM21C4A16rn7VxkoNJb4LRYIZJT75REyLpIGLpKej1RpZNV6iVNbZEJgKD3ohy13rU+JrYZGrUG0FaacBVyRs/aZ9dodtIClGEk+MYjHbyv8mH7DIXoNbbhKbi3Sh0ViCVibH5OeCqgpneE7zFWvV6/xZIkoSe8B0MRbunZT/IBw+l6UDgZ9KbYTSYYNCZYCVzuqWAgV2Q0hiJ9SGUHJ3XpL7Yx8Gaoq0EzaWHsaFoJ8LJSbSMnEJP+C6SQgRZWWCfOJmqSQZkTs+Z9meb2Umbz1k9CBzJnE1/z/5cWYYoC3x4YMuAjszRJv43acbsLZ9lsqe1R/5qcm3QPLhMXryw/gM+JPaF7+Gztl+xqfzhxs/RG/jdOZ+18m6RrQ25Q8L965Q+UFNcI3Rd9v51Oj2MNA49uROorzJEKcPPU2ZHmR86PFZ5G7C95BAK7AHcG7+GK0PHEaRvaz4CXTYe6WGAkWVLpiV24chKWFzuHxFZQEdujEdnUgPYxVb3o3+vAWz+MnvS73isAEsbF/kDaZOgb9RtLsCPN/4tm9y+bPuf6Inc481P2WRoM8oqm9EK14DLASz5IHtCrQywpCkCenisfhTaS9nEOpEYZoBZqg+WNisCn9qCTawt03tzGz1t6gW2ItZqo0IY0VRwWmMEBEnAaKwXbZPXMBEf5O2T/KelrhrWGAlYdLIEu9nDpmcyYV8cOAYZIgcuka9yMNKFVDbO7yRwbirexVovbdoEFNQv0pppfOTvtBitEKQMomkFLO5NXEPLyEkGeNpgSROu8NTzAYkOANQnCgajA4LVaGfw6w3dZa2OwDbfRhs69XVj8V7sLj/KsiBguDtxmeeGDgu5RiBSV7AFJoOVDxJui4/njYCMDkNk9p9KTzJIOM0+Nvn77SV8sCFz6VCkG8OxLmTEFCwGO5vwaQ0mhTgf9sjXSptfMDGC/kgHm71za4D86S/X/YwPJP3htjkBluaYxlJoL0eho5StFQadnud1PDGEntBtNsHTO6xGJ0qcVfxDrgta6zRvZN0YjfVxnwjc3ZZClLlrUGAL8DdE1wxOdWAk3jfrEERLg+ToRmPhTuwqP8rzc3nwO9waOzszl48cBiQ9PKYAan1NvC4MBhP0BLQM5BJ/h4lsDAPhDowleyHpCGgffIoGsPmueGWuNKrE/OX2JN/x2AA2Zw4mPyFt6LRp02b1Sv3PYTPacKrnEwxGu/lEPk2Xz2BAQTkEdnSSphN6TttQI2QaLJmdZ2sMdB9tfkdq3+dNKJYOoXXsIrpDtxFOT8xsVsrG8qCJ9OF3LqbB5ja7ctc6+O2lrM3QGAjMaGOt829lWbRNXucNMxf4Rdr0RHKITaMEICSPAvv/z957P8l1ZWeC30v30lZlVZZ3cAVDeG8IAgRoQTbZZGsktRkpRrPmh/1lN2J3/4uNjZgNzWglzexoJI26pW5J3SSbZNM0PeFJeFNAoYDyJsukNy+f2TjnZRYKQJnMqsyqzMJ9aogun7nfNd8953zn3GY0edfAY/fCQtavxc6L4Za6fUx4ZG2TuIUEStSWe1PX2c3L7kObh13EnYEdSGYS/O8oFp7SEqiWA6RvRiITY2JMqynUe1v5m871f8T4UF8RORFe62q2cjsUPc2LLy34Dd52JvVz/R/j7sTlRbkjaXyQ+/X42rfZFUsu8m/7fovJxyxiwjTgasEbm/89E+tEcgxuG6mhfUz0hNmZvg/RF77D42trw0F2wbvsXu4+ageR3IWBT9Ebuslei+Nrf4Q6Twtb8mShc4zc4kA4PYlLw1+hK3jRjGlnx+x8BGuSYQCbA3uxPrADHruPicpt9/DGsjfUhd/f+yeOv9M3Uf89U3+ANwgZLQmNxp2u8vfTuCSPQLVcxyGGdbVb+bvI4KQQy0D4Hi4OforBaDcrwXMXfYPf2Yija37AIRkaG5/3/DNGYg9m1TPY4URn1W4c3/gWatx15iZ42pom8Z3KG6/v+77AhcHfQ5HigmCLoGsTBJvPKl5Zv1kxgqXdOS0mHf4tcEhkARms1CXrjsiiL3wXsXQImCFoSmkpjpH2TF3jRZ1EL62+dWy5LHwmlsFuX4rdDUS6s0IPs7OIYJ9f9wf8PQQIWYChVBDBxAB6Jm5gLDHILuqc+22uLl6IYOk+svwaPR1MGuwatsocE6UFss7Txo8eiVKMLMPCL3Ibk/V5ZfQbdhvT5oCeQfd3BnbB5/BnU4gMjhOTNUoxN1qUb49/z9YRWd4xZWo6FkrEQ5YuLfpkaZIVR4s7WXABVxMTcyg5ztYbWS71nmbcHr+EM/0fThMsESCRMcWByUlL/UEisc11e9hyvDz8NcfMY49Zm/lOD2pHZ+0uvLrx3/J4ODfwMS4O/h7pxwRERB5kRf9k5/8Bv6sO4dQk7k/e4I0FucGJkL/te5/7nIj1YNsrcNu8uDV+kePf2xuPsDV7d/wKPrn3cybm1zf9GbeFLHq2CqO9aPdvAsU0yfX+Te+7GI7eZyt2fguWdAYedm/vb3mR+6Z74gq78DcGdqOtupMt0/e6/gsiqRDW+rfg5Pp/gypnLe5NXEPP1HWoWoa9HKYHZYgVyntaTmBfywneGBHOKTXJVj71IQnWaHNKIrOZF823vc0ncKjtFe6fD+/8PbonafPzpCrdatjR4d2KExvfRntNJ2/YZqr86RvG48P48u67uD5+BprlSQ+FsGDzHekPfycItnDMyv2OFSNY2hWTAtXvrJuOcdHCd2ztW2zRkUUxFuuHNu0KJOtTZZcfCWgo5ki78Q21O9giW4hgqaHkWuwa/44XLrJOclfORbzev5UXvJFoH5NUrauBLQuKYd4Zv4zxxAArMpdGsHa0VW3E9sZn4XH4mGD9coAXOno2xZxzqRS0OJMl0z1xFb/v+RUiyjhvAIhUKPZK4itTVGSnY2ezljmwvnY71tds4/jpuYGPeEEnq4PzX20yGtyt2NP0PNbVbuf3EdE4KPZrk6FqCronrrHYiixIco/XOOtwM3iBLUhWBWeFTmaKlYWtb1IkU5yPFvnvs65cJtdFKr5p80FW9iudP2UV9Dd97+FW8MIj7k/qB5NgO/Cznf8nfM4aJjASg5FLeUfjYaTUFG6Pf8cegcNtr2JX8zH2AlwbPcNq6a31B/jbyTr9hyv/F29e3tj8ZyAvw1D0AU73vY/ReD9bjCQio/Hw+f1/Ztc39dN8BEvfVu9uw+H2U7wZIiX4+YFPOMf4cMdr/G7qm3e7/gt/37PtP8DBtpcxlRzBx3d/wda36Yo2XbOEO6mDX+r8CbvER2K9uDz8Dbua9zYfZ8KmOPBvbv81hxhmir/IEt9UtwfH1rzFc+7Te7/EtbHTT2xYeGwbElwW0xuyv/0kWqrXZsMA4Lj8VGIMF/s+x5WRbxFRg4DlydxwQbCFL/2CYAvHrNzvWDGCNWN2Fv6Tu3xyAD/e/r/xIv1B139Db+gWW1i5K5cwT4sOkQq5RL32ahYCzSa0eAT8LAERQZA1MDOOOlPkdH/yGi4Ofc4xuBbfBlaIkrKZvoUENsH4wJyWbH4WrA1tVZuws+lZdhfabU4WJhGJUIrLtBiH44V+tFStY6ud3YjK5HT8meOmci3afZ1mPNdBLk9So0jw2n0IuJoRy0Tw3dDnuDr6DRQ1yRuZek8rL5xkQZF7njYxpHqtdTdxXHMk8oAtV7Jqx+KDCLgasbl+L1tu5/p/h1CKyNqMf+aU4Bvr9mB/80m2BImoyKq6GTzHOcOLjZc7bS7saHgOL274Y0ymxvD1g3dmdTfPJFjZ7sKX93+D74c/Y4Il61qnmrhqjF3gx9b8kK3JeCaKycQob2qIID1yFW8cfn3jr7hNr236U243byp634eip7C7+TgOt73CrvMv7v8rb9IWIljqozX+rTjW8Qb87np2sZOLmeRDz619E9vqD04TLG1sTm38Ux5vfeEuvHf7b1hYN1O1TV4C2py9tOHHTKbh9DgmSbxm6Khy1MDp8GAo0oPf3f0HhFKjj2BPXgBSr5Onhvrpi3v/gsujZP3GZ1+jDAvclmpsDuzD/g4i2TUcvphKBPFdH42p0wir4zBI5DTLJQi28KVfEGzhmJX7HStIsE9CQ7Gqn+743+F2+PDb2/8V90M3ZnVh5e7MVUTKH2QqVvFkZaLZVMRk4ZJbrd7dxDE+WpQpl5DSXuYCrSCCbTwCN+e/Onnxp8WeCzpIWfKiWKnVjWpXPe6MX8In3b9ANEuw5K4jUt7dcoKtLxIjDYW7OW+WFltKyWjwdMBp93D89droabaaiH9JxEPvI6KhxZrc4eSeptgp3ZtUYqj1NDJ5jMeHOD824G5kNzOl65DlRthQSI7EOkTWe1tOcvyTYplkUROxXx7+CncnLs1r8c/XbyTG2dpwAK92/gmTwDd97+Pa6LfzWrB2mwMf3fk5rgfP8O9YrWuYGwESGB1f80Nsqt+DuxNXcXP0PGIZEnCZymFFz2A8NsAeg9c3/jtUO2vYyj3b/zvetBxofRn7W0+yu/jr3vcwFLnHG635LFgiNfKyPL/2R+zqJw/A9ZEzvIE8uf4P0Vm7E6PxQbx7+695Q/Py+j9mzwaNs9/e/huOu8/0AFBftPjW4+XOH7PA7erwaR4baT3JLlxDIkFUEpNZMd5MfMlTQor4ox1vwuuowsd3f44bwXMcFpjzYpKtYpLd03oMTocb1wbP8Hiaj1zZCBa1iPNflrK/FARbMGRlf0NZESy5PX+87X9ly4wstu6pq+z25PhPNm2CiGjO9IJFwj0bwVJ+ZS5Fg6xlsu7o3fO5PBdDsBTfku0eDEzdZZcfxdxM69DC7tmdTUc5LeXz+/+CqDLB5E6WUUfVJhxuf52J7Zu+33JsmRZX2j7QfyeiI0uU4s4x5aEimVhWJvdr42GOSZrVqcLsAiS3Oy3cFNPMGCov1JSWRGRFv+sNd7FAhvKQycLfUncAu5uPsRDo++EvMRTuwdbGgxy/JCKmuCnFTHNlKAsp10fWGqUhkTuUUoso/npu4Hec9zrzmmnBmgT7D7gePPuokhZUPasaRzpe5+8diNxjpTjFUU3Bljyt1iXxmUmwtbg+dg7fDX7GRTTIvdzh38jpY+cHP5kucJEj2I2Bnawb+N3dv0eUXeMqx6XJNXxy3R+w6pfcw7fGznO7DrS9xO5ecgP/+uZfIq6EsKf5JJ5f9za38asH77JqPKOl2PNADmJS79LG6uUNP0Vn7XZWdlPfk/BJslhZ8ERzgwpdPD5OyY1/uP1V3gzRBunDO3/Hoq6FdAXkLnbAg4DcxJutqfQoEkbETM+Z5xIEW/hiJAi2cMzK/Y6yIlhKJ3h1459wcjwVRqDcT0VNZ/NEbQinp7iyUChd3Oo9cxFsoZ1XEMGyi7iK48pkUZL7jQk8t5tlQZQdVquNXcQUk6ZYKVmWtJi2+zbiuY43UONuxLe97zH50f08SbMFOyjGHU6Ooz9y55FUGbKat5OKuG4XW6k3gudh6DrWVG/CgbZXOF5LpEsK7Qehm7gzfgWxTIgtSXqHKZI6gl1Nx/h9Z3s/QvfUFW7Lzsaj2NtyggU5pN4loRARN1m8kfQ4ewLycRsTKRPZHWl7jS3ZB1O3OQ5LyteZ5f7yIViClGKrG2q240jHa6wQpnzQ28HvYLPK7AWgnOEzAx9yn7y+6d+h3t3ChRmomAUJnGjTQIVGzg78Dn2h2+w1oMsk2H+LzfV72O18aegLjCdHMZEY5GdSkQyyGomAqf8o55iKUpD7mnCZSIzgn67/B0wkR9DgacdLG/6Yy1VSStDN4HnOhSbhFeFGY5/Il1TGRzpO8bup6hhZ5LQ53UAaguQgLg1/yd6QnHuZxgM9mxTZlHpDVi9Z4ZRnnleMnL0AVo7NUuoXB/wXuATBLoTQk/9dEGzhmJX7HWVFsLkCCvtaTvICl7toOpMri8vjjZ1DMN5fVCuWqiJRfK69aiN6Jq/h7MBHc8em5unR/AjWLJVIBTWIQEitTO7BXFGBJx5vGEhraUzGh3A/dJNjwCRMctl8LLwhtx9ZYGS1EMFRHp2NCgRYLPxcSpOhOCxbklzswMbqX1IRr6nZjGBsEH2hu2iuWov1/meQ1JIcKyS8SRBE5E+iIBJa0QJP8WsqW7i39STq3E34fuhrdE9eyuZnSmjyrsMLG/4QfrmOrUiyEEmoNhbrw5Xhb1gwlm89XFaV12zjjQQJc8hl+93wF1wyM+fFYEuf0nS2/I9wWO346sF76CbLb5ZqX+Qy31i7i70CfrnePLyBBUQaeiZv4pu+dzklh1J+Wqs6uc4xhQQIV8KJREG94dscz85dZBkeX/tDVmTTt7ACOzXOLnIaS4T3psAe0JgmS5gUuBRLJ7IlHAmLd7r+GhPxYdYVUFETsm6bvGu5vyjeTelSFJel2DYJ7TjNqv4QK6CJfAkL+i1Zu6QcvzD46fT4Natt1WFf60nsbDxiCsYevId7oWtPuNuLuVgJgi0cTUGwhWNW7neUFcGS+9JqsXKckKw3k3Sy1WM4h1XhhPyZOX7FAJjcoxtqdnKcjty0veGbi4od5kOwZBVSusfO5qOcEkOWiULK5LmMAm6+zik6ZMlSfI6tWCpKYHVzTdzW6k4ma6oGRepfUqaSZUoLOVkyKS1uVjySLEyu5B5eX7OVXbtE3mZlIQPDkQccmxxPDjL5VMv1WON/Butrt7HbmVSwVDqRhGceWxXHFSn9Z2bBfa4v7Wzgggrk2iUXPxHOZGqURU8PK0Et3HO5kn+Uu0oKXptkx63gRTPVJTXKdZnJbUpjheL3hAlZfIqenNVK5upGVDHM7oVfbmD3Oo0n+j6y2EkMRVY/WbAkcqINzbXhMywmosIKtEl5PK2FLGhyP1M8mnCkDQW5+eNqBIqW4H4ljwHlrnrlGr6fcrmpdrFskelIBxaG5Q5xoPHvtPk4TsptgsT9SMSYznoQqJ2UmkaeF+p/r+znohG0WaP4N30npVdRO+lQCVIcU8oSVY4iTwh5LMi6LmWJSUGwC4/vx38hCLZwzMr9jnkJ9qbvOIYDu5BxVEHPJprn06BG6xRO1v8FOjqTsMsPVcL53LsSv6GBbZMcnPhP7lFaIBez+ORDsFTNiSwpSrGhRZAsQipxNx/DEveSlULkNNsCT6RGBEgFIjSDTrHJQKXSf4ZZ/m/mRXE0SoMicjXLHTr4OxQjxURJlmvOOqR/T4REYi8qh0hWMhE2lxCcLjzw5M7AxJM2SGYBEcKULLfFYMp1f6l2cv0hdhWT8pnSrci9e23sDKKpiekSh9TOvNzP2SP2yC1PNix9n1lyUULA04rXN/6pGYMdPctx5IXqHec0Ag9xJjEdf830vyIsiYxzfUl/zU2p2b6ZxkmuwhnFSWdz5ZoHPlD5RcJZ43hqrnQkuaGfaTiIrfX72R0dV6Kc5nRz7BxXtSr2gRmPz1tBsIWvZIJgC8es3O9YgGCPYSCwG/oqJ9hidVI+BEvvyp2EQ39vLnQLx7SK9Y2z7ZpzeZbzvYMmfz7kVYrvJJIla4wEWFSMgdKXKHZ5Y+wcW215xRHz+jCzotXxNW+zdUv5s5SaNa/SNq/nLu+PcqfpkMKbqnCRQI2EcsOR+2ylF1skOFvrnh6C1ZEesmKuss6F9rwolVgoYuX9+zkJ9tTbPzNuVR3HUO1uaPLqtmCL1UX5Emyx3vd0PYfCBza2vFlVa2iPWNvFwoKs9daqDezypbrP44nBhZW2xXp5EZ+TO8s4hxWFV2YeFlDEV836qKeFYCevEMHaikawvAEvwFtY6n4s5PkrtQEv5BuX+7dzE+xbWYINCILNt1OmCdZjg9PngGSZ5ZiRfB8mfrciCJB3gYicXLTkOl4wjWVFvrL8X/qQYHV4al2wWlfXXKC5HupPY/KKUVQLtvx7dmW+cLWRt3RKEGzBI0lTDYSH43B67XBVC4ItGEBxw6pBIEewqqLDGxAEu2o6doUaIgh2BvCVJnIq1phhgh2Jw+G2w+0n0dTq2rUXCyfxnNWPABNsOA0to8HDBFv+YsdCekVYsIWgtfTfCoIVBAtdMxCbSrFmyVPjhNUmCHbpU0s8oRIRIGJNRsxiHO4a56rbbAqCXd5RKQhWECynZiipDBKTClxVDtjdtulUDEG1yzshxdtWBgGaA2S9KgkVSkqF7LFB9uRy2lfmm0rxVkGwpUB17mcKghUEywjQcV6pSAaZlArJaoGFxB38P/Ov4hIIrFoEdDqT2OAjnMmbY3daWY9gta8u9zD1nyDY5R3FgmAFwU4jQJOPCFbL0IKjs2XLJ/8Igl3eWSnetqwIELGS9Wq1S7A6rLDLVjP2ugrHvSDYZR1aK5aDX6pWChXxEpGlHRft4h9W9FmFq8wSMRK3r0IEDIPjreS9Wc0bSkGwyzt2hQUrLNjlHXHibQIBgcCKIUAEG+5LY+Jq8QtNrFijyvjFgmCfINg/x5oNadic1jLuNvFpAgGBgECgcAQoJW/ifhzh24AyYIeuFv4McUf+CAiCnYFVgyWE43V/ibXrI3DMUNLmD6f4pUBAICAQKF8EmGB7EghfBdJjxS2VWL6tXrkvEwQ7A/tqKYJ98q+wZd09VDVYYLWtPhXhyg018WaBgEBgJRHgdLxEBuNdSUSuOqDF6CCMlfyi1f9uPolrFWG8JJGTTU9iXeIL7Gv7Cg3tGhxe+4y6vI+jZIp/JMmAZJVYdbic4ghSPWqaDl3js86A7Nmoq3/IihYKBAQC+SOQFSmSeFHVEB3LINarIz1gg64KAWP+OC72l2b6l6FK0DMregDZYhvwyH1LIliLlkLD+Hkc8v0eNR0h2LwS54NS5UBDepRgJSM7OCUJVlmCy+vIupVLPGgNQFV1qCkV6VgGmQyRrAGrRXriG4uCqHiIQEAgULEIUB47W6mGmRmgpSVoScDI0DolPHSl7FiJTny26DAUQAlZoIxL0KIW0yiq0GtJBGvVk2gPf4P9DV8i0JaAXG3j3Lj5jmHSVQOZpAZN1eDyO+Hy2NiiLcVFE0RVNCTDCtS0BqvdCpuT8vUoxUBMllJgLp4pEFhNCJCdsIo8luXdNdnqYLoOKFENiVEdsW4LlCkLQMdpV+C1JIL1IIadeAdb111HoMUCqyMPty/tCjWDSS8dz8Dtl7kKDFdCKuKVI9dEKM3kSsfKydn3LKdruohNEo8SCAgEBAKrHwHDrBCWmMxgoktB/LYNWqq4/LBcIC6JYOssITxX/V+xtnMcbt/Derz5fDzll8Un08ikNa7nW0ySfcRyVTSuk+r0OlZlKbd8sBa/EQgIBAQClYZARtERvBVD+LIdaqQyBWZLIth66xRerP9PaN+QhGMRebBEsslIhpV6stcBl2/pluyj5KpD9hK52ldtKbdKmzTiewUCAgGBQD4IUAna4J0YQlctyExYWfxUadeSCJbOg32h/j+ivTMNu7y4mCblmdFxVybJ2ln8lCucXyiYT1iuXrtJriJ9qFAoxe8FAgIBgcCKIsAEezeG0DULMsGnlGBP1v8FOjqTiyZY6kHTklWgJFU4XDbIbhssdku2dvhCvveHEgQ1Y5K1xm5hO5y+5SHX6eTomYKI3Gct9PmLHcL0/JwwO/sMFpeV6n2L/U5xn0BAICAQWAQCRLDj3XFMXbEgM255Oi3YYhBsjmRTMXIXq6zaM0W+RBgLkAYfTJklG938e4fHznHXUp3wwYRK/8uq3miDoKs6bxRyx3hNSw9LRHj0DRY6uccCWOi4PBv9oTQpC2MnUSF2oeZaxLQWtwgEBALlgAAT7L04pi4Lgl2SBZvrTF2j4990qBkNWsZ0uC9olVG+GhGyJDHB2BxW/lNsVTJ9C5EaF6zI6FDTOlvcRKpMtJw3lzNh6e9LxKxZsAzo3GZzA5IlU4lwALefzuikY8SYeOlfiksgIBAQCFQQAg8JVoISXLoFax4lWrq1cLYyj9Kpt39m3PIdx1BgNzS5CnoBH0Ax2GJZsLl+nyarrDWar8uTYCOrzSSbIo+irGxcoWIVCcqp1ZloKV8rZ2Tze3OmNBXayLlti/wp0zjBMA93z76ItyMmeAwZYUGbDIfTzha9zSGItkRdIR4rEBAIlAABjsHeiyF02VIUgqXaB6Wqf5AzsB4nWZNgq45jMLAbumPlCbYE/bSkR5pWtYZUNMMpRQZJ2bJu6wWt6yW9eZE3TxvRtCswfeeSxQKnx8ZKbRsVAhEW7SLBFbcJBAQCy4VAMQmW1uK+iIYAACAASURBVGoi11JZsPMS7M0q04IVBPtw6BBgqqIjFVOgxFWuY8xWoSTBWJxgernG5YxGmFYtxYWpVKXVJsFZ5WABmFBWL393iDcKBAQC+SMgCLYELuL84S/dL8n9S/HVGFeBUrP1lS2VQ6yzQUMubY1c20Sydnj8TtgofanY7vTSdYt4skBAIPAUISAIdhUSLJFrKqYiGU6z2IrqJJeqVvJyzxUuYq6bhx3YZRu8AReL00rlNlnu9tH7ODaeE5sZZlRcXAKBlUGAlBE0v8xRyCIb2tMWXSSyMq0r9VsFwa4ygiVXKqUKJUIpXqgp5aXEYuBSj9HZn08klDG4drS31sm5xxUbl6VQM28aKJ/aMNXdCpBRADpYwsidxCEs9ZUZa0/rW1kYqcFitbKK32IHHDJtbC2wyRZYrZReJ/QQ8w0PQbCriGDJqkvFH5KrZF3l7tOsy9hmtcATcC3P0YHFXGyzxKoqBpSEjlQcUNIWaIYM3XDCgAwYtuy5v4Jdiwm9eFZ+CFAqHSv9WfGvQEIakpSAxaJAdklweQCHyyKEh3PAKQh2lRAsu4XjKluuJGYiy/VpiE2y8k01OG/WU+uCTPWkK4CLyANMyu50XEMiZoWiEKmSAt4NQ7Jnq45wslJ+K6H4lUCg5AjwIbMUo4FkZGBBDDYpCoczA7cPcLgl2GzCop3ZDYJgVwHBEsmwoGkqDS1DLp2ng1ynB7JuFs+gfFlPjcxkW868RIU9lKSBRAhIJmWo8EOXvACsy3MgtmHCQ5YJV9LiA7qp2IlZWWtu8LJqbqqwxRnTFCvWzWMuK20f8AgGVNI0W2QlVxjmkQaZ7TaLnUjQs+3mqGRFtzvX9zMK4szSbq6oRu0mNT+3ntptkq1kKLAgCrs1CpdbgYuI1mUpSZGcku8fSvACQbCrgGDpQPboRIpJlipBFRSLLLaCZqUWHMqX1cF5su7q8jzWj6xWqqCVoIOYwzYoajU0+LMW6zLkTVFpSlhglSxw22XUuLzwuTxwWO3ZYh8GrBbrnEVO2OrWVP4NEWtSSSGUjCGSikPRVahGbvEtwUpVrEdmMbBJFnjtMqrdVfDJbtittuk3WDnX8OELc+2mUISmG0hQuxNRRFMJKEaltJu2b9T3EjwOJ/xuL3wy9b3NLJlK27tZ2q1qKudeTrc7GeF2ZwzN7G/GSYNkJGFDCLIzBm+1Adlj5ZS6p/0SBFvhBGtoBuIRBYnJFBtAVFYw30tSacWkGEtOFbiUCWGaBIZVMv8s5VH5NmDm71iQofNiQFas02MvbKOxmHcWcA+Tq6IjHs4gFnYiY9RCl6oAPFzYC3hcwT+1GIBdsqKpKoBWfwOaa+vQUlOPWp8fbtkJm4WsZ7Nc51wMS1aurmuQJAvSagaRRAzB8CSGJoMYDgUxGApiKhkFV+Je7v7PAxGLbmLQ6q9Da00Dmmrq0FxTj4DXD5fsNJP4uYb4o1Y8t9sw54miqggnYhgNjWN4ito9jqGpIEKpOFSy7sqt3YbpF5ElO7e1tbqO+57+vsZbBZfs4g3XrH1vGNCoKI2B6f6mdlN7R6bGub8jCpEtFa4hazYNqxGG7AzDW63B5aUyp+UGSB4DpYg/EQRb4QRLVmskmGQXKafi5DmeJZo3YQUIqbAaBuxUYJ/194sfXYYVUD1WaB4r9BWYWISB6Sq2wVPj5DrG5XKR5RoLUV6yAxm9Abol5xIu8RcSHhYbGjzV6GzswNaODdjQ2I5qtxc2m40XV7OalyllWegyq2bTTsokHVXXkVbSGA1NoGvwPm4O9KBvcpQXXq1ciFY3IFvsaPD6sbGpA9vbN2BdYxt8hIHVmrXcTJKZCwOz3WYIktutaUgpCkZCQXQNPsCtgR70To4gpqbMdpfDxe22obkqgM3Na7G1fT3WNLTC53Rzu2m+L9T3uXbTBpHarelmu4cmx9A1cB+3hu6jd2IYCVWBJlFsltaTEJzyFLw1GpxEsrQuPaWXINgKJliKC0XHU0jF0rDaC4s7ShkD+mACRn8SDhVwOmywL2EiGFQdyiEhU+9Aus4OXV6Z9CCy6Gk6u6udXIyiHA4JIHV3IqIiOmlHWq2HbiHLNX9Pw2LXJtpsyLBiU2MHDnRuw/aOjaj1VcNus5mbqSJdRCeapiGRTqI/OILLD27jcu8djEYnodJObiVzJjUdTosdz7SsxYEN23mDUe32wWGzLzmXM9fueCqBvuAwLt2/jav9dzEWD7H7NK8dS5H64InH6Ga7tzavx8HO7djWsYE3FOQKX2oOq9luFbFUEr1jg7jUcwvXBu4hmAhDZXcxkewknM5JVAXIXbz0d5YKplI/VxBspRKsQSkdKkLDCUgWsl4LWzAlxYB+PwatJwZnRoJbtsNGOW2LHHHkGjOcFijNMtJNDmgu68q4yyiepOpwuEjw5OR8vZW8yL2YTmiITFiQTNVxzBVS6S1rJlfJim0t6/D81v3Y0rYeXqe7ZIXC2bgzDI7RBkOTuNhzA6e7rmAoMg5thcTQhIFLsmFXxyY8v20fNjavgVt2LZlgHh9PuXaTFX+x+zrOdV/HUGSCXcaLnlBLGLSGpsNjlbFrzUYc37ofG5ra4SlVu1UVI6FxnL97DRfu3cBwbDJLsgosRhA+bwRV9XQ62MrOwyXAuaRbBcFWKMHS4hGbTCERTsPimFuYMufoUAxoPVFo3XHIqgUe2Qa7zbJ451aWYFUi2GYi2JWxYM0sgqwVW+OE07uysVg1oyMynkEsVgMV9QAcS5qwed1sgC3XZ5rX4sWdB7G5dX1JFti5voXcpxPREM7duYKvb1/CaGwKarYSUF7fX4wfGYBTsmFnWyde3HkYnc3tcNrlopPrzE+ldlNMmtr97Z0rGImHoJka6+W7eGNlw941m/HizkNY39gO2e4oebvHQhM403UZp+9eZQvedBcn4bAMozqQhqe6ggvBLKH3BMFWKMHSwj01FOeTcQoRNuXGiqEYSHXHkexKwKHZ4JVl2G2FuZmfGHcuCUaLFXqLFYZ7BYRO040zc2NJUUyCp5U6FIA2QckoWa92JNVGGJyKs1gfQf6z3A4LNgRa8NKOw9ixdhNbrkt1C+b/dvOXFKsbC0/iy2sX8M3dy5hKx5fVo2GHFZsb2vHqrmfxTPsGuGQ5WzCh0JYU9ntylZNF99nVczjdfQ2RTGJZ2+2gjVXjWry66wg2t6+D0+FchhFnhghI/PTplTM423Md0UyShU9WfRIu5yhqm21PpRUrCLYCCdZ0O6qIjCZMld4ijm7TFQOhWymEbyXh0B3wuFyw2+1LipdZXIC9DbC26pDcK6gkzZ59S24pL4mdnBQDyn+hpPiklYo9SEQUKvTpWoX5P4NJJqMjHFQRiwWgSgEAVECitBeFPGtdXry8/TCObd2Lak9VNrd16e/NnROZL1nTots/PoJ/PvMxrg31IEMftwyXpBuod1XjB3uP4fCmnfC6PMu6wSA3ec9wP/7l7Ce4PdpnWu8FjL/FQkQq6WZfLU7tOoqDG3fA61rejZWiZljo9u75L9AV7Dfj70YaDmkQNXUpuPO0YnOBqmlhWQGAWC0k3KP4uqkIn+/izG8WbmWg5THH6bvo+aaqnKRsC4vZBMFWIMFS3dr4RAqpqAKLfXGxTk0xEL2dRPR2CrJmg9tNBEspIwsNy9mHLIfZXESuEqytgLGSBEvxQM1M7qM6xU5f/oIWIlefowZNvrU8mYai9xFJjbOCspCLVJdUWSs8YUNSaYQB36KxLeS9ZMHsbt+IN/Ydx9qGNlaLzrvIUNw0o0JRFD7rXpYdcDgebgRoMUmlFKQVhX9HY488HbQZczpl2GwUnph7zKSUNM7cvoT3vv8ao4lQ6a25rGv44PqteH3vMbQGmlglnO+VUVVub0ZRuLgEtU+WZcalEMFcPJXEVzcu4KMrZxFMhUvfbgBO2PBs506c2vscp+EU0m7CR1VVpNNmu2ktoHFQ6OHelLr1+bVz+P2NC5hIRWFIOiz6FDyuEdS20BGT868vRGIOmxN2i8ykl1YTeW9wrZINTd41aKlaD6fNbaZcSVb2XGiGyvOP/pnKZZiFVYB4JoKB8F1MJIbmJVka4x5HNRrcbUirKYzF+5HRlWxlq7lHlyDYSiRY1UBoKMYpEotxD/NwUAyku+NQ7iYgqxLcTnIR00K0OILlZ7os0FtsUJtt0FfSRZwV3NBhAJ5qGe4aed7FkUjVbnFyAQXa/XZUb8YzjQeQUdO4GTyHsfjAdKWjjJZGWkvwP8936ToQm1QRCfmQ0ethSHK+a/yif0eGUo3sxas7j+DkjoPwkGt4nqeRhRkOx9B19wGu3rjLRQj27d2K7Vs38gJLTUwmkzh77gouX7+LeDzJ7dZ0HfWBGhw9shtbt6xn8pnrot+Tq/hvPvsNbg7fh0oJuSW8CIM6ZxXe2n8Ch7fsgtvhzPttqXQad7v7cP7idQyPjHPOr1OWsX1rJw4e2IHa2uq8vQG0IRucGMPfff4ubgV7oS9hWuXTALJem7w1eHPf8zi0aSecjvzHGxFqIpHE/QcDuHLtDsLROLY/04nduzajyleY9U+hgZ6RAfzy9EfoIuud+ttIQZbuoa7NCodzfr2I3SpjU2A31tdsR1QJ49Lwl4imJ9laJGuTLrJOiSipaApZkjlr0mFzYX/Li9hafwCKpkDRkmjwtPJGeTjay6TtdwagaGlElEnIVhffe3X0NG6MnQXN7dkuel+1HMDelpPYULMdQ7EHONP3AaZSY9PfNFcfCYKtQIIl1+NEX5Sy5gvaVc8cBKwi7olC7YmzitjjsJtnqy72kgDdaUWm2Z4VOS3OsuYJNMcaXFASP7mJVR3OBeKwtLv1OvzYXLcPDZ420AQPuJtQ72lFPBPGVDLIk8hmkZlY7wQv4db4eaTUxLxIqRkDkaCKaKweGruHl4Btnn1iMyx4prEDP9x/Apvb1s9rvRK5Dg6N4fOvLuDK1S5EonF4PS689MIRvHTyEFunRI6xWAJffP0d7tx7gJrqKjgcNty6fR+jYxNYv64NP/nDU1jT0QLrPCr2RDqNTy5/iw+vfIuImlrSHm4hKCj+vKN1A2NA6lnaNOVzkfV2p7sXH31yGvcfDKK1pQFenxvd9/ph6DpOPH8QL588BI/Hnc/j+Ddkxb574XN8cesiomq6pO0mz8W+js14Y//z6Khvydt6JXKdmAzh7PmrOH/xGkZGJziccvTZvTj10rOor6/Ne1ORAyaSiOPXZz/BN3evIM5WngqH0Q9/XQJu//ypc7LNjcPtr2Jj7W70TF7HlbHTsJHLl44aoI0tJDitLiY8h9WJYGIQY4l+DuWQ1Xqo/VU8U3cAE4lhxNIhdNbtgd3qwO2xC3Da3Wit6kRCibBnqtpVB5fNg2ujp3F15FsoWuqJvqXNt19uwL7WF7C18RCiqUl82/cB7k9dz/5+/g2jINgKI1gu25ZUERqJLzr+yiTGaTqmithJFiypiAtM9XlkNDLBZtN0WEVcKMFKsMLGu0wru3X4K7NRDrNOrq5nkNJpocrDXZut7JSrT2yfoz4xTVyfHOBdb4d/E2pdjfC76nn3G4wPIZwaR1yJIq6EEUoGMRLvRyQ9Mb/bilKoUiRukhBPNkJD9dI8A/ks6VnlMLkIf3ToRQSq/PO6bqPROD774jwuXroJstyoPjLVmn3h+QN45cUjTLB08fGHqRTIdWq1WqGpGi5fvYOf//J9uFxO/OHbL+PA/u2QZ7iVH/9csmruDDzA//fZrzGcmATlTJfqIjfpK9sO4dU9R+H3VuUVe6WNRDRm4vHp5+fQ0lyPUy8/C3+1F//yzue4dbsbDQ11+F/+5z9CR1tzXs+k9hFmVx7cxi9Pf4zBGLW7RNa7YSqHX9l2GG8ceJ7LX+Z7ZTIZfH/5Fj78+FukkgrjkEyncOzIXrz26jE0NBROsEomg3N3r+A3F7/ASIzCAhps2gQ8vlH4G8lNPPdm0+Oowovr/hhr/M/gdN9vMRofwOGO1+CX66a9MbliJ4lMFDfHzuNG8BxULQ2n3YOtdQfxTP0BuOwkKDTgsLpgsVghW51cVCWl0VhOIqNn2G0fTk0wwd6bvIbMYwRrtdhR727B4fZTbFFPJkfxTe9v0Rfu4t+KGGweo6yx0giWT83JIDaeAqju8CLXqvIiWAkOyYU1NRuxqXknqj21XB+XBQUwQPVQKe4xHh7B5d5vMZUeg74AydJaRuRABTi8NTJXd5rLX0q7VNo5B9wt2N10HJ21O/AgdAu3xi4gnB7nOE1GU6ZJlYhInSf+wvHXmIrIpJ3jrzqWQT1sAB6LAy9tO4g3DpyAx+mad/TTwjo4HEQqmUY0msAX31zA6OgEjj+37xGCzT2EY1aGgXgihW9PX8JvfvsZamuq8ZM/eo3dxBSrnO8aj0zh/37nb9EbGVuUKC+PqczVpbxWJ97edwIv7DyUt5uUTp/q6x/Cex98hes3u3H44E6cOL4ffX3D+PDjbzAwNAa324mf/uEptuzm20zM/E7Ciyoe/eXvfoX74eHSuYkNoNbhxg/2HMPJHYfhdOSfCkYx9ampCEbHTDfs16e/Z8I9cmDnogmWvCP3RwfxD1+9j7tTg3xAgEWLwSX3oq6N6oTPvmhRnLNGbsSLG36Mlqp1eP/u36IvdIutTKfVDYfVDcPQoOgpjn+qusobYUVNscu40duBLfX70eTtgM3qyKrGJdhtDnYVG7qGYHyY527uXKCkEkH35DV0T1xFTAlxfJY23bLNhRbfBhxsfxmNnnaMxfpxuu8DDMZ6oGqZBWOvuXFAFuz4vRimLlugBC0oUMrxqA1D1dYk8lqWxhuWm+OPh7+kU2//zLjlO46hwG5oMh35lT/rVCLBJiIZxKdSkIpEsByDle2LsmDNUmvZEnJOmIUmCrRgLYYEv7MBx7f8AIc3vQCXg+I+2YLrWTECxbSmYuN45/zf4ubodzzJ5ruYYDU6cF4yD2R3k9Bp9jtoQpH7aEvdPhxse4Unc0SZYjfwRHyYJ2BMCcNld8Fj9yOtJtEf7oJC1vQsFw3QZIQETm6k1AYYpP7KM7bNCsrsdy4U5535ampvrezFqV3Pct5nPjE4WghpE9LXP4J3P/icXcbHjz5JsKqqITg+CbJ6R8Ym8OnnZxGJxHBg33a8/spz8PsXthRD8Sj+0we/wK3RXugLeG2XgkGdqwo/2n8Sz27ZAwep4vO4qH23unrwm/c+YwxePHEInRs68MXXF3Dnbi9i8QRXv3r5xSN46wcnWBCY7zUVC+PP3/85usb7YSyg9p8Wi7E+L39rl1TTbVV1HH89uGknV6kq5OK4uqYjnkji1+/9HmfOXcHh/YsnWHpeMDKF//zxr3Ar2A+dBqeRhEu6g/q1MmxUdW6WizxXjd41eLbjB/A76/DJvX9Ef/gOh2gkOoTCII8Wn2X0hAaCCLbG2YANtTtQ52nhe2Srm+e12+FDwNUIRcuwOIlUwznh01RyDPenbmIodh9pSqkClY2Vsal2Fw60vwKPvQo9Uzfw/cDvMZEahaoTueZ/mQQbZ4LNjC+NYOmtNEbyVfHn/5XmL3ME+/h90qm3fmbcqno6CJYFCSEqMKFAsj166kchgOYsWPVeHA7FCofDASuVUSvgIZLFwosYWS/kDlNsGtRmK9Qme0EiJxrsLqsHO9uexYs73kJzTTtsdMJL9qJBn1KS6B66hne/+wcMRXugQcuLYOlHvjonZA8l289+C+1WO6q34EDri2jydSCUmsBkYhRuuw/VzgC7icml5LZ5kNbSGI7ex7mBj5BS47MTrG4gHlIRnvRA0YlgSWizsHqS4pgkynHaHYwnndpCKR80oexWikNR0XWypJ9cfGmRbXBX4/U9z+HYtgP8jHwusmB6+4bwm9/OTbAUh/3o09NMQuFIDKFQFI0NAfzg1DFs39YJr2fhdBBSl/7VR7/ElcFu6HOU5KR20qEDhIFst4PSPpJKOouBxSQOLjyfnhMDEvq8vf8FHNqcP9GQOvrq9TuMQTgcxdEje1gxff1GN6qrvRgaHkMikWLL9qd/dApeb/4uWN5YvP8L3Bp7MHe7IXG83CM7uY3Ubopbk4XGAjyr6clJZzKzEi85c9bWNLKwa8/6rbwZWMxF/fzP73yKM+cuL4lg6d2heAR/8cE/4sZYLwwyuIw0ZOM2Gtc7YbPPboGRx6rV14n9rS+wu/fLB7/GaLQXbrsXbnsVe7HIozRX2hyJlsiC7ajehEhqEu3+zaylIMuULtqkk2tXgumxIqK9PnYWV0e/5bnMRA4JHtmPVzb8FOtqtuHO+CWcGfgAk4mRgjMJ6J2lINjF9G2+98y2qX/qCDY+mUKSCNZRDIJNwEjJgN0Nw5LfopzbSVGqRo3fD7fbg0g0jKgaBRo0SK0GQFqQAtjaYlhQRUq9tcdwZNOLaKohwZGDd1WpTALdwzfx5Y33cHfsOtJILjheaNOscaqOAV+di8VOsxEsLWB1nlYcaXsNrVUbMBx9wDtWUpCuq92KDbXbYbPYMRDuQX+kC72hLibfhBqZU0lsVtkignUjAyowMT/BEkxUbafFX4+Nje2o8/qZXPsnRzEUCjKQTVW1UHUNd8f6mXSe2GXqBgKuKry++zmc2H4gLwuWF508CJbcyfd7h9hlSoKYgcExPOgdRGNjHV596Qh27dy8oLUYjkfx/37wC1wbvg+DYnCPjQ0iV9oUtNc0orOxDbWeKkSTCfRPjWIwNM7xMzoBR8kouDXygEnoiUsz+FCDHx14AUe27M7bkiMyvXKtC+++/wVvINpaGln0RScLHTq4A2fOX8XwcBAH92/HT//4NfgKIdhYFP/Pb/87W7CYZWNB7aajA9trm7ChsY2PkYsk4+ifGMVwZByy1YGGKj/X/b0XHOTNxmx9v6a6AT88cBJ7N2zNu92PP6eYBEv9/R/f/wVuBnMEq0A2bi1AsKaCf0/z8xwzPTfwMcc9SR9BLuO741dwc/zCE7HSXDuIYPeQ0rd2O8ZiA2zNVsk1TKJxJTLdXHIf17maefNM8dsLg59CUR+uKR6HH0c73sAzdfswFH2A74c/x2DkLhN8IZ6FUhDsggtfCX7wVBEsLd6JSBrxqXRRLNjMvQS0lAuazQtYyGrMkxVpQXQ6UdfYiip/DSaDI5iKj0JqUGBt0SF5Ck+uJ9m9X67H7jVHcXjjSTT629glc2/4Jr6+/SG6x64jRUrCPMQi0y5iiwRvYG4XMbmW6j1t2NF4hOOspC6kPNj1ge3wywHePaf1NL66/xuOy6a1JHT9yUVu5rjmPgprTLBpbWELlhbyxqpaPLdpN9bWtbLlYqaXGOibGDXTYnx+9AQH8eXt7/n81ScWWcPg9JTXiGB3kAWbX5pGPgSbS81RMxpX7BkNTuIXv/oA/f0j2L1zC5NOdRXFmee+woko/vLDf2KCnc1FTHGltpoGHN24i/9KbaY4MgmkHgSH+cHN/gC6hh/g85sXEc/MtskAE+zbRLCbd+VNNKQgvnm7B+++/yX6+odZgetyyWyxrlvbxvHm0dFxnHz+IN5+8wV4CnARmxbsz3FrjFzjT84teldHbROOb9mLBtpEqSoXiKANRN/4CBw2G/weH6723cXZe9eQzJAq99GLUnTaq+vx5v4T2N+5Le92l5JgqVTmX/7ul7gV7Mu6iFNwogsN6+a2YGkj2+Hfgj3Nx+GTa/Bg8iaLkPY2n4DVaseHd/4Og9F781qwRLCkoRiN9WNT3W7UuBowFuuDwpoJ86I5T3Fduq6MfIPzg588QrCUT9vobceupmP8PSRqvD56ll3JiUwk77xcQbAAKi4GS/G9qILYBBHs0kVO6r0ELGk7rHYnLHzodP4E63C6Ud24Bu7qekTGBxCLD0Gtz8BotsBwY1HJ9RZQLKUeO9oOYUvrLiSUOC7d/wb3xq4jmSe50sCeFjnZzGpODtfcIiea2DThLJKNd8q0gybLYijygFN2nHYvvnnwDqsH86nqxFZ3lAhWRkppgC7RZJ4bV7Kim6prsat9I7sBR8LjqPVWoyPQjFpvFS+Yk7EozvdcR/dY/+zWmwFU2V14ZfthLjRAZ7zmcy1EsKY32jyiLucBIBcxEex3l25hY+ca/E9/9gecIzrfyJmMhvEf3vt73JsamjUWSURD1uuW5rVsvQejITRU1aAj0IQaTxW7UCeiYZy5ewU9E0N8XNwTlwH4HW68vf8Ent92gL0C+Vy0aXjQO4T3PvwKl6/eZsuVcl8p5kq5v//6zqds2ZJimkRg8+X9PrLRolhkeJJdpXdDQ7POBybYQBN2tHXyIe5jkSneSJBFW+P2cZpRMDaFb7ouo29yhDceT2yudKDeXYU39h7Hsa378m53qQiWQhgD4yP4b5+9gzsTA0ywkhGDy9qD+g4Z1nlcxO1Vm7Cv9SRaq9az7qEvdJfzYqlQxG9u/WdMJUeyuaemVsGsqkTV1ijmalqw0wQb2MWpOP2hrhlpdVSNyQqvXMMZC6QgfpxgCRdyV5MuZFv9QXTW7aQaTrgVvICu8e8QSgU5LSifq9gu4nzeWezfPF0WLMWgkhkuk0gn6Cz21LGZKmJHxgIXn6aTX84gd6AkwepwwVXbAYc3gFRoCMn0KJR6HUqzfUnF/q2GlXNT67xNSGspjMeG2XLMx3KdHlzkHaZKPA4rn6rjoLNh52EAElVRnGd30zHeQXdPXEHX+CU0+jr4398OXsBkkuIwGk+u+UqrESnxOb0TVsRTpCKm4+nmfrkpsnKgyulhIUY8nWSRF1mxdb5qOO12TMSimIiF+b/PJX6i4vbPb9qLtw6dRLXHN2/tXXoGiXsopYKstvd/9zWGhoM4eng3XjhxAG6Xi2Pr9JtkUuFx5uBKX+AiDH//8/cwNBLEvj1b8ZM/OoUq39wWLC24/cFhFjkNJCZmLceZc5XSqS8UZ04oaXYLkxVb5/NzHHI8EmIMyFU+q6uOIhMWB17b+SxeAHEaEQAAHJZJREFU3v0sfG5PXttFwoKUtJ9+cQ6ffXGON1dErnt2bcbF72/iq2+/ZxXx//Anb6OzsyPvHFPaBNwZfIC///K36IuOzUqw9C6XQ4ZPdiOVoXan+Ple2c19TzHp8WgIE/EIq+lnlT5RxTKrjFM7juDVvc8tqCB/fAGmDQa5yaOxBN55/3MutLF/zza88tIRNNTXckUnIqV8taOkH7j6oAv/fO5T9IeD0CWNqzl5XcOoaXHMWc2JRE5NvnU42v4DrK3ZgvHEMC4Nf4WdjUfhdzXg+uhpTCTJo5PmzTD9oVx1slAj6UkmzJkEu67mGVQ760wLdkYRCbZgHT4uVHF97Ay+G/qMhYuPX/Q7Ejl11u3C9oYj8DqqOSZLLmeq/JSP4EkQbIWl6dAgyKQ1TA7GWCHLh6wv4po7TSf/50k2O2yuGlhlN9RkBBnEkG60FKwinu3zSTFoljUzK7gURK5Zo4sKTcgeOzx+mYl2vouFVnYfdjQ+iz0tz2MqMYre0G1+P01kSkKnBZ/ETuRGHo8PZsuvzf5UVaE6xBpi8UZoUs2ChSbo/bSAcfpAVsTEkvysmprEbQuVa6QC97tbO/HWwZNY00DFBuZuczqdwb2ePjzoG+KiEV13HnDccU1HM1uljfW12LC+ndWl12/cQygSgdtlWsVUjODa9TuoDfjx2stHsWfXlkfKKz6OSDqj4EzXFfzL2U8xocTm3GvMhQHhTkyZDwYybDi4bht+sO8Y2gKNeac0KEoGt2734HefnuaNRuf6NgQC1ei628vq6UMHduDUy88t6Aqf2fZUOoXPrp3Dh5dPY1KJzenRYWVo1k8ws+8fttvMUZ7zMgCHZMXRDTvx5v7n0VATyPu8X+rf4ZExLh4yFYqwq3xgcJQLbdA4IILdsmkdWlrq896AJ1JJfHTpW3x64zxCCh3yoMFuDKLKH4UvYJ/zAHbaVNa6mvDCuj8CkWPX+PcsJmzwdmCDfzuqnDWmhtgwNxqqpmAk2ssb4WBiAHaLg6stdQZ2sZbCJlkh2z3IqCmoM2oNmzWFrbxRHoh08zxPqrFZrVJO2bF7sM6/jV3GpEbunrzCruUgKZIXqGEsCLYCCZaKAhDB0mRcbKnEouTBEgGQutVi5bikZifr1VEUgl3EnuHRW0jklNHhrpaZYGkzstBFruIGTzun6zR425jgcxOIJhq5DklhfGPsAgYjXRwrneuiFKHIuIpImI6pqwPo8IASX5Tu1Oqrxet7ji1YLi+ZTLNy9vqNuwhFYsgoGWjZ2rsUY2xva8Ke3Vtgt1px7uJ1VhCnUmkun0iWbUtTHbZt7eQ/Pu/8KmKKQ/7j1x/g3P2bSFNN2IW7YtFIEQYd1Q340YGT2LVuy4Liq9yLuNhENM4EQ+UCg8FJdkPTpoIqVpHAqbWlcd6KVTM/mp5Hub+/+OoDfN/fBaXEZ8NaDYlPUKJUHTpBKd9UHbJeex4MciWn8Ykp0MaLvBZcg9lhR31dDQ7s34H1a1uztcrn7xraCIxMBvGr0x/j0sAdKKT2NxQ40INAM1VWmztdjp5M3iJKlWur2oBbYxdxa/wCb2QDTioA08B1imn40LykTW8kNcVCqLQa58pORLDbGg4hlYlzqUXemNEGfYbtT/fTfObsBDWB8fgQesNdCCXH5o7v2txc/II8XLLNieujZ3Bj7Nys1Z9mIiQItgIJVtd0RIJJKMkMJC62Xvh6VAwLdvqt2feblZzKhGDJ4tMMdg+7qxyQ8jpxiNJE7PDJfo6/uOweriplWpU6VENFMhNjyT4Vn8jVRp0NfUooT0QziEw4kVKbCsqFLbw3s3dQsQmrA8927sKpvUfR6J/bkiHLhWKpU6Ew0sqjilxKF6LUGyokQX8/MRHC2PgUkkkz99gpO3jhraur4XjkfHl5LCDqv4d/Ov0ResNUICT//M5F4UDuUpuMF57Zz/nAdVU1eecNEjkkEykmmsnJCKdKeTwurmZEZSIXKqYx83vJar/ccwv/ev4zDETHF6VHKKT9BCvF4F/YepDPAK7xVufVbi6HGU9inPo3leINVO6iDSVV9KoL1MDrze+gejrcgQ5ff//7rzEYneCCMJIegcs+gLpWG2zy/EUSKPYZcDcz0VLlNKpDTGRKnpxc4X7T3Dcpk8kze7JNro4xpdcklChC6XF2484WTsj5DOh+UhgHE0NcrW2uOW0eQuBCo6cDVG2KxFej8d4FY7GCYCuQYM1CBgqi4ymzKkpe5PHYdFUMrkOsdsfhyEjwUgyW8moXa15kD1zPtNiRabJDc6/QgevZZhK5WqnIBMVf5ykyMdsiZhYTJyweXwzMakZUmWY+cuVnUknLNLmJdcSSJHTyk3SikDVzUb+16hLaquvwg73HWVE6X8EJcrmy+/2xN/EOf0ZCO7eZf2v+kjZ0pPpdqKIM/Z7UpO+c+wxn710369IuYjNYKBBkza31N+LtQy9gx5r8rTnutmzFKhJ/UXPZTW+l8ZD/h9OiPTI5jt+c/wzf9d1Gkir/5H97oc2d/r3NkNBZ18Zu4m3tnQVZ79y/s0R42XNjya+4AWE2MDGK3178cka7Ndiy7uGqedzDMxvNRCpJWfLMoyxq9maasxQnpVBPSk2yFatjATESFaRht7O24Jw2vVhWM3TFG+6Fi04Igq1AgqXx9DAOCxY7FXrRgevxOwkkupJ84LrHJbOQZNErAYn63IDUYgFaFq8iLrQds/4+W+hfdtvZgqVzYVfiIpKPT9GJOh4oBh1ZR6kzJV5pDTrUyI497Zvw6u5nsbaxbdGFB5aKGRW7P9t1Gb+7fAbDcbJmlvrEPO83DLgsDhxavxWv7jqKtromrqO8XFcsGcfXN7/HJ1fPYDQRNgstLMeVtd4Pr9+Ol3YdRkugkUVSy3EROUcTcXx54yI+vX4O48kI6yZIPey0DiDQIsHhKv23mPFs0/1bSCW0UmEkCLZCCZbdxGNJpJIqy94L2GDzWKID1ydvpTB1MwWHLsPjdsNuM0+tWNQlGbC4AUebDvsi82AX9d7ZbqLduG7ARUfVVc9/VF3R3jnLg8gCUtMaQmMaElT030Jip2VYZChdxe7GkY07cGL7QTTV5C9QKRYeVAzjRu9dfHzlDLqDA0gtZEkU68U5a4aO7nN4ceyZvTi+bR/nmC5kcRfjE6hQPiloP75yFvcmBs0Y5DJedDoctfvE1n2cslNXXZO34Gkpn5lIJ9klTv3dMzUClYvuKrBjBD5/DFUBW146iKV8QzneKwi2QgmWdmfpuIqpkTisDnLXFUaMZMFGuxKIdaXg0OzwOJ2mpVPYYx6OabJgXeZh61KLxJWcCjperlizg9JzNIPLsXF6zjz5r8V65XzPIdcb1SWmwv8ptRnGAjmxRfkmcm1mc0KpeMWx7fvR5K/LWwW61G8gkrk12INPr5zlM0FT2ZNLlvrcQu+36AZqZR9ObtuPo8/sQ12Vv6QkS+2+0deNz66dx52xPiRXot2GwYdNUV3qF3cewtEtexDwla7dtA4l0ilc772L3187x9WmUgadVGOm5rjlIPxNMA/beAovQbAVSrA0VklNHBlJQMmorCYuqAh0NgabuWseV0d5sOQiLtQSnjlnDJcEtcUOhWsRr1AMlsVNOlw+mQk2H/Vwqec999OEinjEhwy5ipfh8HUOIOpAtd2Ng53buHxia20DHHkWX1gMJhSDi6USvNh+ceMiuscGkCLV8HK5SB//6CzZ1MgeHNm0Cye3H0C9P5ANhSymhbPfQ9WmYskkrvfewec3LqBnYphJZqUudo1qBqjdzz+zF89t3Y+G6tqihwqo3aFEDFfvd7FruG9qlFXiBgubonBYRuGv1+CqshZsAKwUdsV+ryDYCiZYtmJjKsJj5tmwhcRinzhwXbbBRoUrFjvClnwe7GJfPOO+rPVKLvOFqjcV4W35P4IET5QXO6YinvBDk+oBKb8qQ/m/ZJZfsiVrwGOVsbauhd2lW1rXocrj4xJ8BW3I5vgQ85xeg88QHQmN47t7N/Fdz02MxqeQIYZf6Ysw0A14bE5sqG/ByZ0HsaGxg89MJY/NYjEw261zu4cng7jQfQ0Xe25jMhFBRqK87RVuOG+wDPjsLmxpXoPnt+7neLzP5YaNN9KL+0BT8KaDXMJDU0Gc7bqKiz03EEonoJF/mo570+OwS6Pw1aThrbHNe/7rCqNU8tcLgq1ggs1ZsXQ2bDqpsNoxX0XxzDQdWaX8MxuriJdiwhpOCZkWGekmGZq70APXlz7WyTVMQkhXlQNuyn0t0G2+9C+Y+wm0MGVSZjw2maqBLtXBYJJd3EJX0LcagFUHvLTYtqzhE1fa6xrhcdJxXvbsKUrmd+ROH5zt+Q+LYJgKzwyfdqNgKhZB1+B9jj0OhIKma3SlrNa5gCEMNHDFpG2t67Br/Ra0Bxrhll1cWpBEUDn9weMYzGy3oetQNJWJlY6iuznYg6sP7mI4PI4knTNaRmOOoaC8ZV2Cxy5j55qN2L3uGbTU1MPtdMFpo74nTYDZ8sc595H+5nZnkEynEY6Hcb23G5d772AsOoWEppheCkmHRY/DZgnCW5WCx2+FnQq8LMMQL2g+LOOPBcFWOMHSWFGSGluxZEmYruKFR9D0cXXdcdjTOmSbDVZaHPK4d841zGWF3uaE2uqEvtwESzvrjAG70wpfwAUblUYss4s9DikNsXEdqRS5i2uz+bG8OpX2azn9BHCACp074HO6mWSba+pQ7fJxbJK+zzbPUWf03xVFgc1mB+V5TkanMDAxhpHQBBKZFMdaNTOLvzyvbF1lu2GBy+6E3+VhkqX4tNdFZxCb6SiPlwzldmcyTEZKJs2lC/vHRzEanuDyhrShYIV02bbb7HsZVj65x+/yoq3ObDdZtJR2Qhdv0GdcuXZbLNRuBePRSfQFRzAankRaU5DSMtCnh64KqxGD3TIBjy8Nt9/K1dPyWYvKc7AU56sEwa4CgiXLLRFVEA+lWd3y+ESZbahIGQP6/RjUu3FYkpq5uFiMxa8RNJNcVlg63DDaXVTxAMZyza5s3WGKt1LVJiqPuFgXWHGm1fyWrEopUlMaknEHFNUP3eKlY56z5RRLvEpnSYZEUFaYZ43aJWs259DI1pyd/RuoEIOaycDGB5kbyOgaFJ0KrRsPPScl/vyi9E828ZcwsEkWOCxmbiPnvgJMsDObwd4HNcMbC3INUwUvartKaSim3V++5PoIY5omrdluKxwWG5f/5NxfPmXm0c252W6VC2yYpQk1ZAx1Rrup6Rokg+pGxyDbwnD7Mhxz5UPVK2EsFGVAzf0QQbCrgGCpe9WMjkQ4jXSckvmJLOcf3ZKqQx9OQRtKAckipBLQGiNbYWl0QmqUIbmWyUWcjbuSO9hV7YDT5ygr1/CsU480KKqBVFxFIkJWoRcZnUjWlXUbz2bRlmC1eqKoknlqznwXLcVPpHKV4NNKvO49fPwjGOT+4ckGPd3tfqw3OL9VhQQFEhKwW2NwulJw+STItMmmsqSVPCaKOPgEwa4SgqUtpqpoJskmzXqv85EsiV+MtA4jpbGsvygXkTqVQqO4y3J4aJlcdd5QuHwOuKsdeVnvRWlrER5CLn01rSMV05FOSsioTqiaC7ph59rFhkGpDTm3nVixigC5eESBCJgbC/OSKKdXImLNwAoKFSRhd6ThpPx3t4Wt1sWe7lXgZ1XMzwXBrhaCNb0/XOEpGcmSLE2KeeKq5Cqa9divJQxfrqKyHFyQtVxp9hO5uqrkOY/BWkJzSn4reVepKAZ5IDIpA5k0HSMnQdPs0DQbDJ1ceFSHcjlALXlzxQsqCgFSDGugGKzFQqEnDVaLCqstAyr65nBKsDstPO8W8phVVLOL+LGCYFcTwZo1sLl6UDKahpIw42M0+FfTBCBCohQEmvhOn53dwjTJK/niMr/UrOwhBeRCpj90GtZ8J5VVcpvFt5c5AjwedQ65UMVFySZxfW+aa3xUJicdVPa8K3UPCIJdZQTLhiwf1UYkq3C1Jyq8QOfG8mSo5PmQtVqJhOyyhYtJkKCpHIpJFHWimtlGglmLCqp42GIQMCPuOVXYw1SuxTzrabxHEOwqJFgeyCykodieinQ8Ay1NQqas2rPSiDbrRiWrlTYJdpeNLVcqv7aaLPOncQESbRYIrGYEKo1gZ/NISKfe+plxq+o4hgK7oclV0AtwWzSuVoLNjlqO7yka0gkVSiIDNUNES1WfTGuWajeVZXgvu2nOuYNpJ005rrLbxvWFzQMOKtkcX83LimibQEAgQAhUEsHm8sAfX1cFwS40lsma1XQmWiVFRKuyGMo855ET4LIJ4bOfpVMKAn783O3pbIlsQQTOzSOBsEWCQ7byma52mZLXLcJqXai/xX8XCAgEygKBSiJYKjYjLNglDBtTsaqzYlVTdCbZTJKsWpPe+FBpNgoNs0jEjAO2n0iZXMJ30K30Gn78tBVqEir9S3YDyxbYnDbYZBvsDlIqZjtfGK1LRF7cLhAQCCwXApVCsHNZr7xWCxdxgcOFiJaLdhvQqeCERvFaDToRr6ZDVw1WHzPhLVh6oMB3z/g5ESxZqCRSsthJoWgSqcVuYbUiHV4wbWUv/jXiToGAQEAgsCIICIJd5THYvEZVlnDZwjX/X1bFmtfdS/4RG7HZOrBC+r9kOMUDBAICgTJBQBCsINgyGYriMwQCAgGBwOpCgAg22B1D6IoVmXHLtFew3FpZWhdxw5+jY0OaRTTiEggIBAQCAgGBQDEQIH1L8E4UkesWKOM2LhxTjlfJCDZgDeFE4K+wdkMETpc4AaIcO198k0BAICAQqEQEmGC7oghdtkENPYUWrN8SxQHvv6KzoxvVAYOFNnyVu1p14YNPKnE8im8WCAgEBAKVjUAuhx9AKppB8HYS0at2aEnKzCjPppXMgpWhYK3tBrbVfoGW5knIbqpxO39JQQuduUoFrlmYs3yAkf7IrFVrFohf1pcvXzPFmwQCAoEyRMAsmVimDFE2eElcJ53EolraQGw4g1C3gdSAFYZaNh/5xIeUjGBpwPikONbar6LFexvV7inIjsw8VYJ02K0qnC4FLo8Bh0yFD0oPnK4ZSCeBZNKCVJJOWiFnvoPyXEr/cvEGgYBA4OlEgDlV5z92PQUr0g9rE1cwIqWyi8wkDEp1BJSIgXQQSA1boSvla72ywzaXxTGLxbikPFhzjBhwI4VqywT81mHIlsScQ0eSDNgtSVQ7xtBcO4BAXQIuT2nPQdQyOuJRCcFgNUZjrYima/n7VEMWx5hV8CQXny4QKHcEmF8NDRY1BU9iCIHMAGQjXtEky+RaQtejIekwMoAWl6AlJOhqeZPrMhCsOcyt0GGHCiLR+S4JOnzSFNa7rmJj/VkE6jNweunMxOJPFzqyLBY2MDJai56pPehTtiFh+DhI/PAo5OK/VzxRICAQEAiw+WEYJsGGH2Bd9Hs0pu/BgjL2dy7QbTlrrRS9yyVe6f/4SM3KORCrxBZs4VBboMFvCWOz5wzW115FXX0cbh9VHir8WXPdYZIrMDwawL2pXehVdiCs10JHEV9SvM8VTxIICARWKwKGDkdyEh3jF7AxfhZ2I1WxLS05wXI99cqKVZcdwdLoskBHlSWCDa7vsDlwEfUNUbi9Zum/pV45ch0arce9qd3oTW9DxKgR5LpUYMX9AgGBwKIQkNQEWobPY0f8Czj05KKeUQ43CYJ9shfKkmBNkjXgs4Sw0XUJG2svoL4+DE+VdfEky+e4GohFDAyP1KE7tBe96e2IGH5BruUwO8U3CASeUgTITdw4fA674p8Lgp1jDLCLWFiwxZ0hZMlWW0LY4LyMztqLaCBL1peNo8+f8fPIhxiGBE0zkIgAQ+wW3sNuYUGuxe0v8TSBgECgcAQsahqNw2cFwc4DnSDYwsdVXneYJBvGOvkG1lZ9D79vCg5HBhaLYZ5fuoDXmPJbDd2GVMqGyWgdesK70K88g6hRLSzXvHpA/EggIBAoJQKCYBdGVxDswhgt+hdEsl4pjnrrIGptA/DaxmCxqKxNnp9hdUjQkNHdiKoNmFDbManVIWm4BbkuujfEjQIBgUAxERAEuzCagmAXxmhJv6DkGSs0yEhBltKwSHoeJJmrrWVF2nAgCScMju4uXSy1pMaImwUCAgGBQBYBQbALDwVBsAtjVLRfmKXFCrsEqRaGl/i1QEAgsDwICIJdGGdBsAtjJH4hEBAICAQEAo8hIAh24SEhCHZhjMQvBAICAYGAQEAQbMFjYFUS7Ktv/dS4XfU8hgK7oclV0EtYZ7JgxMUNAgGBgEBgFSCQs2B3xj4reR4sFT4o5VXK55e6ilOpnj9XAQ7plR/+xOiqPiEItpQjUjxbICAQeKoRyBHsjujvl4VgS0mCldyRpSTY2XARBFvJo0V8u0BAIFARCAiCLY9uEgRbHv0gvkIgIBAQCBQNAUGwRYNySQ8SBLsk+MTNAgGBgECg/BAQBFsefSIItjz6QXyFQEAgIBAoGgKCYIsG5ZIeJAh2SfCJmwUCAgGBQPkhIAi2PPpEEGx59IP4CoGAQEAgUDQEBMEWDcolPUgQ7JLgEzcLBAQCAoHyQ0AQbHn0iSDY8ugH8RUCAYGAQKBoCAiCLRqUS3qQINglwSduFggIBAQC5YeAINjy6BNBsOXRD+IrBAICAYFA0RAQBFs0KJf0oBUh2NvVJzAsahEvqePEzQIBgYBAYC4EBMGWx9hYAYL9qXG5+iUEA89AkquhS5byQEJ8hUBAICAQWCUISGoKTcNnsSO6PMX+RS3i2QfOshPsq2/+2OiuOoKBwB5kXHWCYFfJhBbNEAgIBMoFAQOWVBRtY+exNfYVbHqypB8218kuJX1phTx82Qn2tTd/ZIw7N+J+9SGE/Oug2pwASnvcUYX0hfhMgYBAQCCwRAQMWFUFvlg/1kxeQEvyOqyGssRnzn+7INi58Vl2gn3jjTeNlK0aA+6dGPNtQszVAMNiK+kAEA8XCAgEBAKrHQGDTBVdhTs1hUC4C2uTV+BSJyGB/kvpLkGwZUWwbxiQbCCSDdrXImKrgW6xA5L0VNuxNAVKOw0AEe2eYyJU4Ngr1c64dMvwMj65QvtTXwJEhgHohgGbkYFPC6Mu/QBubRIWQ1vCU/O7VRBsmRGs2SFWqJIdquSAJjmEl9gggi0dxfL2RXjiZ5kJNBYrDxrekNGqKq5HEKBxTv1ZaZdJkFmKXWS30m0WXYHdUNgtLGEplJ0/goJgy5Jgc7Mg68CowEmR/xDM45fZSVUqkhUEO1sf8HJckQsytYYItlTjJY8RW5Y/MfuzAheTrAVqGPrS+tSgzeIiGXqRPSoItqwJdpG9ugpvK6VFUpGLzjL0cSUvDkywwop91IJl71jlEWyuL3V9eazOYk6tSp5DxcRhtmeVan7ONcalN954wxAdMnu3lqoz6G2VuOiUevDncKlUbATBPjlCKnVtEQS7HLN9+d9RqjVdEOwi+rJUnSEIdu7OqNQFedpFLCxYYcEuYq0p5i2VPIeKiUNZWLBvvvkmW7ClJJNSgyaevzoQyC0MlWrBkjtRzKNHx2IlL/bCI7E61pWVbIX0wx/+kCPwYmFYyW4Q757pHhYEu/rGQyX1aW4trKRvnjlixFpePvNHEGz59MVT/yXCgn3qh0BZASAItqy6oyI/RhBsRXbb6vxoQbCrs18rtVWCYCu158rnuwXBlk9fPPVfIgj2qR8CZQWAINiy6o6K/BhBsBXZbavzowXBrs5+rdRWCYKt1J77/zd43D1awQ6euBjxLhmtYEd8EhhUATBawQ6q6BiSjgEAEMqPFwKicxcAAAAASUVORK5CYII=;shadow=1;" vertex="1" parent="1">
                    <mxGeometry x="20" y="80" width="472" height="520" as="geometry"/>
                </mxCell>
                <mxCell id="3" value="" style="whiteSpace=wrap;html=1;shadow=1;fillColor=none;strokeColor=#FF0000;strokeWidth=3;" vertex="1" parent="1">
                    <mxGeometry x="170" y="160" width="50" height="100" as="geometry"/>
                </mxCell>
                <mxCell id="4" value="" style="whiteSpace=wrap;html=1;shadow=1;fillColor=none;strokeColor=#FF0000;strokeWidth=3;" vertex="1" parent="1">
                    <mxGeometry x="170" y="360" width="50" height="90" as="geometry"/>
                </mxCell>
                <mxCell id="5" value="" style="whiteSpace=wrap;html=1;shadow=1;fillColor=none;strokeColor=#FF0000;strokeWidth=3;" vertex="1" parent="1">
                    <mxGeometry x="210" y="500" width="50" height="50" as="geometry"/>
                </mxCell>
            </root>
        </mxGraphModel>
    </diagram>
</mxfile>